SplineFontDB: 3.2
FontName: BikeCatalogPoster-Regular
FullName: Bike Catalog Poster
FamilyName: Bike Catalog Poster
Weight: Black
Copyright: Bike Catalog - revived from vintage Bike Nashbar/Bike Warehouse catalog letterforms.
UComments: "2026-6-22: Created with FontForge (http://fontforge.org)"
Version: 1.000
ItalicAngle: 0
UnderlinePosition: -100
UnderlineWidth: 50
Ascent: 800
Descent: 200
InvalidEm: 0
LayerCount: 2
Layer: 0 0 "Back" 1
Layer: 1 0 "Fore" 0
XUID: [1021 823 -1767544778 4454735]
StyleMap: 0x0000
FSType: 0
OS2Version: 0
OS2_WeightWidthSlopeOnly: 0
OS2_UseTypoMetrics: 1
CreationTime: 1782159584
ModificationTime: 1782159586
PfmFamily: 16
TTFWeight: 900
TTFWidth: 5
LineGap: 0
VLineGap: 90
Panose: 2 0 10 3 0 0 0 0 0 0
OS2TypoAscent: 800
OS2TypoAOffset: 1
OS2TypoDescent: -200
OS2TypoDOffset: 1
OS2TypoLinegap: 0
OS2WinAscent: 820
OS2WinAOffset: 1
OS2WinDescent: 240
OS2WinDOffset: 1
HheadAscent: 820
HheadAOffset: 1
HheadDescent: -240
HheadDOffset: 1
OS2SubXSize: 650
OS2SubYSize: 700
OS2SubXOff: 0
OS2SubYOff: 140
OS2SupXSize: 650
OS2SupYSize: 700
OS2SupXOff: 0
OS2SupYOff: 480
OS2StrikeYSize: 49
OS2StrikeYPos: 258
Lookup: 258 0 0 "'kern' Horizontal Kerning lookup 0" { "'kern' Horizontal Kerning lookup 0 subtable"  } ['kern' ('DFLT' <'dflt' > ) ]
DEI: 91125
Encoding: UnicodeFull
UnicodeInterp: none
NameList: AGL For New Fonts
DisplaySize: -48
AntiAlias: 1
FitToEm: 0
BeginChars: 1114112 71

StartChar: a
Encoding: 97 97 0
Width: 525
Flags: W
HStem: -4 175<205.43 299.94>
VStem: 4 180<192.286 299.314> 334 183<8 298.125>
LayerCount: 2
Fore
SplineSet
221 497 m 0
 235 499 284 499 296 497 c 0
 326 492 340 490 362 481 c 0
 403 465 440 436 466 402 c 0
 486 375 501 340 510 303 c 0
 516 276 517 268 517 133 c 2
 517 8 l 1
 493 7 l 2
 463 6 361 6 346 7 c 2
 334 8 l 1
 334 133 l 2
 334 269 334 262 326 278 c 0
 314 303 295 317 267 322 c 0
 258 324 255 324 246 322 c 0
 230 319 218 312 207 301 c 0
 191 285 184 268 184 245 c 0
 184 229 187 219 194 207 c 0
 202 193 218 180 233 174 c 0
 239 171 243 171 255 171 c 0
 272 171 280 173 292 180 c 0
 296 183 300 184 300 184 c 2
 301 183 301 4 300 3 c 0
 298 1 265 -4 250 -4 c 0
 236 -4 213 -1 198 2 c 0
 149 12 104 36 71 71 c 0
 59 84 43 106 38 115 c 0
 27 135 24 143 17 163 c 0
 8 190 4 214 4 244 c 0
 4 265 5 274 8 292 c 0
 17 343 40 388 74 423 c 0
 100 449 126 467 163 482 c 0
 178 488 198 494 221 497 c 0
EndSplineSet
EndChar

StartChar: b
Encoding: 98 98 1
Width: 542
Flags: W
HStem: 329 178<234.766 328.776> 675 20G<10 196>
VStem: 10 190<199.861 694.89>
LayerCount: 2
Fore
SplineSet
103 695 m 2
 154 695 196 695 196 695 c 0
 200 697 200 693 200 468 c 0
 200 222 200 239 207 222 c 0
 220 192 244 177 276 177 c 0
 294 177 305 181 321 192 c 0
 342 207 353 237 349 265 c 0
 347 278 343 287 336 298 c 0
 322 319 304 329 277 329 c 0
 265 329 262 329 253 325 c 0
 247 323 241 319 239 318 c 0
 237 317 235 316 235 316 c 0
 235 316 234 357 234 408 c 2
 234 501 l 1
 240 502 l 2
 256 506 266 507 292 507 c 0
 321 507 330 507 351 501 c 0
 408 486 454 455 490 407 c 0
 502 391 520 357 526 337 c 0
 530 325 532 312 534 302 c 0
 535 297 536 289 537 286 c 0
 538 283 538 269 538 256 c 0
 538 219 534 191 520 157 c 0
 515 146 513 141 503 123 c 0
 497 112 477 86 465 74 c 0
 425 34 377 10 317 -0 c 0
 301 -3 251 -2 234 1 c 0
 202 6 182 12 156 25 c 0
 104 50 64 90 38 143 c 0
 29 162 25 173 19 195 c 0
 10 231 10 232 10 477 c 2
 10 695 l 1
 103 695 l 2
EndSplineSet
EndChar

StartChar: c
Encoding: 99 99 2
Width: 508
Flags: W
HStem: 225 10<494.298 504> 245 10<180 190> 294 30<484 494> 324 176<200.297 292.75>
VStem: 4 176<206.511 303.489>
LayerCount: 2
Fore
SplineSet
190 495 m 0xd8
 190 500 190 500 249 500 c 0xd8
 308 500 308 500 308 495 c 0
 308 490 308 490 323 490 c 0
 338 490 337 490 337 485 c 0
 337 480 337 480 352 480 c 0
 367 480 367 480 367 475 c 0
 367 470 367 471 372 471 c 0
 377 471 377 471 377 466 c 0
 377 461 376 461 386 461 c 0
 396 461 396 461 396 456 c 0
 396 451 396 451 401 451 c 0
 406 451 406 451 406 446 c 0
 406 441 406 441 416 441 c 0
 426 441 426 441 426 436 c 0
 426 431 425 431 430 431 c 0
 435 431 435 432 435 422 c 0
 435 412 435 412 440 412 c 0
 445 412 445 412 445 407 c 0
 445 402 445 402 450 402 c 0
 455 402 455 402 455 397 c 0
 455 392 455 392 460 392 c 0
 465 392 465 392 465 382 c 0
 465 372 465 373 470 373 c 0
 475 373 475 373 475 363 c 0
 475 353 474 353 479 353 c 0
 484 353 484 353 484 338 c 0
 484 323 484 324 489 324 c 0
 494 324 494 324 494 309 c 0
 494 294 494 294 396 294 c 0xe8
 298 294 298 294 298 299 c 0
 298 304 298 304 293 304 c 0
 288 304 288 304 288 309 c 0
 288 314 288 314 283 314 c 0
 278 314 279 314 279 319 c 0
 279 324 279 324 254 324 c 0xd8
 229 324 229 324 229 319 c 0
 229 314 230 314 220 314 c 0
 210 314 210 314 210 309 c 0
 210 304 210 304 205 304 c 0
 200 304 200 304 200 299 c 0
 200 294 200 294 195 294 c 0xe8
 190 294 190 294 190 279 c 0
 190 264 190 265 185 265 c 0
 180 265 180 265 180 260 c 0
 180 255 180 255 185 255 c 0
 190 255 190 255 190 250 c 0
 190 245 190 245 185 245 c 0
 180 245 180 245 180 240 c 0
 180 235 180 235 185 235 c 0
 190 235 190 235 190 225 c 0
 190 215 190 216 195 216 c 0
 200 216 200 216 200 211 c 0
 200 206 200 206 205 206 c 0
 210 206 210 206 210 201 c 0
 210 196 210 196 215 196 c 0
 220 196 220 196 220 191 c 0
 220 186 219 186 229 186 c 0
 239 186 239 186 239 181 c 0
 239 176 239 176 254 176 c 0
 269 176 269 176 269 181 c 0
 269 186 269 186 279 186 c 0
 289 186 288 186 288 191 c 0
 288 196 288 196 293 196 c 0
 298 196 298 196 298 201 c 0
 298 206 298 206 303 206 c 0
 308 206 308 206 308 216 c 0
 308 226 308 225 313 225 c 0
 318 225 318 225 318 230 c 0
 318 235 318 235 411 235 c 0
 504 235 504 235 504 230 c 0
 504 225 504 225 499 225 c 0
 494 225 494 226 494 201 c 0
 494 176 494 176 489 176 c 0
 484 176 484 177 484 162 c 0
 484 147 484 147 479 147 c 0
 474 147 475 147 475 137 c 0
 475 127 475 127 470 127 c 0
 465 127 465 128 465 123 c 0
 465 118 465 118 460 118 c 0
 455 118 455 118 455 108 c 0
 455 98 455 98 450 98 c 0
 445 98 445 98 445 93 c 0
 445 88 445 88 440 88 c 0
 435 88 435 88 435 83 c 0
 435 78 435 78 430 78 c 0
 425 78 426 79 426 74 c 0
 426 69 426 69 421 69 c 0
 416 69 416 69 416 64 c 0
 416 59 416 59 411 59 c 0
 406 59 406 59 406 54 c 0
 406 49 406 49 401 49 c 0
 396 49 396 49 396 44 c 0
 396 39 396 39 386 39 c 0
 376 39 377 39 377 34 c 0
 377 29 377 29 372 29 c 0
 367 29 367 30 367 25 c 0
 367 20 367 20 352 20 c 0
 337 20 337 20 337 15 c 0
 337 10 338 10 318 10 c 0
 298 10 298 10 298 5 c 0
 298 0 298 0 254 0 c 0
 210 0 210 0 210 5 c 0
 210 10 210 10 190 10 c 0
 170 10 171 10 171 15 c 0
 171 20 171 20 156 20 c 0
 141 20 141 20 141 25 c 0
 141 30 141 29 131 29 c 0
 121 29 122 29 122 34 c 0
 122 39 122 39 117 39 c 0
 112 39 112 39 112 44 c 0
 112 49 112 49 102 49 c 0
 92 49 92 49 92 54 c 0
 92 59 92 59 87 59 c 0
 82 59 82 59 82 64 c 0
 82 69 83 69 78 69 c 0
 73 69 73 69 73 74 c 0
 73 79 73 78 68 78 c 0
 63 78 63 78 63 83 c 0
 63 88 63 88 58 88 c 0
 53 88 53 88 53 93 c 0
 53 98 53 98 48 98 c 0
 43 98 43 98 43 108 c 0
 43 118 43 118 38 118 c 0
 33 118 33 117 33 127 c 0
 33 137 34 137 29 137 c 0
 24 137 24 137 24 147 c 0
 24 157 24 157 19 157 c 0
 14 157 14 157 14 172 c 0
 14 187 14 186 9 186 c 0
 4 186 4 186 4 255 c 0
 4 324 4 324 9 324 c 0
 14 324 14 323 14 338 c 0
 14 353 14 353 19 353 c 0
 24 353 24 353 24 363 c 0
 24 373 24 373 29 373 c 0
 34 373 33 372 33 382 c 0
 33 392 33 392 38 392 c 0
 43 392 43 392 43 397 c 0
 43 402 43 402 48 402 c 0
 53 402 53 402 53 407 c 0
 53 412 53 412 58 412 c 0
 63 412 63 412 63 417 c 0
 63 422 63 422 68 422 c 0
 73 422 73 421 73 426 c 0
 73 431 73 431 78 431 c 0
 83 431 82 431 82 436 c 0
 82 441 82 441 87 441 c 0
 92 441 92 441 92 446 c 0
 92 451 92 451 97 451 c 0
 102 451 102 451 102 456 c 0
 102 461 102 461 112 461 c 0
 122 461 122 461 122 466 c 0
 122 471 122 471 127 471 c 0
 132 471 131 470 131 475 c 0
 131 480 131 480 146 480 c 0
 161 480 161 480 161 485 c 0
 161 490 161 490 176 490 c 0
 191 490 190 490 190 495 c 0xd8
EndSplineSet
EndChar

StartChar: d
Encoding: 100 100 3
Width: 514
Flags: W
HStem: 314 186<220 287.539> 675 20G<318 504>
VStem: 279 19<304.001 313.797> 308 186<186.869 557.75> 318 186<196.385 695>
LayerCount: 2
Fore
SplineSet
318 446 m 2xe8
 318 695 l 1
 411 695 l 1
 504 695 l 1
 504 451 l 2xe8
 504 235 504 235 499 235 c 0
 494 235 494 235 494 206 c 0xf0
 494 177 494 176 489 176 c 0
 484 176 484 177 484 162 c 0
 484 147 484 147 479 147 c 0
 474 147 475 147 475 137 c 0
 475 127 475 127 470 127 c 0
 465 127 465 128 465 118 c 0
 465 108 465 108 460 108 c 0
 455 108 455 108 455 103 c 0
 455 98 455 98 450 98 c 0
 445 98 445 98 445 88 c 0
 445 78 445 78 440 78 c 0
 435 78 435 79 435 74 c 0
 435 69 436 69 426 69 c 0
 416 69 416 69 416 64 c 0
 416 59 416 59 411 59 c 0
 406 59 406 59 406 54 c 0
 406 49 406 49 401 49 c 0
 396 49 396 49 396 44 c 0
 396 39 396 39 386 39 c 0
 376 39 377 39 377 34 c 0
 377 29 377 29 367 29 c 0
 357 29 357 30 357 25 c 0
 357 20 357 20 347 20 c 0
 337 20 337 20 337 15 c 0
 337 10 338 10 318 10 c 0xe8
 298 10 298 10 298 5 c 0
 298 0 298 0 254 0 c 0
 210 0 210 0 210 5 c 0
 210 10 210 10 190 10 c 0
 170 10 171 10 171 15 c 0
 171 20 171 20 156 20 c 0
 141 20 141 20 141 25 c 0
 141 30 141 29 131 29 c 0
 121 29 122 29 122 34 c 0
 122 39 122 39 117 39 c 0
 112 39 112 39 112 44 c 0
 112 49 112 49 102 49 c 0
 92 49 92 49 92 54 c 0
 92 59 92 59 87 59 c 0
 82 59 82 59 82 64 c 0
 82 69 83 69 78 69 c 0
 73 69 73 69 73 74 c 0
 73 79 73 78 68 78 c 0
 63 78 63 78 63 83 c 0
 63 88 63 88 58 88 c 0
 53 88 53 88 53 93 c 0
 53 98 53 98 48 98 c 0
 43 98 43 98 43 108 c 0
 43 118 43 118 38 118 c 0
 33 118 33 118 33 123 c 0
 33 128 34 127 29 127 c 0
 24 127 24 127 24 137 c 0
 24 147 24 147 19 147 c 0
 14 147 14 147 14 162 c 0
 14 177 14 176 9 176 c 0
 4 176 4 176 4 250 c 0
 4 324 4 324 9 324 c 0
 14 324 14 323 14 338 c 0
 14 353 14 353 19 353 c 0
 24 353 24 353 24 363 c 0
 24 373 24 373 29 373 c 0
 34 373 33 372 33 377 c 0
 33 382 33 382 38 382 c 0
 43 382 43 382 43 392 c 0
 43 402 43 402 48 402 c 0
 53 402 53 402 53 407 c 0
 53 412 53 412 58 412 c 0
 63 412 63 412 63 417 c 0
 63 422 63 422 68 422 c 0
 73 422 73 421 73 426 c 0
 73 431 73 431 78 431 c 0
 83 431 82 431 82 436 c 0
 82 441 82 441 87 441 c 0
 92 441 92 441 92 446 c 0
 92 451 92 451 97 451 c 0
 102 451 102 451 102 456 c 0
 102 461 102 461 112 461 c 0
 122 461 122 461 122 466 c 0
 122 471 122 471 127 471 c 0
 132 471 131 470 131 475 c 0
 131 480 131 480 146 480 c 0
 161 480 161 480 161 485 c 0
 161 490 161 490 176 490 c 0
 191 490 190 490 190 495 c 0
 190 500 190 500 244 500 c 2
 298 500 l 1
 298 402 l 2
 298 304 298 304 288 304 c 0
 278 304 279 304 279 309 c 0
 279 314 278 314 249 314 c 0
 220 314 220 314 220 309 c 0
 220 304 220 304 215 304 c 0
 210 304 210 304 210 299 c 0
 210 294 210 294 205 294 c 0
 200 294 200 294 200 289 c 0
 200 284 200 284 195 284 c 0
 190 284 190 285 190 275 c 0
 190 265 190 265 185 265 c 0
 180 265 180 265 180 250 c 0
 180 235 180 235 185 235 c 0
 190 235 190 235 190 225 c 0
 190 215 190 216 195 216 c 0
 200 216 200 216 200 211 c 0
 200 206 200 206 205 206 c 0
 210 206 210 206 210 201 c 0
 210 196 210 196 215 196 c 0
 220 196 220 196 220 191 c 0
 220 186 219 186 229 186 c 0
 239 186 239 186 239 181 c 0
 239 176 239 176 249 176 c 0
 259 176 259 176 259 181 c 0
 259 186 259 186 274 186 c 0
 289 186 288 186 288 191 c 0
 288 196 288 196 293 196 c 0
 298 196 298 196 298 201 c 0
 298 206 298 206 303 206 c 0
 308 206 308 206 308 216 c 0xf0
 308 226 308 225 313 225 c 0
 318 225 318 225 318 446 c 2xe8
EndSplineSet
EndChar

StartChar: e
Encoding: 101 101 4
Width: 527
Flags: W
LayerCount: 2
Fore
SplineSet
248 509 m 0
 277 511 322 507 344 500 c 0
 395 484 425 467 459 435 c 2
 472 422 l 1
 459 405 l 2
 452 396 440 382 433 374 c 0
 426 366 413 348 403 336 c 0
 393 324 379 307 372 298 c 0
 358 281 322 237 304 215 c 0
 297 207 291 200 290 200 c 0
 288 200 217 256 217 258 c 0
 217 259 234 281 275 332 c 0
 282 340 288 347 288 348 c 0
 288 349 287 350 284 351 c 0
 260 361 229 357 208 341 c 0
 181 320 166 281 172 247 c 0
 180 199 209 167 252 158 c 0
 270 154 298 156 314 162 c 0
 337 171 356 188 366 210 c 0
 369 216 371 221 371 222 c 0
 371 227 372 227 447 227 c 0
 513 227 519 227 520 225 c 0
 522 219 511 167 504 150 c 0
 503 149 502 145 501 142 c 0
 488 112 474 91 451 68 c 0
 416 33 372 11 314 1 c 0
 298 -2 242 -3 226 -0 c 0
 198 5 176 11 160 18 c 0
 150 23 132 31 127 34 c 0
 94 53 60 88 41 120 c 0
 35 131 23 155 23 158 c 0
 23 159 23 160 22 161 c 0
 20 163 15 182 12 196 c 0
 5 228 4 266 9 296 c 0
 13 316 14 320 20 338 c 0
 52 435 140 502 248 509 c 0
EndSplineSet
EndChar

StartChar: f
Encoding: 102 102 5
Width: 287
Flags: W
HStem: 675 20G<231 283>
VStem: 18 265<196 381.999> 18 186<10 196 382.283 470.703>
LayerCount: 2
Fore
SplineSet
214 690 m 0xc0
 214 695 214 695 248 695 c 2
 283 695 l 1
 283 592 l 2xc0
 283 490 283 490 268 490 c 0
 253 490 253 490 253 485 c 0
 253 480 253 480 243 480 c 0
 233 480 234 480 234 475 c 0
 234 470 234 471 229 471 c 0
 224 471 224 471 224 466 c 0
 224 461 224 461 219 461 c 0
 214 461 214 461 214 451 c 0
 214 441 214 441 209 441 c 0
 204 441 204 441 204 412 c 0xa0
 204 383 204 382 243 382 c 2
 283 382 l 1
 283 289 l 1
 283 196 l 1xc0
 243 196 l 1
 204 196 l 1
 204 103 l 1
 204 10 l 1
 111 10 l 1
 18 10 l 1xa0
 18 235 l 2
 18 460 18 461 23 461 c 0
 28 461 28 460 28 485 c 0
 28 511 28 511 33 511 c 0
 38 511 38 511 38 527 c 0
 38 543 38 543 43 543 c 0
 48 543 47 544 47 549 c 0
 47 554 47 554 52 554 c 0
 57 554 57 554 57 565 c 0
 57 576 57 576 62 576 c 0
 67 576 67 576 67 581 c 0
 67 586 67 587 72 587 c 0
 77 587 77 587 77 598 c 0
 77 609 77 608 82 608 c 0
 87 608 87 609 87 614 c 0
 87 619 87 619 92 619 c 0
 97 619 96 620 96 625 c 0
 96 630 96 630 106 630 c 0
 116 630 116 630 116 635 c 0
 116 640 116 641 121 641 c 0
 126 641 126 641 126 646 c 0
 126 651 126 652 136 652 c 0
 146 652 145 652 145 657 c 0
 145 662 145 662 150 662 c 0
 155 662 155 663 155 668 c 0
 155 673 155 673 170 673 c 0
 185 673 185 674 185 679 c 0
 185 684 184 684 199 684 c 0
 214 684 214 685 214 690 c 0xc0
EndSplineSet
EndChar

StartChar: g
Encoding: 103 103 6
Width: 495
Flags: W
HStem: -210 160<137.083 268.898> 196 10<279.47 288> 333 167<200.453 287.733>
VStem: 4 176<216.671 312.982> 131 20<-39.9861 -30> 308 176<-9.79377 312.953>
LayerCount: 2
Fore
SplineSet
190 495 m 0xec
 190 500 190 500 249 500 c 0
 308 500 308 500 308 495 c 0
 308 490 308 490 328 490 c 0
 348 490 347 490 347 485 c 0
 347 480 347 480 357 480 c 0
 367 480 367 480 367 475 c 0
 367 470 367 471 377 471 c 0
 387 471 386 471 386 466 c 0
 386 461 386 461 396 461 c 0
 406 461 406 461 406 456 c 0
 406 451 406 451 411 451 c 0
 416 451 416 451 416 446 c 0
 416 441 416 441 421 441 c 0
 426 441 426 441 426 436 c 0
 426 431 425 431 430 431 c 0
 435 431 435 431 435 426 c 0
 435 421 435 422 440 422 c 0
 445 422 445 422 445 412 c 0
 445 402 445 402 450 402 c 0
 455 402 455 402 455 392 c 0
 455 382 455 382 460 382 c 0
 465 382 465 383 465 373 c 0
 465 363 465 363 470 363 c 0
 475 363 475 363 475 348 c 0
 475 333 474 333 479 333 c 0
 484 333 484 334 484 162 c 0
 484 -10 484 -10 479 -10 c 0
 474 -10 475 -10 475 -25 c 0
 475 -40 475 -40 470 -40 c 0
 465 -40 465 -40 465 -55 c 0
 465 -70 465 -70 460 -70 c 0
 455 -70 455 -70 455 -80 c 0
 455 -90 455 -90 450 -90 c 0
 445 -90 445 -90 445 -95 c 0
 445 -100 445 -100 440 -100 c 0
 435 -100 435 -100 435 -110 c 0
 435 -120 435 -120 430 -120 c 0
 425 -120 426 -120 426 -125 c 0
 426 -130 426 -130 421 -130 c 0
 416 -130 416 -130 416 -135 c 0
 416 -140 416 -140 411 -140 c 0
 406 -140 406 -140 406 -145 c 0
 406 -150 406 -150 401 -150 c 0
 396 -150 396 -150 396 -155 c 0
 396 -160 396 -160 391 -160 c 0
 386 -160 386 -160 386 -165 c 0
 386 -170 387 -170 377 -170 c 0
 367 -170 367 -170 367 -175 c 0
 367 -180 367 -180 362 -180 c 0
 357 -180 357 -180 357 -185 c 0
 357 -190 357 -190 342 -190 c 0
 327 -190 328 -190 328 -195 c 0
 328 -200 328 -200 313 -200 c 0
 298 -200 298 -200 298 -205 c 0
 298 -210 298 -210 229 -210 c 0
 160 -210 161 -210 161 -205 c 0
 161 -200 161 -200 146 -200 c 0
 131 -200 131 -200 131 -115 c 0
 131 -30 131 -30 141 -30 c 0
 151 -30 151 -30 151 -35 c 0xec
 151 -40 151 -40 166 -40 c 0
 181 -40 180 -40 180 -45 c 0
 180 -50 180 -50 205 -50 c 0
 230 -50 229 -50 229 -45 c 0
 229 -40 229 -40 244 -40 c 0
 259 -40 259 -40 259 -35 c 0
 259 -30 259 -30 264 -30 c 0
 269 -30 269 -30 269 -25 c 0
 269 -20 269 -20 274 -20 c 0
 279 -20 279 -20 279 -15 c 0
 279 -10 278 -10 283 -10 c 0
 288 -10 288 -10 288 0 c 0
 288 10 288 10 293 10 c 0
 298 10 298 10 298 20 c 0
 298 30 298 29 303 29 c 0
 308 29 308 30 308 157 c 0
 308 284 308 284 303 284 c 0
 298 284 298 284 298 294 c 0
 298 304 298 304 293 304 c 0
 288 304 288 304 288 309 c 0
 288 314 288 314 283 314 c 0
 278 314 279 314 279 319 c 0
 279 324 279 324 269 324 c 0
 259 324 259 323 259 328 c 0
 259 333 259 333 249 333 c 0
 239 333 239 333 239 328 c 0
 239 323 239 324 229 324 c 0
 219 324 220 324 220 319 c 0
 220 314 220 314 210 314 c 0
 200 314 200 314 200 304 c 0
 200 294 200 294 195 294 c 0
 190 294 190 295 190 275 c 0
 190 255 190 255 185 255 c 0
 180 255 180 255 180 250 c 0xf4
 180 245 180 245 185 245 c 0
 190 245 190 245 190 235 c 0
 190 225 190 225 195 225 c 0
 200 225 200 226 200 221 c 0
 200 216 200 216 210 216 c 0
 220 216 220 216 220 211 c 0
 220 206 220 206 254 206 c 0
 288 206 288 206 288 201 c 0
 288 196 288 196 283 196 c 0
 278 196 279 196 279 118 c 0
 279 40 279 39 264 39 c 0
 249 39 249 39 249 34 c 0
 249 29 249 29 205 29 c 0
 161 29 161 29 161 34 c 0
 161 39 161 39 146 39 c 0
 131 39 131 39 131 44 c 0xec
 131 49 132 49 122 49 c 0
 112 49 112 49 112 54 c 0
 112 59 112 59 102 59 c 0
 92 59 92 59 92 64 c 0
 92 69 92 69 87 69 c 0
 82 69 82 69 82 74 c 0
 82 79 83 78 78 78 c 0
 73 78 73 78 73 83 c 0
 73 88 73 88 68 88 c 0
 63 88 63 88 63 93 c 0
 63 98 63 98 58 98 c 0
 53 98 53 98 53 103 c 0
 53 108 53 108 48 108 c 0
 43 108 43 108 43 113 c 0
 43 118 43 118 38 118 c 0
 33 118 33 117 33 127 c 0
 33 137 34 137 29 137 c 0
 24 137 24 137 24 147 c 0
 24 157 24 157 19 157 c 0
 14 157 14 157 14 172 c 0
 14 187 14 186 9 186 c 0
 4 186 4 186 4 255 c 0xf4
 4 324 4 324 9 324 c 0
 14 324 14 323 14 338 c 0
 14 353 14 353 19 353 c 0
 24 353 24 353 24 363 c 0
 24 373 24 373 29 373 c 0
 34 373 33 372 33 382 c 0
 33 392 33 392 38 392 c 0
 43 392 43 392 43 397 c 0
 43 402 43 402 48 402 c 0
 53 402 53 402 53 412 c 0
 53 422 53 422 58 422 c 0
 63 422 63 421 63 426 c 0
 63 431 63 431 68 431 c 0
 73 431 73 431 73 436 c 0
 73 441 72 441 82 441 c 0
 92 441 92 441 92 446 c 0
 92 451 92 451 97 451 c 0
 102 451 102 451 102 456 c 0
 102 461 102 461 107 461 c 0
 112 461 112 461 112 466 c 0
 112 471 112 471 122 471 c 0
 132 471 131 470 131 475 c 0
 131 480 131 480 141 480 c 0
 151 480 151 480 151 485 c 0
 151 490 151 490 171 490 c 0
 191 490 190 490 190 495 c 0xec
EndSplineSet
EndChar

StartChar: h
Encoding: 104 104 7
Width: 476
Flags: W
VStem: 19 185<7.125 302.903 449 632.574> 276 186<8 288.717>
LayerCount: 2
Fore
SplineSet
21 694 m 0
 23 695 201 695 203 694 c 0
 204 694 204 673 204 505 c 0
 204 475 204 450 204 449 c 0
 205 449 206 449 207 450 c 0
 209 453 223 465 230 469 c 0
 260 489 301 498 337 492 c 0
 363 488 378 481 398 468 c 0
 424 451 445 418 454 380 c 0
 461 348 462 336 462 162 c 0
 462 42 461 9 460 8 c 0
 459 7 424 7 367 7 c 2
 277 7 l 1
 276 145 l 2
 275 275 275 283 273 289 c 0
 268 301 260 309 247 312 c 0
 237 314 224 311 215 303 c 0
 212 301 209 294 206 287 c 0
 205 284 205 241 204 145 c 2
 203 7 l 1
 112 7 l 2
 43 7 21 7 20 8 c 0
 18 9 18 44 19 285 c 0
 19 451 20 694 21 694 c 0
EndSplineSet
EndChar

StartChar: i
Encoding: 105 105 8
Width: 248
Flags: W
HStem: 475 20G<24 214> 519 186<69.0022 185.536>
VStem: 24 190<10 495>
LayerCount: 2
Fore
SplineSet
24 253 m 1
 24 495 l 1
 119 495 l 1
 214 495 l 1
 214 253 l 1
 214 10 l 1
 119 10 l 1
 24 10 l 1
 24 253 l 1
107 705 m 0
 115 706 136 705 143 703 c 0
 161 699 174 693 187 682 c 0
 221 653 231 603 208 565 c 0
 202 555 188 541 178 535 c 0
 159 524 141 519 119 519 c 0
 100 519 90 521 75 527 c 0
 72 528 69 530 69 530 c 0
 67 530 50 542 45 547 c 0
 37 555 28 570 24 579 c 0
 19 592 18 597 18 613 c 0
 18 626 18 630 21 638 c 0
 28 661 47 683 69 694 c 0
 79 699 97 704 107 705 c 0
EndSplineSet
EndChar

StartChar: j
Encoding: 106 106 9
Width: 395
Flags: W
HStem: -210 170<25.3134 160.266> 470 20G<200 377> 546 130<209.975 282.43 285.569 366.797> 556 111<200.131 248.539 318.461 367> 584 46<366.936 377> 593 37<190 200.007>
VStem: 14 39<-39.9477 -30.0002> 190 187<-9.53674 395.938 556.012 666.823> 200 177<0.0761604 490 556.012 610.124 611.877 666.906> 200 167<546.094 605.939 608.061 610.124 611.877 675.988> 210 147<537.232 605.939 608.061 610.124 611.877 676.001> 220 127<536.993 583.621 630.275 685.797> 259 49<676.375 694.999>
LayerCount: 2
Fore
SplineSet
259 690 m 0xe208
 259 695 259 695 284 695 c 0
 309 695 308 695 308 690 c 0xe208
 308 685 308 686 318 686 c 0
 328 686 328 686 328 681 c 0
 328 676 328 676 338 676 c 0
 348 676 347 677 347 672 c 0xe210
 347 667 347 667 352 667 c 0
 357 667 357 667 357 662 c 0xd220
 357 657 357 658 362 658 c 0
 367 658 367 658 367 644 c 0xd240
 367 630 367 630 372 630 c 0
 377 630 377 630 377 607 c 0xcb
 377 584 377 584 372 584 c 0
 367 584 367 583 367 574 c 0xca40
 367 565 367 565 362 565 c 0
 357 565 357 565 357 560 c 0
 357 555 357 556 352 556 c 0xd220
 347 556 347 556 347 551 c 0
 347 546 347 546 342 546 c 0
 337 546 338 547 338 542 c 0
 338 537 338 537 328 537 c 0
 318 537 318 537 318 532 c 0
 318 527 318 528 284 528 c 0
 250 528 249 527 249 532 c 0
 249 537 249 537 239 537 c 0
 229 537 230 537 230 542 c 0
 230 547 230 546 225 546 c 0
 220 546 220 546 220 551 c 0xe210
 220 556 220 556 215 556 c 0
 210 556 210 555 210 560 c 0xd220
 210 565 210 565 205 565 c 0
 200 565 200 565 200 579 c 0xd280
 200 593 200 593 195 593 c 0
 190 593 190 592 190 611 c 0xc7
 190 630 190 630 195 630 c 0
 200 630 200 630 200 639 c 0xc680
 200 648 200 649 205 649 c 0
 210 649 210 649 210 658 c 0xc620
 210 667 210 667 215 667 c 0
 220 667 220 667 220 672 c 0xd210
 220 677 220 676 230 676 c 0
 240 676 239 676 239 681 c 0
 239 686 239 686 249 686 c 0
 259 686 259 685 259 690 c 0xe208
200 275 m 2xc280
 200 490 l 1
 289 490 l 1
 377 490 l 1xc280
 377 245 l 2xc3
 377 0 377 0 372 0 c 0
 367 0 367 0 367 -20 c 0xc240
 367 -40 367 -40 362 -40 c 0
 357 -40 357 -40 357 -50 c 0xc220
 357 -60 357 -60 352 -60 c 0
 347 -60 347 -60 347 -75 c 0xc210
 347 -90 347 -90 342 -90 c 0
 337 -90 338 -90 338 -95 c 0
 338 -100 338 -100 333 -100 c 0
 328 -100 328 -100 328 -110 c 0
 328 -120 328 -120 323 -120 c 0
 318 -120 318 -120 318 -125 c 0
 318 -130 318 -130 313 -130 c 0
 308 -130 308 -130 308 -135 c 0
 308 -140 308 -140 303 -140 c 0
 298 -140 298 -140 298 -145 c 0
 298 -150 298 -150 293 -150 c 0
 288 -150 289 -150 289 -155 c 0
 289 -160 289 -160 279 -160 c 0
 269 -160 269 -160 269 -165 c 0
 269 -170 269 -170 264 -170 c 0
 259 -170 259 -170 259 -175 c 0xc208
 259 -180 259 -180 249 -180 c 0
 239 -180 239 -180 239 -185 c 0
 239 -190 240 -190 230 -190 c 0
 220 -190 220 -190 220 -195 c 0xc210
 220 -200 220 -200 205 -200 c 0
 190 -200 190 -200 190 -205 c 0
 190 -210 191 -210 117 -210 c 0
 43 -210 43 -210 43 -205 c 0
 43 -200 44 -200 29 -200 c 0
 14 -200 14 -200 14 -115 c 0
 14 -30 14 -30 34 -30 c 0
 54 -30 53 -30 53 -35 c 0
 53 -40 53 -40 92 -40 c 0
 131 -40 132 -40 132 -35 c 0
 132 -30 131 -30 141 -30 c 0
 151 -30 151 -30 151 -25 c 0
 151 -20 151 -20 156 -20 c 0
 161 -20 161 -20 161 -15 c 0
 161 -10 161 -10 166 -10 c 0
 171 -10 171 -10 171 -5 c 0
 171 0 171 0 176 0 c 0
 181 0 181 0 181 15 c 0
 181 30 181 29 186 29 c 0
 191 29 190 29 190 44 c 0xc3
 190 59 190 59 195 59 c 0
 200 59 200 59 200 275 c 2xc280
EndSplineSet
EndChar

StartChar: k
Encoding: 107 107 10
Width: 489
Flags: W
HStem: 478 20G<289 412.5> 675 20G<13 204>
VStem: 13 191<10 228 378.002 695> 286 187<10.178 150.28>
LayerCount: 2
Fore
SplineSet
13 352 m 1
 13 695 l 1
 108 695 l 1
 204 695 l 1
 204 536 l 2
 204 380 203 378 206 378 c 0
 207 378 212 379 215 381 c 0
 218 383 223 385 225 386 c 0
 231 389 247 405 253 414 c 0
 264 429 280 465 287 491 c 2
 289 497 l 1
 386 498 l 2
 439 498 483 497 484 497 c 0
 485 496 485 496 484 494 c 0
 483 493 481 487 479 482 c 0
 476 473 472 464 470 458 c 0
 469 457 469 452 467 448 c 0
 465 444 463 439 462 437 c 0
 461 435 461 433 460 431 c 0
 458 426 451 410 445 397 c 0
 441 389 425 360 420 352 c 0
 410 337 400 326 389 314 c 0
 383 307 378 301 378 301 c 0
 378 301 381 297 386 292 c 0
 397 280 403 273 411 261 c 0
 426 236 441 200 450 166 c 0
 451 163 451 159 452 157 c 0
 453 155 454 150 455 146 c 0
 456 142 457 137 458 135 c 0
 461 124 465 100 468 76 c 0
 471 54 474 13 473 11 c 0
 473 10 431 10 380 10 c 2
 286 10 l 1
 286 19 l 2
 286 24 284 33 284 39 c 0
 281 82 269 143 257 171 c 0
 246 195 237 207 220 220 c 0
 215 224 206 228 204 228 c 0
 204 228 204 179 204 119 c 2
 204 10 l 1
 108 10 l 1
 13 10 l 1
 13 352 l 1
EndSplineSet
EndChar

StartChar: l
Encoding: 108 108 11
Width: 222
Flags: W
HStem: 675 20G<18 204>
VStem: 18 186<10 695>
LayerCount: 2
Fore
SplineSet
18 338 m 1
 18 695 l 1
 111 695 l 1
 204 695 l 1
 204 338 l 1
 204 10 l 1
 111 10 l 1
 18 10 l 1
 18 338 l 1
EndSplineSet
EndChar

StartChar: m
Encoding: 109 109 12
Width: 684
Flags: W
HStem: 10 470<82.0254 196.739 258.049 326.949 366.051 434.908 493.908 610.975> 324 176<174.5 247.976 436.393 490.394>
VStem: 13 186<10 322.125> 238 216<12.2969 324> 258 177<10 323.768> 493 177<10 322.513>
LayerCount: 2
Fore
SplineSet
150 495 m 0xb4
 150 500 150 500 199 500 c 0x74
 248 500 248 500 248 495 c 0
 248 490 248 490 263 490 c 0
 278 490 278 490 278 485 c 0
 278 480 278 480 288 480 c 0
 298 480 297 480 297 475 c 0
 297 470 297 471 302 471 c 0
 307 471 307 471 307 466 c 0
 307 461 307 461 317 461 c 0
 327 461 327 461 327 456 c 0
 327 451 327 451 332 451 c 0
 337 451 337 451 337 446 c 0
 337 441 336 441 346 441 c 0
 356 441 356 441 356 446 c 0
 356 451 356 451 361 451 c 0
 366 451 366 451 366 456 c 0
 366 461 366 461 376 461 c 0
 386 461 386 461 386 466 c 0
 386 471 385 471 390 471 c 0
 395 471 395 470 395 475 c 0
 395 480 395 480 405 480 c 0xb4
 415 480 415 480 415 485 c 0
 415 490 415 490 430 490 c 0
 445 490 444 490 444 495 c 0
 444 500 444 500 488 500 c 0x74
 532 500 533 500 533 495 c 0
 533 490 532 490 547 490 c 0
 562 490 562 490 562 485 c 0
 562 480 562 480 572 480 c 0
 582 480 582 480 582 475 c 0
 582 470 581 471 591 471 c 0
 601 471 601 471 601 466 c 0
 601 461 601 461 606 461 c 0
 611 461 611 461 611 456 c 0
 611 451 611 451 616 451 c 0
 621 451 621 451 621 446 c 0
 621 441 621 441 626 441 c 0
 631 441 631 441 631 436 c 0
 631 431 631 431 636 431 c 0
 641 431 640 432 640 422 c 0
 640 412 640 412 645 412 c 0
 650 412 650 412 650 402 c 0
 650 392 650 392 655 392 c 0
 660 392 660 392 660 377 c 0
 660 362 660 363 665 363 c 0
 670 363 670 362 670 186 c 2
 670 10 l 1
 582 10 l 1
 493 10 l 1xb4
 493 157 l 2
 493 304 493 304 488 304 c 0
 483 304 484 304 484 309 c 0
 484 314 484 314 479 314 c 0
 474 314 474 314 474 319 c 0
 474 324 474 324 464 324 c 0
 454 324 454 324 454 319 c 0x74
 454 314 454 314 449 314 c 0
 444 314 444 314 444 309 c 0
 444 304 444 304 439 304 c 0
 434 304 435 304 435 157 c 2
 435 10 l 1
 346 10 l 1
 258 10 l 1
 258 142 l 2xac
 258 274 258 275 253 275 c 0
 248 275 248 274 248 294 c 0
 248 314 248 314 243 314 c 0
 238 314 238 314 238 319 c 0
 238 324 239 324 229 324 c 0x74
 219 324 219 324 219 319 c 0
 219 314 219 314 214 314 c 0
 209 314 209 314 209 309 c 0
 209 304 209 304 204 304 c 0
 199 304 199 304 199 157 c 2
 199 10 l 1
 106 10 l 1
 13 10 l 1
 13 176 l 2
 13 343 13 343 18 343 c 0
 23 343 23 343 23 363 c 0
 23 383 23 382 28 382 c 0
 33 382 33 382 33 392 c 0
 33 402 33 402 38 402 c 0
 43 402 42 402 42 412 c 0
 42 422 42 422 47 422 c 0
 52 422 52 421 52 426 c 0
 52 431 52 431 57 431 c 0
 62 431 62 431 62 436 c 0
 62 441 62 441 67 441 c 0
 72 441 72 441 72 446 c 0
 72 451 72 451 77 451 c 0
 82 451 82 451 82 456 c 0
 82 461 82 461 87 461 c 0
 92 461 91 461 91 466 c 0
 91 471 91 471 101 471 c 0
 111 471 111 470 111 475 c 0
 111 480 111 480 116 480 c 0
 121 480 121 480 121 485 c 0
 121 490 121 490 136 490 c 0
 151 490 150 490 150 495 c 0xb4
EndSplineSet
EndChar

StartChar: n
Encoding: 110 110 13
Width: 486
Flags: W
VStem: 12 189<8 310.76> 283 191<7 317.205>
LayerCount: 2
Fore
SplineSet
205 500 m 0
 215 502 269 502 281 500 c 0
 291 499 302 497 315 494 c 0
 338 489 370 474 390 460 c 0
 396 456 406 446 413 439 c 0
 433 419 444 402 457 370 c 0
 459 365 466 343 467 336 c 0
 473 307 474 290 474 143 c 0
 474 16 474 8 472 7 c 0
 471 7 428 7 377 7 c 2
 284 7 l 1
 283 146 l 2
 283 237 282 288 281 291 c 0
 277 308 267 318 252 322 c 0
 239 325 224 321 215 311 c 0
 210 306 204 293 203 284 c 0
 202 280 202 216 202 143 c 0
 202 38 202 9 201 8 c 0
 200 7 157 7 105 7 c 2
 12 7 l 1
 12 156 l 2
 12 310 12 309 17 336 c 0
 20 353 30 379 38 393 c 0
 52 419 78 447 100 462 c 0
 116 472 136 483 152 488 c 0
 168 493 180 496 205 500 c 0
EndSplineSet
EndChar

StartChar: o
Encoding: 111 111 14
Width: 518
Flags: W
HStem: 0 176<210.325 307.548> 10 186<199.999 257.2 260.8 318.001> 324 176<210.297 307.703>
VStem: 4 186<196.394 303.722> 14 196<186.611 248.846 251.154 253.2 256.8 314.007> 318 186<195.999 248.846 251.154 253.661 256.338 313.389> 328 186<196.857 303.746>
LayerCount: 2
Fore
SplineSet
200 495 m 0x68
 200 500 200 500 259 500 c 0
 318 500 318 500 318 495 c 0
 318 490 317 490 337 490 c 0
 357 490 357 490 357 485 c 0
 357 480 357 480 367 480 c 0
 377 480 377 480 377 475 c 0
 377 470 376 471 386 471 c 0
 396 471 396 471 396 466 c 0
 396 461 396 461 401 461 c 0
 406 461 406 461 406 456 c 0
 406 451 406 451 411 451 c 0
 416 451 416 451 416 446 c 0
 416 441 416 441 426 441 c 0
 436 441 435 441 435 436 c 0
 435 431 435 431 440 431 c 0
 445 431 445 431 445 426 c 0
 445 421 445 422 450 422 c 0
 455 422 455 422 455 412 c 0
 455 402 455 402 460 402 c 0
 465 402 465 402 465 397 c 0
 465 392 465 392 470 392 c 0
 475 392 475 392 475 382 c 0
 475 372 474 373 479 373 c 0
 484 373 484 373 484 363 c 0
 484 353 484 353 489 353 c 0
 494 353 494 353 494 343 c 0
 494 333 494 333 499 333 c 0
 504 333 504 334 504 309 c 0x6c
 504 284 504 284 509 284 c 0
 514 284 514 284 514 255 c 0x62
 514 226 514 225 509 225 c 0
 504 225 504 225 504 196 c 0
 504 167 504 167 499 167 c 0
 494 167 494 167 494 157 c 0
 494 147 494 147 489 147 c 0
 484 147 484 147 484 137 c 0
 484 127 484 127 479 127 c 0
 474 127 475 128 475 118 c 0
 475 108 475 108 470 108 c 0
 465 108 465 108 465 103 c 0
 465 98 465 98 460 98 c 0
 455 98 455 98 455 93 c 0
 455 88 455 88 450 88 c 0
 445 88 445 88 445 83 c 0
 445 78 445 78 440 78 c 0
 435 78 435 79 435 74 c 0
 435 69 435 69 430 69 c 0
 425 69 426 69 426 64 c 0
 426 59 426 59 421 59 c 0
 416 59 416 59 416 54 c 0
 416 49 416 49 411 49 c 0
 406 49 406 49 406 44 c 0
 406 39 406 39 396 39 c 0
 386 39 386 39 386 34 c 0
 386 29 387 29 377 29 c 0
 367 29 367 30 367 25 c 0
 367 20 367 20 357 20 c 0
 347 20 347 20 347 15 c 0
 347 10 348 10 323 10 c 0x64
 298 10 298 10 298 5 c 0
 298 0 298 0 259 0 c 0xa4
 220 0 220 0 220 5 c 0
 220 10 220 10 200 10 c 0
 180 10 180 10 180 15 c 0
 180 20 181 20 166 20 c 0
 151 20 151 20 151 25 c 0
 151 30 151 29 141 29 c 0
 131 29 131 29 131 34 c 0
 131 39 132 39 122 39 c 0
 112 39 112 39 112 44 c 0
 112 49 112 49 107 49 c 0
 102 49 102 49 102 54 c 0
 102 59 102 59 97 59 c 0
 92 59 92 59 92 64 c 0
 92 69 92 69 87 69 c 0
 82 69 82 69 82 74 c 0
 82 79 83 78 78 78 c 0
 73 78 73 78 73 83 c 0
 73 88 73 88 68 88 c 0
 63 88 63 88 63 93 c 0
 63 98 63 98 58 98 c 0
 53 98 53 98 53 103 c 0
 53 108 53 108 48 108 c 0
 43 108 43 108 43 118 c 0
 43 128 43 127 38 127 c 0
 33 127 33 127 33 137 c 0
 33 147 34 147 29 147 c 0
 24 147 24 147 24 157 c 0
 24 167 24 167 19 167 c 0
 14 167 14 166 14 191 c 0x6c
 14 216 14 216 9 216 c 0
 4 216 4 216 4 255 c 0x70
 4 294 4 294 9 294 c 0
 14 294 14 294 14 314 c 0
 14 334 14 333 19 333 c 0
 24 333 24 333 24 348 c 0
 24 363 24 363 29 363 c 0
 34 363 33 363 33 368 c 0
 33 373 33 373 38 373 c 0
 43 373 43 372 43 382 c 0
 43 392 43 392 48 392 c 0
 53 392 53 392 53 397 c 0
 53 402 53 402 58 402 c 0
 63 402 63 402 63 412 c 0
 63 422 63 422 68 422 c 0
 73 422 73 421 73 426 c 0
 73 431 73 431 78 431 c 0
 83 431 82 431 82 436 c 0
 82 441 82 441 92 441 c 0
 102 441 102 441 102 446 c 0
 102 451 102 451 107 451 c 0
 112 451 112 451 112 456 c 0
 112 461 112 461 117 461 c 0
 122 461 122 461 122 466 c 0
 122 471 121 471 131 471 c 0
 141 471 141 470 141 475 c 0
 141 480 141 480 156 480 c 0
 171 480 171 480 171 485 c 0
 171 490 170 490 185 490 c 0
 200 490 200 490 200 495 c 0x68
279 319 m 0
 279 324 279 324 259 324 c 0
 239 324 239 324 239 319 c 0
 239 314 239 314 229 314 c 0
 219 314 220 314 220 309 c 0
 220 304 220 304 215 304 c 0
 210 304 210 304 210 299 c 0x6c
 210 294 210 294 205 294 c 0
 200 294 200 294 200 284 c 0
 200 274 200 275 195 275 c 0
 190 275 190 275 190 250 c 0x70
 190 225 190 225 195 225 c 0
 200 225 200 226 200 216 c 0
 200 206 200 206 205 206 c 0
 210 206 210 206 210 201 c 0
 210 196 210 196 220 196 c 0x68
 230 196 229 196 229 191 c 0
 229 186 229 186 239 186 c 0
 249 186 249 186 249 181 c 0
 249 176 249 176 259 176 c 0xa8
 269 176 269 176 269 181 c 0
 269 186 269 186 279 186 c 0
 289 186 288 186 288 191 c 0
 288 196 288 196 298 196 c 0
 308 196 308 196 308 201 c 0
 308 206 308 206 313 206 c 0
 318 206 318 206 318 216 c 0x6c
 318 226 318 225 323 225 c 0
 328 225 328 225 328 250 c 0x62
 328 275 328 275 323 275 c 0
 318 275 318 274 318 284 c 0
 318 294 318 294 313 294 c 0
 308 294 308 294 308 299 c 0
 308 304 308 304 303 304 c 0
 298 304 298 304 298 309 c 0
 298 314 298 314 288 314 c 0
 278 314 279 314 279 319 c 0
EndSplineSet
EndChar

StartChar: p
Encoding: 112 112 15
Width: 513
Flags: W
HStem: 0 186<220.231 312.904> 324 176<215.264 312.203>
VStem: 9 186<-210 303.586> 19 186<-41.875 313.389> 333 176<206.511 303.161>
LayerCount: 2
Fore
SplineSet
205 495 m 0xd8
 205 500 205 500 259 500 c 0
 313 500 313 500 313 495 c 0
 313 490 313 490 333 490 c 0
 353 490 352 490 352 485 c 0
 352 480 352 480 362 480 c 0
 372 480 372 480 372 475 c 0
 372 470 372 471 382 471 c 0
 392 471 391 471 391 466 c 0
 391 461 391 461 401 461 c 0
 411 461 411 461 411 456 c 0
 411 451 411 451 416 451 c 0
 421 451 421 451 421 446 c 0
 421 441 421 441 426 441 c 0
 431 441 431 441 431 436 c 0
 431 431 430 431 435 431 c 0
 440 431 440 431 440 426 c 0
 440 421 440 422 445 422 c 0
 450 422 450 422 450 417 c 0
 450 412 450 412 455 412 c 0
 460 412 460 412 460 407 c 0
 460 402 460 402 465 402 c 0
 470 402 470 402 470 392 c 0
 470 382 470 382 475 382 c 0
 480 382 480 382 480 377 c 0
 480 372 479 373 484 373 c 0
 489 373 489 373 489 363 c 0
 489 353 489 353 494 353 c 0
 499 353 499 353 499 338 c 0
 499 323 499 324 504 324 c 0
 509 324 509 324 509 255 c 0
 509 186 509 186 504 186 c 0
 499 186 499 187 499 172 c 0
 499 157 499 157 494 157 c 0
 489 157 489 157 489 147 c 0
 489 137 489 137 484 137 c 0
 479 137 480 137 480 127 c 0
 480 117 480 118 475 118 c 0
 470 118 470 118 470 108 c 0
 470 98 470 98 465 98 c 0
 460 98 460 98 460 93 c 0
 460 88 460 88 455 88 c 0
 450 88 450 88 450 83 c 0
 450 78 450 78 445 78 c 0
 440 78 440 79 440 74 c 0
 440 69 440 69 435 69 c 0
 430 69 431 69 431 64 c 0
 431 59 431 59 426 59 c 0
 421 59 421 59 421 54 c 0
 421 49 421 49 411 49 c 0
 401 49 401 49 401 44 c 0
 401 39 401 39 396 39 c 0
 391 39 391 39 391 34 c 0
 391 29 392 29 382 29 c 0
 372 29 372 30 372 25 c 0
 372 20 372 20 362 20 c 0
 352 20 352 20 352 15 c 0
 352 10 353 10 333 10 c 0
 313 10 313 10 313 5 c 0
 313 0 313 0 264 0 c 2
 215 0 l 1
 215 103 l 2
 215 206 215 206 220 206 c 0
 225 206 225 206 225 201 c 0
 225 196 224 196 234 196 c 0
 244 196 244 196 244 191 c 0
 244 186 244 186 264 186 c 0
 284 186 284 186 284 191 c 0
 284 196 283 196 293 196 c 0
 303 196 303 196 303 201 c 0
 303 206 303 206 308 206 c 0
 313 206 313 206 313 211 c 0
 313 216 313 216 318 216 c 0
 323 216 323 215 323 230 c 0
 323 245 323 245 328 245 c 0
 333 245 333 245 333 255 c 0
 333 265 333 265 328 265 c 0
 323 265 323 265 323 275 c 0
 323 285 323 284 318 284 c 0
 313 284 313 284 313 294 c 0
 313 304 313 304 303 304 c 0
 293 304 293 304 293 309 c 0
 293 314 293 314 288 314 c 0
 283 314 284 314 284 319 c 0
 284 324 284 324 264 324 c 0
 244 324 244 324 244 319 c 0
 244 314 244 314 234 314 c 0
 224 314 225 314 225 309 c 0
 225 304 225 304 220 304 c 0
 215 304 215 304 215 299 c 0
 215 294 215 294 210 294 c 0
 205 294 205 294 205 284 c 0xd8
 205 274 205 275 200 275 c 0
 195 275 195 275 195 54 c 2
 195 -210 l 1
 102 -210 l 1
 9 -210 l 1
 9 59 l 2xe8
 9 284 9 284 14 284 c 0
 19 284 19 284 19 309 c 0
 19 334 19 333 24 333 c 0
 29 333 29 333 29 343 c 0
 29 353 29 353 34 353 c 0
 39 353 38 353 38 368 c 0
 38 383 38 382 43 382 c 0
 48 382 48 382 48 387 c 0
 48 392 48 392 53 392 c 0
 58 392 58 392 58 402 c 0
 58 412 58 412 63 412 c 0
 68 412 68 412 68 417 c 0
 68 422 68 422 73 422 c 0
 78 422 78 421 78 426 c 0
 78 431 78 431 83 431 c 0
 88 431 87 431 87 436 c 0
 87 441 87 441 92 441 c 0
 97 441 97 441 97 446 c 0
 97 451 97 451 107 451 c 0
 117 451 117 451 117 456 c 0
 117 461 117 461 122 461 c 0
 127 461 127 461 127 466 c 0
 127 471 126 471 136 471 c 0
 146 471 146 470 146 475 c 0
 146 480 146 480 156 480 c 0
 166 480 166 480 166 485 c 0
 166 490 165 490 185 490 c 0
 205 490 205 490 205 495 c 0xd8
EndSplineSet
EndChar

StartChar: q
Encoding: 113 113 16
Width: 523
Flags: W
HStem: 0 190<204.109 301.042> 330 180<204.101 303.639>
VStem: 4 180<210.867 309.355> 314 190<-51.5625 318.976> 324 190<-210 309.695>
LayerCount: 2
Fore
SplineSet
204 505 m 0xf0
 204 510 204 510 259 510 c 0
 314 510 314 510 314 505 c 0
 314 500 314 500 329 500 c 0
 344 500 344 500 344 495 c 0
 344 490 344 490 359 490 c 0
 374 490 374 490 374 485 c 0
 374 480 374 480 384 480 c 0
 394 480 394 480 394 475 c 0
 394 470 394 470 399 470 c 0
 404 470 404 470 404 465 c 0
 404 460 404 460 414 460 c 0
 424 460 424 460 424 455 c 0
 424 450 424 450 429 450 c 0
 434 450 434 450 434 445 c 0
 434 440 434 440 439 440 c 0
 444 440 444 440 444 435 c 0
 444 430 444 430 449 430 c 0
 454 430 454 430 454 425 c 0
 454 420 454 420 459 420 c 0
 464 420 464 420 464 410 c 0
 464 400 464 400 469 400 c 0
 474 400 474 400 474 390 c 0
 474 380 474 380 479 380 c 0
 484 380 484 380 484 370 c 0
 484 360 484 360 489 360 c 0
 494 360 494 360 494 350 c 0
 494 340 494 340 499 340 c 0
 504 340 504 340 504 305 c 0xf0
 504 270 504 270 509 270 c 0
 514 270 514 270 514 50 c 2
 514 -210 l 1
 419 -210 l 1
 324 -210 l 1
 324 55 l 2xe8
 324 280 324 280 319 280 c 0
 314 280 314 280 314 290 c 0
 314 300 314 300 309 300 c 0
 304 300 304 300 304 305 c 0
 304 310 304 310 299 310 c 0
 294 310 294 310 294 315 c 0
 294 320 294 320 284 320 c 0
 274 320 274 320 274 325 c 0
 274 330 274 330 254 330 c 0
 234 330 234 330 234 325 c 0
 234 320 234 320 224 320 c 0
 214 320 214 320 214 315 c 0
 214 310 214 310 209 310 c 0
 204 310 204 310 204 305 c 0
 204 300 204 300 199 300 c 0
 194 300 194 300 194 290 c 0
 194 280 194 280 189 280 c 0
 184 280 184 280 184 260 c 0
 184 240 184 240 189 240 c 0
 194 240 194 240 194 230 c 0
 194 220 194 220 199 220 c 0
 204 220 204 220 204 215 c 0
 204 210 204 210 209 210 c 0
 214 210 214 210 214 205 c 0
 214 200 214 200 224 200 c 0
 234 200 234 200 234 195 c 0
 234 190 234 190 254 190 c 0
 274 190 274 190 274 195 c 0
 274 200 274 200 284 200 c 0
 294 200 294 200 294 205 c 0
 294 210 294 210 299 210 c 0
 304 210 304 210 304 110 c 0
 304 10 304 10 299 10 c 0
 294 10 294 10 294 5 c 0
 294 0 294 0 249 0 c 0
 204 0 204 0 204 5 c 0
 204 10 204 10 184 10 c 0
 164 10 164 10 164 15 c 0
 164 20 164 20 154 20 c 0
 144 20 144 20 144 25 c 0
 144 30 144 30 134 30 c 0
 124 30 124 30 124 35 c 0
 124 40 124 40 119 40 c 0
 114 40 114 40 114 45 c 0
 114 50 114 50 104 50 c 0
 94 50 94 50 94 55 c 0
 94 60 94 60 89 60 c 0
 84 60 84 60 84 65 c 0
 84 70 84 70 79 70 c 0
 74 70 74 70 74 75 c 0
 74 80 74 80 69 80 c 0
 64 80 64 80 64 85 c 0
 64 90 64 90 59 90 c 0
 54 90 54 90 54 95 c 0
 54 100 54 100 49 100 c 0
 44 100 44 100 44 110 c 0
 44 120 44 120 39 120 c 0
 34 120 34 120 34 130 c 0
 34 140 34 140 29 140 c 0
 24 140 24 140 24 150 c 0
 24 160 24 160 19 160 c 0
 14 160 14 160 14 170 c 0
 14 180 14 180 9 180 c 0
 4 180 4 180 4 255 c 0
 4 330 4 330 9 330 c 0
 14 330 14 330 14 345 c 0
 14 360 14 360 19 360 c 0
 24 360 24 360 24 370 c 0
 24 380 24 380 29 380 c 0
 34 380 34 380 34 390 c 0
 34 400 34 400 39 400 c 0
 44 400 44 400 44 405 c 0
 44 410 44 410 49 410 c 0
 54 410 54 410 54 415 c 0
 54 420 54 420 59 420 c 0
 64 420 64 420 64 425 c 0
 64 430 64 430 69 430 c 0
 74 430 74 430 74 435 c 0
 74 440 74 440 79 440 c 0
 84 440 84 440 84 445 c 0
 84 450 84 450 89 450 c 0
 94 450 94 450 94 455 c 0
 94 460 94 460 99 460 c 0
 104 460 104 460 104 465 c 0
 104 470 104 470 114 470 c 0
 124 470 124 470 124 475 c 0
 124 480 124 480 129 480 c 0
 134 480 134 480 134 485 c 0
 134 490 134 490 149 490 c 0
 164 490 164 490 164 495 c 0
 164 500 164 500 184 500 c 0
 204 500 204 500 204 505 c 0xf0
EndSplineSet
EndChar

StartChar: r
Encoding: 114 114 17
Width: 295
Flags: W
VStem: 13 187<8 304.143>
LayerCount: 2
Fore
SplineSet
216 499 m 0
 233 501 270 499 285 495 c 2
 291 493 l 1
 291 403 l 2
 291 345 290 312 289 312 c 0
 288 312 286 313 283 314 c 0
 268 320 251 320 236 314 c 0
 233 313 222 305 219 302 c 0
 212 295 206 283 203 271 c 0
 202 267 201 225 201 136 c 2
 200 7 l 1
 107 7 l 2
 45 7 14 7 13 8 c 0
 11 10 12 281 14 297 c 0
 17 319 21 339 26 354 c 0
 28 359 30 365 31 368 c 0
 34 376 43 392 50 404 c 0
 75 444 116 475 166 490 c 0
 178 494 201 498 216 499 c 0
EndSplineSet
EndChar

StartChar: s
Encoding: 115 115 18
Width: 362
Flags: W
HStem: -4 183<5.06072 72.1764>
LayerCount: 2
Fore
SplineSet
283 479 m 0
 301 481 341 480 355 477 c 2
 358 477 l 1
 358 386 l 2
 358 336 358 295 357 295 c 0
 357 295 353 296 348 297 c 0
 329 300 306 291 296 277 c 0
 286 263 282 249 280 219 c 0
 278 190 276 178 270 158 c 0
 255 103 228 64 184 34 c 0
 166 22 132 7 111 3 c 0
 109 3 105 2 101 1 c 0
 88 -2 63 -4 46 -4 c 0
 26 -4 6 -1 5 1 c 0
 4 2 4 42 4 91 c 2
 5 180 l 1
 20 179 l 2
 47 179 63 187 76 206 c 0
 87 222 89 233 91 270 c 0
 93 312 98 335 108 360 c 0
 122 395 143 422 174 442 c 0
 189 452 197 456 216 464 c 0
 231 470 257 476 283 479 c 0
EndSplineSet
EndChar

StartChar: t
Encoding: 116 116 19
Width: 291
Flags: W
HStem: 0 200<210.599 278.659> 675 20G<10 200>
VStem: 10 190<210.414 299.802 490 695> 240 40<1.90735e-05 9.99762>
LayerCount: 2
Fore
SplineSet
10 455 m 2
 10 695 l 1
 105 695 l 1
 200 695 l 1
 200 592 l 1
 200 490 l 1
 240 490 l 1
 280 490 l 1
 280 395 l 1
 280 300 l 1
 240 300 l 2
 200 300 200 300 200 270 c 0
 200 240 200 240 205 240 c 0
 210 240 210 240 210 230 c 0
 210 220 210 220 215 220 c 0
 220 220 220 220 220 215 c 0
 220 210 220 210 230 210 c 0
 240 210 240 210 240 205 c 0
 240 200 240 200 260 200 c 0
 280 200 280 200 280 100 c 0
 280 0 280 0 260 0 c 0
 240 0 240 0 240 5 c 0
 240 10 240 10 215 10 c 0
 190 10 190 10 190 15 c 0
 190 20 190 20 175 20 c 0
 160 20 160 20 160 25 c 0
 160 30 160 30 150 30 c 0
 140 30 140 30 140 35 c 0
 140 40 140 40 130 40 c 0
 120 40 120 40 120 45 c 0
 120 50 120 50 115 50 c 0
 110 50 110 50 110 55 c 0
 110 60 110 60 100 60 c 0
 90 60 90 60 90 65 c 0
 90 70 90 70 85 70 c 0
 80 70 80 70 80 75 c 0
 80 80 80 80 75 80 c 0
 70 80 70 80 70 90 c 0
 70 100 70 100 65 100 c 0
 60 100 60 100 60 105 c 0
 60 110 60 110 55 110 c 0
 50 110 50 110 50 115 c 0
 50 120 50 120 45 120 c 0
 40 120 40 120 40 135 c 0
 40 150 40 150 35 150 c 0
 30 150 30 150 30 165 c 0
 30 180 30 180 25 180 c 0
 20 180 20 180 20 205 c 0
 20 230 20 230 15 230 c 0
 10 230 10 230 10 455 c 2
EndSplineSet
EndChar

StartChar: u
Encoding: 117 117 20
Width: 466
Flags: W
HStem: 0 21G<198 268> 0 21G<198 268> 470 20G<13 203 263 453>
VStem: 13 190<180.099 490> 23 190<180 487.656> 263 190<191.934 490>
LayerCount: 2
Fore
SplineSet
13 340 m 2xb4
 13 490 l 1
 108 490 l 1
 203 490 l 1
 203 340 l 2xb4
 203 190 203 190 208 190 c 0
 213 190 213 190 213 185 c 0
 213 180 213 180 233 180 c 0
 253 180 253 180 253 185 c 0
 253 190 253 190 258 190 c 0
 263 190 263 190 263 340 c 2
 263 490 l 1
 358 490 l 1
 453 490 l 1
 453 330 l 2
 453 170 453 170 448 170 c 0
 443 170 443 170 443 155 c 0
 443 140 443 140 438 140 c 0
 433 140 433 140 433 125 c 0
 433 110 433 110 428 110 c 0
 423 110 423 110 423 105 c 0
 423 100 423 100 418 100 c 0
 413 100 413 100 413 90 c 0
 413 80 413 80 408 80 c 0
 403 80 403 80 403 75 c 0
 403 70 403 70 398 70 c 0
 393 70 393 70 393 65 c 0
 393 60 393 60 388 60 c 0
 383 60 383 60 383 55 c 0
 383 50 383 50 378 50 c 0
 373 50 373 50 373 45 c 0
 373 40 373 40 368 40 c 0
 363 40 363 40 363 35 c 0
 363 30 363 30 353 30 c 0
 343 30 343 30 343 25 c 0
 343 20 343 20 338 20 c 0
 333 20 333 20 333 15 c 0
 333 10 333 10 318 10 c 0
 303 10 303 10 303 5 c 0
 303 0 303 0 233 0 c 0
 163 0 163 0 163 5 c 0
 163 10 163 10 148 10 c 0
 133 10 133 10 133 15 c 0
 133 20 133 20 123 20 c 0
 113 20 113 20 113 25 c 0
 113 30 113 30 108 30 c 0
 103 30 103 30 103 35 c 0
 103 40 103 40 98 40 c 0
 93 40 93 40 93 45 c 0
 93 50 93 50 88 50 c 0
 83 50 83 50 83 55 c 0
 83 60 83 60 78 60 c 0
 73 60 73 60 73 65 c 0
 73 70 73 70 68 70 c 0
 63 70 63 70 63 75 c 0
 63 80 63 80 58 80 c 0
 53 80 53 80 53 85 c 0
 53 90 53 90 48 90 c 0
 43 90 43 90 43 100 c 0
 43 110 43 110 38 110 c 0
 33 110 33 110 33 125 c 0
 33 140 33 140 28 140 c 0
 23 140 23 140 23 165 c 0xac
 23 190 23 190 18 190 c 0
 13 190 13 190 13 340 c 2xb4
EndSplineSet
EndChar

StartChar: v
Encoding: 118 118 21
Width: 458
Flags: W
HStem: 0 21G<219 229> 0 21G<219 229> 480 20<4.00002 13.9861 444 454>
VStem: 34 170<380.48 479.52> 214 20<5.72205e-05 30.4615> 254 170<380.597 479.539> 264 170<400.187 489.539>
LayerCount: 2
Fore
SplineSet
4 490 m 0xbc
 4 500 4 500 94 500 c 0
 184 500 184 500 184 485 c 0
 184 470 184 470 189 470 c 0
 194 470 194 470 194 460 c 0
 194 450 194 450 199 450 c 0
 204 450 204 450 204 435 c 0
 204 420 204 420 209 420 c 0
 214 420 214 420 214 410 c 0
 214 400 214 400 219 400 c 0
 224 400 224 400 224 390 c 0
 224 380 224 380 229 380 c 0
 234 380 234 380 234 390 c 0
 234 400 234 400 239 400 c 0
 244 400 244 400 244 410 c 0
 244 420 244 420 249 420 c 0
 254 420 254 420 254 435 c 0xbc
 254 450 254 450 259 450 c 0
 264 450 264 450 264 460 c 0
 264 470 264 470 269 470 c 0
 274 470 274 470 274 480 c 0
 274 490 274 490 279 490 c 0
 284 490 284 490 284 495 c 0
 284 500 284 500 369 500 c 0
 454 500 454 500 454 490 c 0
 454 480 454 480 449 480 c 0
 444 480 444 480 444 470 c 0
 444 460 444 460 439 460 c 0
 434 460 434 460 434 450 c 0xba
 434 440 434 440 429 440 c 0
 424 440 424 440 424 430 c 0xbc
 424 420 424 420 419 420 c 0
 414 420 414 420 414 410 c 0
 414 400 414 400 409 400 c 0
 404 400 404 400 404 385 c 0
 404 370 404 370 399 370 c 0
 394 370 394 370 394 360 c 0
 394 350 394 350 389 350 c 0
 384 350 384 350 384 340 c 0
 384 330 384 330 379 330 c 0
 374 330 374 330 374 320 c 0
 374 310 374 310 369 310 c 0
 364 310 364 310 364 295 c 0
 364 280 364 280 359 280 c 0
 354 280 354 280 354 270 c 0
 354 260 354 260 349 260 c 0
 344 260 344 260 344 250 c 0
 344 240 344 240 339 240 c 0
 334 240 334 240 334 230 c 0
 334 220 334 220 329 220 c 0
 324 220 324 220 324 210 c 0
 324 200 324 200 319 200 c 0
 314 200 314 200 314 185 c 0
 314 170 314 170 309 170 c 0
 304 170 304 170 304 160 c 0
 304 150 304 150 299 150 c 0
 294 150 294 150 294 140 c 0
 294 130 294 130 289 130 c 0
 284 130 284 130 284 120 c 0
 284 110 284 110 279 110 c 0
 274 110 274 110 274 95 c 0
 274 80 274 80 269 80 c 0
 264 80 264 80 264 70 c 0xba
 264 60 264 60 259 60 c 0
 254 60 254 60 254 50 c 0
 254 40 254 40 249 40 c 0
 244 40 244 40 244 30 c 0
 244 20 244 20 239 20 c 0
 234 20 234 20 234 10 c 0
 234 0 234 0 224 0 c 0
 214 0 214 0 214 15 c 0
 214 30 214 30 209 30 c 0
 204 30 204 30 204 40 c 0
 204 50 204 50 199 50 c 0
 194 50 194 50 194 60 c 0
 194 70 194 70 189 70 c 0
 184 70 184 70 184 80 c 0
 184 90 184 90 179 90 c 0
 174 90 174 90 174 105 c 0
 174 120 174 120 169 120 c 0
 164 120 164 120 164 130 c 0
 164 140 164 140 159 140 c 0
 154 140 154 140 154 150 c 0
 154 160 154 160 149 160 c 0
 144 160 144 160 144 170 c 0
 144 180 144 180 139 180 c 0
 134 180 134 180 134 195 c 0
 134 210 134 210 129 210 c 0
 124 210 124 210 124 220 c 0
 124 230 124 230 119 230 c 0
 114 230 114 230 114 240 c 0
 114 250 114 250 109 250 c 0
 104 250 104 250 104 260 c 0
 104 270 104 270 99 270 c 0
 94 270 94 270 94 285 c 0
 94 300 94 300 89 300 c 0
 84 300 84 300 84 310 c 0
 84 320 84 320 79 320 c 0
 74 320 74 320 74 330 c 0
 74 340 74 340 69 340 c 0
 64 340 64 340 64 350 c 0
 64 360 64 360 59 360 c 0
 54 360 54 360 54 375 c 0
 54 390 54 390 49 390 c 0
 44 390 44 390 44 400 c 0
 44 410 44 410 39 410 c 0
 34 410 34 410 34 420 c 0
 34 430 34 430 29 430 c 0
 24 430 24 430 24 440 c 0
 24 450 24 450 19 450 c 0
 14 450 14 450 14 465 c 0
 14 480 14 480 9 480 c 0
 4 480 4 480 4 490 c 0xbc
EndSplineSet
EndChar

StartChar: w
Encoding: 119 119 22
Width: 686
Flags: W
HStem: 0 180<168 247.659 439.267 526.878> 20 470<68.0937 195.231 258 327.906 358.187 437.746 498.905 617.906>
VStem: 8 190<180.728 490> 238 210<180 487.656> 258 180<180.625 490> 498 180<180.872 490>
LayerCount: 2
Fore
SplineSet
8 330 m 2x6c
 8 490 l 1
 103 490 l 1
 198 490 l 1x6c
 198 340 l 2
 198 190 198 190 203 190 c 0
 208 190 208 190 208 185 c 0
 208 180 208 180 223 180 c 0
 238 180 238 180 238 185 c 0xb4
 238 190 238 190 243 190 c 0
 248 190 248 190 248 205 c 0
 248 220 248 220 253 220 c 0
 258 220 258 220 258 355 c 2
 258 490 l 1
 348 490 l 1
 438 490 l 1
 438 340 l 2x6c
 438 190 438 190 443 190 c 0
 448 190 448 190 448 185 c 0
 448 180 448 180 463 180 c 0xb4
 478 180 478 180 478 185 c 0
 478 190 478 190 483 190 c 0
 488 190 488 190 488 195 c 0
 488 200 488 200 493 200 c 0
 498 200 498 200 498 345 c 2
 498 490 l 1
 588 490 l 1
 678 490 l 1
 678 310 l 2
 678 130 678 130 673 130 c 0
 668 130 668 130 668 120 c 0
 668 110 668 110 663 110 c 0
 658 110 658 110 658 100 c 0
 658 90 658 90 653 90 c 0
 648 90 648 90 648 80 c 0
 648 70 648 70 643 70 c 0
 638 70 638 70 638 65 c 0
 638 60 638 60 633 60 c 0
 628 60 628 60 628 55 c 0
 628 50 628 50 623 50 c 0
 618 50 618 50 618 45 c 0
 618 40 618 40 613 40 c 0
 608 40 608 40 608 35 c 0
 608 30 608 30 603 30 c 0
 598 30 598 30 598 25 c 0
 598 20 598 20 588 20 c 0x74
 578 20 578 20 578 15 c 0
 578 10 578 10 568 10 c 0
 558 10 558 10 558 5 c 0
 558 0 558 0 493 0 c 0xb4
 428 0 428 0 428 5 c 0
 428 10 428 10 418 10 c 0
 408 10 408 10 408 15 c 0
 408 20 408 20 398 20 c 0
 388 20 388 20 388 25 c 0
 388 30 388 30 383 30 c 0
 378 30 378 30 378 35 c 0
 378 40 378 40 368 40 c 0
 358 40 358 40 358 45 c 0
 358 50 358 50 353 50 c 0
 348 50 348 50 348 55 c 0
 348 60 348 60 343 60 c 0
 338 60 338 60 338 55 c 0
 338 50 338 50 333 50 c 0
 328 50 328 50 328 45 c 0
 328 40 328 40 323 40 c 0
 318 40 318 40 318 35 c 0
 318 30 318 30 308 30 c 0
 298 30 298 30 298 25 c 0
 298 20 298 20 288 20 c 0x74
 278 20 278 20 278 15 c 0
 278 10 278 10 268 10 c 0
 258 10 258 10 258 5 c 0
 258 0 258 0 198 0 c 0xac
 138 0 138 0 138 5 c 0
 138 10 138 10 123 10 c 0
 108 10 108 10 108 15 c 0
 108 20 108 20 98 20 c 0
 88 20 88 20 88 25 c 0
 88 30 88 30 83 30 c 0
 78 30 78 30 78 35 c 0
 78 40 78 40 73 40 c 0
 68 40 68 40 68 45 c 0
 68 50 68 50 63 50 c 0
 58 50 58 50 58 55 c 0
 58 60 58 60 53 60 c 0
 48 60 48 60 48 65 c 0
 48 70 48 70 43 70 c 0
 38 70 38 70 38 80 c 0
 38 90 38 90 33 90 c 0
 28 90 28 90 28 105 c 0
 28 120 28 120 23 120 c 0
 18 120 18 120 18 145 c 0
 18 170 18 170 13 170 c 0
 8 170 8 170 8 330 c 2x6c
EndSplineSet
EndChar

StartChar: x
Encoding: 120 120 23
Width: 445
Flags: W
HStem: 480 20G<7 187 257 437>
VStem: 7 180<10 209.091 339.999 500> 17 190<11.4844 210> 257 180<10 209.341 340.625 500>
LayerCount: 2
Fore
SplineSet
7 420 m 2xd0
 7 500 l 1
 97 500 l 1
 187 500 l 1
 187 430 l 2xd0
 187 360 187 360 192 360 c 0
 197 360 197 360 197 350 c 0
 197 340 197 340 207 340 c 0
 217 340 217 340 217 335 c 0
 217 330 217 330 222 330 c 0
 227 330 227 330 227 335 c 0
 227 340 227 340 237 340 c 0
 247 340 247 340 247 350 c 0
 247 360 247 360 252 360 c 0
 257 360 257 360 257 430 c 2
 257 500 l 1
 347 500 l 1
 437 500 l 1
 437 415 l 2
 437 330 437 330 432 330 c 0
 427 330 427 330 427 320 c 0
 427 310 427 310 422 310 c 0
 417 310 417 310 417 300 c 0
 417 290 417 290 412 290 c 0
 407 290 407 290 407 285 c 0
 407 280 407 280 402 280 c 0
 397 280 397 280 397 275 c 0
 397 270 397 270 392 270 c 0
 387 270 387 270 387 265 c 0
 387 260 387 260 397 260 c 0
 407 260 407 260 407 250 c 0
 407 240 407 240 412 240 c 0
 417 240 417 240 417 235 c 0
 417 230 417 230 422 230 c 0
 427 230 427 230 427 220 c 0
 427 210 427 210 432 210 c 0
 437 210 437 210 437 110 c 2
 437 10 l 1
 347 10 l 1
 257 10 l 1
 257 95 l 2
 257 180 257 180 252 180 c 0
 247 180 247 180 247 190 c 0
 247 200 247 200 242 200 c 0
 237 200 237 200 237 205 c 0
 237 210 237 210 222 210 c 0
 207 210 207 210 207 205 c 0xb0
 207 200 207 200 202 200 c 0
 197 200 197 200 197 195 c 0
 197 190 197 190 192 190 c 0
 187 190 187 190 187 100 c 2
 187 10 l 1
 97 10 l 1
 7 10 l 1
 7 105 l 2xd0
 7 200 7 200 12 200 c 0
 17 200 17 200 17 210 c 0
 17 220 17 220 22 220 c 0
 27 220 27 220 27 225 c 0
 27 230 27 230 32 230 c 0
 37 230 37 230 37 240 c 0
 37 250 37 250 47 250 c 0
 57 250 57 250 57 255 c 0
 57 260 57 260 62 260 c 0
 67 260 67 260 67 270 c 0
 67 280 67 280 57 280 c 0
 47 280 47 280 47 285 c 0
 47 290 47 290 42 290 c 0
 37 290 37 290 37 300 c 0
 37 310 37 310 32 310 c 0
 27 310 27 310 27 315 c 0
 27 320 27 320 22 320 c 0
 17 320 17 320 17 330 c 0xb0
 17 340 17 340 12 340 c 0
 7 340 7 340 7 420 c 2xd0
EndSplineSet
EndChar

StartChar: y
Encoding: 121 121 24
Width: 472
Flags: W
HStem: -210 153<88.7518 214.794> 10 490<85.1874 195> 30 170<197.273 255> 490 10<446.98 455>
VStem: 15 180<203.27 500> 85 10<-47.7363 -38> 265 190<200.929 499.702> 265 180<200.105 494.769>
LayerCount: 2
Fore
SplineSet
15 315 m 2xa8
 15 500 l 1xb8
 105 500 l 1xc8
 195 500 l 1
 195 360 l 2
 195 220 195 220 200 220 c 0
 205 220 205 220 205 210 c 0
 205 200 205 200 230 200 c 0
 255 200 255 200 255 210 c 0
 255 220 255 220 260 220 c 0
 265 220 265 220 265 360 c 2xba
 265 500 l 1xb1
 360 500 l 2
 455 500 455 500 455 495 c 0xb2
 455 490 455 490 450 490 c 0
 445 490 445 490 445 235 c 0
 445 -19 445 -19 440 -19 c 0
 435 -19 435 -19 435 -33 c 0
 435 -47 435 -48 430 -48 c 0
 425 -48 425 -48 425 -62 c 0
 425 -76 425 -76 420 -76 c 0
 415 -76 415 -76 415 -86 c 0
 415 -96 415 -95 410 -95 c 0
 405 -95 405 -95 405 -100 c 0
 405 -105 405 -105 400 -105 c 0
 395 -105 395 -105 395 -110 c 0
 395 -115 395 -115 390 -115 c 0
 385 -115 385 -114 385 -119 c 0
 385 -124 385 -124 380 -124 c 0
 375 -124 375 -124 375 -134 c 0
 375 -144 375 -143 365 -143 c 0
 355 -143 355 -143 355 -148 c 0
 355 -153 355 -153 350 -153 c 0
 345 -153 345 -153 345 -158 c 0
 345 -163 345 -162 340 -162 c 0
 335 -162 335 -162 335 -167 c 0
 335 -172 335 -172 325 -172 c 0
 315 -172 315 -172 315 -177 c 0
 315 -182 315 -181 310 -181 c 0
 305 -181 305 -181 305 -186 c 0
 305 -191 305 -191 290 -191 c 0
 275 -191 275 -191 275 -196 c 0
 275 -201 275 -200 260 -200 c 0
 245 -200 245 -200 245 -205 c 0
 245 -210 245 -210 185 -210 c 0
 125 -210 125 -210 125 -205 c 0
 125 -200 125 -200 105 -200 c 0
 85 -200 85 -200 85 -119 c 0
 85 -38 85 -38 90 -38 c 0
 95 -38 95 -38 95 -43 c 0xb5
 95 -48 95 -48 115 -48 c 0
 135 -48 135 -47 135 -52 c 0
 135 -57 135 -57 150 -57 c 0
 165 -57 165 -57 165 -52 c 0
 165 -47 165 -48 180 -48 c 0
 195 -48 195 -48 195 -43 c 0
 195 -38 195 -38 205 -38 c 0
 215 -38 215 -38 215 -33 c 0
 215 -28 215 -29 220 -29 c 0
 225 -29 225 -29 225 -24 c 0
 225 -19 225 -19 230 -19 c 0
 235 -19 235 -20 235 -10 c 0
 235 0 235 0 240 0 c 0
 245 0 245 0 245 5 c 0
 245 10 245 10 250 10 c 0xc8
 255 10 255 10 255 20 c 0
 255 30 255 30 245 30 c 0xa8
 235 30 235 30 235 25 c 0
 235 20 235 20 215 20 c 0
 195 20 195 20 195 15 c 0
 195 10 195 10 170 10 c 0xc8
 145 10 145 10 145 15 c 0
 145 20 145 20 125 20 c 0
 105 20 105 20 105 25 c 0
 105 30 105 30 95 30 c 0
 85 30 85 30 85 35 c 0xa4
 85 40 85 40 80 40 c 0
 75 40 75 40 75 45 c 0
 75 50 75 50 70 50 c 0
 65 50 65 50 65 55 c 0
 65 60 65 60 60 60 c 0
 55 60 55 60 55 65 c 0
 55 70 55 70 50 70 c 0
 45 70 45 70 45 75 c 0
 45 80 45 80 40 80 c 0
 35 80 35 80 35 90 c 0
 35 100 35 100 30 100 c 0
 25 100 25 100 25 115 c 0
 25 130 25 130 20 130 c 0
 15 130 15 130 15 315 c 2xa8
EndSplineSet
EndChar

StartChar: z
Encoding: 122 122 25
Width: 478
Flags: W
HStem: 10 200<319.231 474> 10 190<85.6894 113.625 314 472.828> 310 190<4 144 344.375 370.456>
VStem: 144 200<240.461 309.47>
LayerCount: 2
Fore
SplineSet
4 405 m 1xb0
 4 500 l 1
 229 500 l 2
 454 500 454 500 454 490 c 0
 454 480 454 480 449 480 c 0
 444 480 444 480 444 475 c 0
 444 470 444 470 439 470 c 0
 434 470 434 470 434 460 c 0
 434 450 434 450 429 450 c 0
 424 450 424 450 424 440 c 0
 424 430 424 430 419 430 c 0
 414 430 414 430 414 420 c 0
 414 410 414 410 409 410 c 0
 404 410 404 410 404 400 c 0
 404 390 404 390 399 390 c 0
 394 390 394 390 394 380 c 0
 394 370 394 370 389 370 c 0
 384 370 384 370 384 360 c 0
 384 350 384 350 379 350 c 0
 374 350 374 350 374 340 c 0
 374 330 374 330 369 330 c 0
 364 330 364 330 364 320 c 0
 364 310 364 310 359 310 c 0
 354 310 354 310 354 300 c 0
 354 290 354 290 349 290 c 0
 344 290 344 290 344 280 c 0
 344 270 344 270 339 270 c 0
 334 270 334 270 334 260 c 0
 334 250 334 250 329 250 c 0
 324 250 324 250 324 240 c 0
 324 230 324 230 319 230 c 0
 314 230 314 230 314 215 c 0
 314 200 314 200 319 200 c 0x70
 324 200 324 200 324 205 c 0
 324 210 324 210 399 210 c 2
 474 210 l 1
 474 110 l 1
 474 10 l 1xb0
 239 10 l 2
 4 10 4 10 4 15 c 0
 4 20 4 20 9 20 c 0
 14 20 14 20 14 30 c 0
 14 40 14 40 19 40 c 0
 24 40 24 40 24 50 c 0
 24 60 24 60 29 60 c 0
 34 60 34 60 34 70 c 0
 34 80 34 80 39 80 c 0
 44 80 44 80 44 90 c 0
 44 100 44 100 49 100 c 0
 54 100 54 100 54 110 c 0
 54 120 54 120 59 120 c 0
 64 120 64 120 64 130 c 0
 64 140 64 140 69 140 c 0
 74 140 74 140 74 150 c 0
 74 160 74 160 79 160 c 0
 84 160 84 160 84 170 c 0
 84 180 84 180 89 180 c 0
 94 180 94 180 94 190 c 0
 94 200 94 200 99 200 c 0x70
 104 200 104 200 104 210 c 0
 104 220 104 220 109 220 c 0
 114 220 114 220 114 230 c 0
 114 240 114 240 119 240 c 0
 124 240 124 240 124 250 c 0
 124 260 124 260 129 260 c 0
 134 260 134 260 134 270 c 0
 134 280 134 280 139 280 c 0
 144 280 144 280 144 295 c 0
 144 310 144 310 74 310 c 2
 4 310 l 1
 4 405 l 1xb0
EndSplineSet
EndChar

StartChar: comma
Encoding: 44 44 26
Width: 313
Flags: W
HStem: 108 18<264.282 273>
VStem: 40 224<45 116.585 117.415 188> 58 197<27.4153 116.585 117.415 119.154 122.847 206> 67 179<27.0027 80.2361 162.024 215> 148 27<-26.9993 -17.8595>
LayerCount: 2
Fore
SplineSet
112 229 m 0x90
 112 233 112 233 157 233 c 0
 202 233 202 233 202 229 c 0
 202 225 202 224 211 224 c 0
 220 224 219 224 219 220 c 0
 219 216 220 215 224 215 c 0
 228 215 228 215 228 211 c 0
 228 207 229 206 233 206 c 0
 237 206 237 206 237 202 c 0
 237 198 238 197 242 197 c 0
 246 197 246 197 246 193 c 0x90
 246 189 247 188 251 188 c 0
 255 188 255 188 255 179 c 0xa0
 255 170 256 171 260 171 c 0
 264 171 264 170 264 148 c 0
 264 126 265 126 269 126 c 0
 273 126 273 126 273 117 c 0
 273 108 273 108 269 108 c 0
 265 108 264 107 264 85 c 0xc0
 264 63 264 63 260 63 c 0
 256 63 255 63 255 54 c 0xa0
 255 45 255 45 251 45 c 0
 247 45 246 44 246 40 c 0x90
 246 36 246 36 242 36 c 0
 238 36 237 36 237 27 c 0
 237 18 237 18 233 18 c 0
 229 18 228 17 228 13 c 0
 228 9 228 9 224 9 c 0
 220 9 219 8 219 4 c 0
 219 0 219 0 215 0 c 0
 211 0 211 0 211 -4 c 0
 211 -8 211 -9 202 -9 c 0
 193 -9 193 -9 193 -13 c 0
 193 -17 193 -18 184 -18 c 0
 175 -18 175 -18 175 -22 c 0
 175 -26 174 -27 161 -27 c 0
 148 -27 148 -27 148 -9 c 0x88
 148 9 148 9 130 9 c 0
 112 9 112 9 112 13 c 0
 112 17 112 18 103 18 c 0
 94 18 94 18 94 22 c 0
 94 26 94 27 85 27 c 0
 76 27 76 27 76 31 c 0
 76 35 75 36 71 36 c 0
 67 36 67 36 67 40 c 0x90
 67 44 66 45 62 45 c 0
 58 45 58 45 58 54 c 0xa0
 58 63 57 63 53 63 c 0
 49 63 49 63 49 72 c 0
 49 81 48 81 44 81 c 0
 40 81 40 81 40 121 c 0xc0
 40 161 40 162 44 162 c 0
 48 162 49 162 49 171 c 0
 49 180 49 179 53 179 c 0
 57 179 58 180 58 184 c 0xa0
 58 188 58 188 62 188 c 0
 66 188 67 188 67 197 c 0
 67 206 67 206 76 206 c 0
 85 206 85 207 85 211 c 0
 85 215 85 215 89 215 c 0
 93 215 94 216 94 220 c 0
 94 224 94 224 103 224 c 0
 112 224 112 225 112 229 c 0x90
EndSplineSet
EndChar

StartChar: semicolon
Encoding: 59 59 27
Width: 309
Flags: W
HStem: 99 36<262 271> 305 198<65.0033 148.154 151.847 243.859> 323 162<47.0625 91.9973 209.003 252.997>
VStem: 47 215<36.0027 115.339 118.661 197 323.141 401.923 406.077 406.569 409.431 485> 47 206<36.0027 115.339 118.661 197 323 401.923 406.077 406.569 409.431 485> 56 197<27.0625 115.339 118.661 206 322.98 401.923 406.077 406.569 409.431 494> 65 179<26.9012 80.1694 153.831 215 314 358.709 449.415 502.781> 74 170<18.0625 62.9657 179.415 215 314 340.996 467.415 502.781> 74 152<188.028 223.938 304.98 340.992 476.003 511.781> 83 143<188.028 224.099 304.949 331.585 476.003 511.881> 92 143<9.26819 35.5847 197.028 223.974 485.003 503.02> 146 27<-26.9993 -17.8595>
LayerCount: 2
Fore
SplineSet
110 516 m 0xc020
 110 520 110 521 150 521 c 0
 190 521 191 520 191 516 c 0
 191 512 191 512 200 512 c 0
 209 512 209 511 209 507 c 0
 209 503 208 503 217 503 c 0
 226 503 226 502 226 498 c 0xc080
 226 494 227 494 231 494 c 0
 235 494 235 493 235 489 c 0xc020
 235 485 236 485 240 485 c 0
 244 485 244 484 244 480 c 0xa2
 244 476 245 476 249 476 c 0
 253 476 253 476 253 467 c 0xa8
 253 458 254 458 258 458 c 0
 262 458 262 458 262 449 c 0
 262 440 263 440 267 440 c 0
 271 440 271 439 271 408 c 0
 271 377 271 377 267 377 c 0
 263 377 262 376 262 363 c 0xb0
 262 350 262 350 258 350 c 0
 254 350 253 350 253 346 c 0xa8
 253 342 253 341 249 341 c 0
 245 341 244 341 244 332 c 0xa2
 244 323 244 323 235 323 c 0xa020
 226 323 226 323 226 319 c 0xa080
 226 315 226 314 222 314 c 0
 218 314 217 314 217 310 c 0
 217 306 218 305 209 305 c 0
 200 305 200 305 200 301 c 0
 200 297 199 296 186 296 c 0
 173 296 173 296 173 292 c 0xc010
 173 288 172 287 150 287 c 0
 128 287 128 288 128 292 c 0
 128 296 127 296 114 296 c 0
 101 296 101 297 101 301 c 0
 101 305 101 305 92 305 c 0xc020
 83 305 83 306 83 310 c 0xc040
 83 314 82 314 78 314 c 0
 74 314 74 315 74 319 c 0xc1
 74 323 73 323 69 323 c 0
 65 323 65 324 65 328 c 0xa2
 65 332 64 332 60 332 c 0
 56 332 56 333 56 337 c 0xa4
 56 341 55 341 51 341 c 0
 47 341 47 341 47 350 c 0
 47 359 46 359 42 359 c 0
 38 359 38 359 38 404 c 0
 38 449 38 449 42 449 c 0
 46 449 47 449 47 458 c 0xb0
 47 467 47 467 51 467 c 0
 55 467 56 467 56 471 c 0xa4
 56 475 56 476 60 476 c 0
 64 476 65 476 65 480 c 0xa2
 65 484 65 485 69 485 c 0
 73 485 74 485 74 489 c 0xa1
 74 493 74 494 78 494 c 0
 82 494 83 494 83 498 c 0xa040
 83 502 83 503 87 503 c 0
 91 503 92 503 92 507 c 0
 92 511 92 512 101 512 c 0
 110 512 110 512 110 516 c 0xc020
110 229 m 0
 110 233 110 233 155 233 c 0
 200 233 200 233 200 229 c 0
 200 225 200 224 209 224 c 0
 218 224 217 224 217 220 c 0
 217 216 218 215 222 215 c 0
 226 215 226 215 226 211 c 0x8080
 226 207 227 206 231 206 c 0
 235 206 235 206 235 202 c 0x8020
 235 198 236 197 240 197 c 0
 244 197 244 197 244 193 c 0x82
 244 189 245 188 249 188 c 0
 253 188 253 188 253 179 c 0x88
 253 170 254 171 258 171 c 0
 262 171 262 171 262 153 c 0
 262 135 263 135 267 135 c 0
 271 135 271 135 271 117 c 0
 271 99 271 99 267 99 c 0
 263 99 262 99 262 81 c 0x90
 262 63 262 63 258 63 c 0
 254 63 253 63 253 54 c 0x88
 253 45 253 45 249 45 c 0
 245 45 244 45 244 36 c 0x82
 244 27 244 27 240 27 c 0
 236 27 235 26 235 22 c 0x8020
 235 18 235 18 231 18 c 0
 227 18 226 17 226 13 c 0x8040
 226 9 226 9 222 9 c 0
 218 9 217 8 217 4 c 0
 217 0 217 0 213 0 c 0
 209 0 209 0 209 -4 c 0
 209 -8 209 -9 200 -9 c 0
 191 -9 191 -9 191 -13 c 0
 191 -17 191 -18 182 -18 c 0
 173 -18 173 -18 173 -22 c 0
 173 -26 172 -27 159 -27 c 0
 146 -27 146 -27 146 -9 c 0x8010
 146 9 146 9 128 9 c 0
 110 9 110 9 110 13 c 0
 110 17 110 18 101 18 c 0
 92 18 92 18 92 22 c 0x8020
 92 26 92 27 83 27 c 0x8040
 74 27 74 27 74 31 c 0x81
 74 35 73 36 69 36 c 0
 65 36 65 36 65 45 c 0x82
 65 54 64 54 60 54 c 0
 56 54 56 54 56 58 c 0x84
 56 62 55 63 51 63 c 0
 47 63 47 63 47 72 c 0
 47 81 46 81 42 81 c 0
 38 81 38 81 38 117 c 0
 38 153 38 153 42 153 c 0
 46 153 47 153 47 166 c 0x90
 47 179 47 179 51 179 c 0
 55 179 56 180 56 184 c 0x84
 56 188 56 188 60 188 c 0
 64 188 65 189 65 193 c 0x82
 65 197 65 197 69 197 c 0
 73 197 74 198 74 202 c 0x81
 74 206 74 206 78 206 c 0
 82 206 83 207 83 211 c 0x8040
 83 215 83 215 87 215 c 0
 91 215 92 216 92 220 c 0x8020
 92 224 92 224 101 224 c 0
 110 224 110 225 110 229 c 0
EndSplineSet
EndChar

StartChar: bracketleft
Encoding: 91 91 28
Width: 300
Flags: W
HStem: -108 117<171 296> 512 179<171 296>
VStem: 18 278<-108 9 512 691> 18 153<9 512>
LayerCount: 2
Fore
SplineSet
18 292 m 1xd0
 18 691 l 1
 157 691 l 1
 296 691 l 1
 296 601 l 1
 296 512 l 1xe0
 233 512 l 1
 171 512 l 1
 171 260 l 1
 171 9 l 1xd0
 233 9 l 1
 296 9 l 1
 296 -49 l 1
 296 -108 l 1
 157 -108 l 1
 18 -108 l 1xe0
 18 292 l 1xd0
EndSplineSet
EndChar

StartChar: bracketright
Encoding: 93 93 29
Width: 309
Flags: W
HStem: -108 117<4 130> 512 179<4.41199 130> 521 170<4.21094 129.078>
VStem: 4 287<-108 9 512.268 691> 13 278<512.089 689.672> 130 161<9 512>
LayerCount: 2
Fore
SplineSet
4 606 m 2xb0
 4 691 l 1
 148 691 l 1
 291 691 l 1xb0
 291 292 l 1xa4
 291 -108 l 1
 148 -108 l 1
 4 -108 l 1
 4 -49 l 1
 4 9 l 1xb0
 67 9 l 1
 130 9 l 1
 130 260 l 1
 130 512 l 1xc4
 71 512 l 2
 13 512 13 512 13 516 c 0xc8
 13 520 12 521 8 521 c 0
 4 521 4 521 4 606 c 2xb0
EndSplineSet
EndChar

StartChar: braceleft
Encoding: 123 123 30
Width: 313
Flags: W
HStem: -108 117<236.092 308.199> 565 135<213.753 299.438> 574 126<220.644 309>
VStem: 58 152<19.8732 214.487 377.98 562.629> 67 242<-79.4661 6.49841 575.88 672.938> 76 233<-89.6612 6.49841 575.88 673.099>
LayerCount: 2
Fore
SplineSet
148 696 m 0xc4
 148 700 147 700 228 700 c 2xc4
 309 700 l 1xa4
 309 637 l 1xa8
 309 574 l 1
 273 574 l 2xa4
 237 574 237 574 237 570 c 0
 237 566 237 565 228 565 c 0
 219 565 219 565 219 556 c 0
 219 547 219 547 215 547 c 0
 211 547 210 548 210 449 c 0
 210 350 210 350 206 350 c 0
 202 350 201 350 201 341 c 0
 201 332 201 332 197 332 c 0
 193 332 192 332 192 328 c 0
 192 324 192 323 188 323 c 0
 184 323 183 323 183 319 c 0
 183 315 183 314 179 314 c 0
 175 314 175 314 175 310 c 0
 175 306 174 305 170 305 c 0
 166 305 166 305 166 301 c 0
 166 297 165 296 161 296 c 0
 157 296 157 296 157 292 c 0
 157 288 157 287 166 287 c 0
 175 287 175 287 175 283 c 0
 175 279 175 278 179 278 c 0
 183 278 183 278 183 274 c 0
 183 270 184 269 188 269 c 0
 192 269 192 269 192 260 c 0
 192 251 193 251 197 251 c 0
 201 251 201 251 201 242 c 0
 201 233 202 233 206 233 c 0
 210 233 210 234 210 135 c 0xd0
 210 36 211 36 215 36 c 0
 219 36 219 36 219 27 c 0
 219 18 219 18 228 18 c 0
 237 18 237 17 237 13 c 0
 237 9 237 9 273 9 c 0
 309 9 309 9 309 -49 c 0xc8
 309 -107 309 -108 305 -108 c 0
 301 -108 300 -108 300 -112 c 0
 300 -116 300 -117 233 -117 c 0
 166 -117 166 -116 166 -112 c 0
 166 -108 165 -108 143 -108 c 0
 121 -108 121 -107 121 -103 c 0
 121 -99 121 -99 112 -99 c 0
 103 -99 103 -98 103 -94 c 0
 103 -90 102 -90 98 -90 c 0
 94 -90 94 -89 94 -85 c 0
 94 -81 93 -81 89 -81 c 0
 85 -81 85 -80 85 -76 c 0
 85 -72 84 -72 80 -72 c 0
 76 -72 76 -71 76 -67 c 0xc4
 76 -63 75 -63 71 -63 c 0
 67 -63 67 -63 67 -54 c 0xc8
 67 -45 66 -45 62 -45 c 0
 58 -45 58 -45 58 63 c 0
 58 171 57 171 53 171 c 0
 49 171 49 170 49 188 c 0
 49 206 48 206 44 206 c 0
 40 206 40 207 40 211 c 0
 40 215 39 215 35 215 c 0
 31 215 31 216 31 220 c 0
 31 224 31 224 22 224 c 0
 13 224 13 225 13 229 c 0
 13 233 12 233 8 233 c 0
 4 233 4 234 4 301 c 0
 4 368 4 368 17 368 c 0
 30 368 31 368 31 372 c 0
 31 376 31 377 35 377 c 0
 39 377 40 377 40 381 c 0
 40 385 40 386 44 386 c 0
 48 386 49 386 49 404 c 0
 49 422 49 422 53 422 c 0
 57 422 58 422 58 525 c 0xd0
 58 628 58 628 62 628 c 0
 66 628 67 628 67 637 c 0xc8
 67 646 67 646 71 646 c 0
 75 646 76 646 76 655 c 0
 76 664 76 664 80 664 c 0
 84 664 85 665 85 669 c 0
 85 673 85 673 94 673 c 0
 103 673 103 674 103 678 c 0
 103 682 103 682 112 682 c 0
 121 682 121 683 121 687 c 0
 121 691 121 691 134 691 c 0
 147 691 148 692 148 696 c 0xc4
EndSplineSet
EndChar

StartChar: braceright
Encoding: 125 125 31
Width: 313
Flags: W
HStem: -117 135<6.07846 100.591> -108 117<4.68967 81.6775> 574 126<4.23842 97.7379> 583 108<4.07497 90.2621>
VStem: 103 161<19.1294 214.318 359.082 573.257>
LayerCount: 2
Fore
SplineSet
13 696 m 0x18
 13 700 13 700 94 700 c 0x28
 175 700 175 700 175 696 c 0
 175 692 175 691 188 691 c 0
 201 691 201 691 201 687 c 0
 201 683 201 682 210 682 c 0
 219 682 219 682 219 678 c 0
 219 674 220 673 224 673 c 0
 228 673 228 673 228 669 c 0
 228 665 229 664 233 664 c 0
 237 664 237 664 237 655 c 0
 237 646 238 646 242 646 c 0
 246 646 246 646 246 637 c 0
 246 628 247 628 251 628 c 0
 255 628 255 628 255 606 c 0
 255 584 256 583 260 583 c 0
 264 583 264 584 264 485 c 0
 264 386 265 386 269 386 c 0
 273 386 273 386 273 377 c 0
 273 368 274 368 278 368 c 0
 282 368 282 367 282 363 c 0
 282 359 282 359 291 359 c 0
 300 359 300 358 300 354 c 0
 300 350 301 350 305 350 c 0
 309 350 309 350 309 287 c 0
 309 224 309 224 305 224 c 0
 301 224 300 224 300 220 c 0
 300 216 300 215 291 215 c 0
 282 215 282 215 282 211 c 0
 282 207 282 206 278 206 c 0
 274 206 273 206 273 202 c 0
 273 198 273 197 269 197 c 0
 265 197 264 198 264 99 c 0
 264 0 264 0 260 0 c 0
 256 0 255 0 255 -22 c 0
 255 -44 255 -45 251 -45 c 0
 247 -45 246 -45 246 -54 c 0
 246 -63 246 -63 242 -63 c 0
 238 -63 237 -63 237 -72 c 0
 237 -81 237 -81 233 -81 c 0
 229 -81 228 -81 228 -85 c 0
 228 -89 228 -90 219 -90 c 0
 210 -90 210 -90 210 -94 c 0
 210 -98 210 -99 201 -99 c 0
 192 -99 192 -99 192 -103 c 0
 192 -107 193 -108 175 -108 c 0x58
 157 -108 157 -108 157 -112 c 0
 157 -116 157 -117 85 -117 c 0x88
 13 -117 13 -116 13 -112 c 0
 13 -108 12 -108 8 -108 c 0
 4 -108 4 -107 4 -49 c 0
 4 9 4 9 35 9 c 0x48
 66 9 67 9 67 13 c 0
 67 17 67 18 80 18 c 0
 93 18 94 18 94 27 c 0
 94 36 94 36 98 36 c 0
 102 36 103 36 103 130 c 0
 103 224 103 224 107 224 c 0
 111 224 112 225 112 238 c 0
 112 251 112 251 116 251 c 0
 120 251 121 252 121 256 c 0
 121 260 121 260 125 260 c 0
 129 260 130 261 130 265 c 0
 130 269 130 269 134 269 c 0
 138 269 139 270 139 274 c 0
 139 278 139 278 143 278 c 0
 147 278 148 279 148 283 c 0
 148 287 148 287 152 287 c 0
 156 287 157 288 157 292 c 0
 157 296 156 296 152 296 c 0
 148 296 148 297 148 301 c 0
 148 305 147 305 143 305 c 0
 139 305 139 306 139 310 c 0
 139 314 138 314 134 314 c 0
 130 314 130 315 130 319 c 0
 130 323 129 323 125 323 c 0
 121 323 121 324 121 328 c 0
 121 332 120 332 116 332 c 0
 112 332 112 333 112 346 c 0
 112 359 111 359 107 359 c 0
 103 359 103 359 103 458 c 0
 103 557 102 556 98 556 c 0
 94 556 94 557 94 561 c 0
 94 565 93 565 89 565 c 0
 85 565 85 566 85 570 c 0
 85 574 85 574 49 574 c 0xa8
 13 574 13 575 13 579 c 0
 13 583 12 583 8 583 c 0
 4 583 4 583 4 637 c 0
 4 691 4 691 8 691 c 0
 12 691 13 692 13 696 c 0x18
EndSplineSet
EndChar

StartChar: asciitilde
Encoding: 126 126 32
Width: 573
Flags: W
HStem: 574 153<322.146 420.766> 583 171<89.4153 124.585 125.415 143 259.197 374.421 385.452 439> 592 171<98.0033 124.585 241.291 348.821> 592 153<89.0027 124.585 277 378.738> 601 180<134 178.774 215.559 303.989 430 451.815 452.185 483.972> 610 162<142.901 195.754 198.245 304 452.185 492.781> 619 162<143.066 195.754 198.245 277 457 483.972> 619 72<53.0625 80> 628 162<152.092 258.872> 628 45<44.0625 70.7812> 637 18<44 53> 673 63<502.003 528.371> 691 36<514.815 528.999>
VStem: 80 72<592.003 619.099> 107 36<574.001 601> 116 18<574.001 587.827> 421 72<736 771.966> 430 45<745.062 789.972> 439 27<763.003 789.993> 448 9<781 789.993>
LayerCount: 2
Fore
SplineSet
170 785 m 0x0802
 170 789 170 790 197 790 c 0x0082
 224 790 223 789 223 785 c 0
 223 781 224 781 237 781 c 0x0802
 250 781 250 780 250 776 c 0
 250 772 251 772 264 772 c 0x0402
 277 772 277 771 277 767 c 0
 277 763 278 763 291 763 c 0x2002
 304 763 304 762 304 758 c 0
 304 754 304 754 313 754 c 0x4002
 322 754 322 753 322 749 c 0
 322 745 323 745 336 745 c 0x1002
 349 745 349 744 349 740 c 0
 349 736 350 736 363 736 c 0x0012
 376 736 376 735 376 731 c 0
 376 727 377 727 381 727 c 0x8002
 385 727 385 727 385 731 c 0
 385 735 385 736 398 736 c 0x0012
 411 736 412 736 412 740 c 0
 412 744 412 745 416 745 c 0x1002
 420 745 421 745 421 749 c 0
 421 753 421 754 425 754 c 0x400280
 429 754 430 754 430 763 c 0x200040
 430 772 430 772 434 772 c 0x040040
 438 772 439 772 439 776 c 0
 439 780 439 781 443 781 c 0x080020
 447 781 448 781 448 785 c 0
 448 789 448 790 452 790 c 0x008010
 456 790 457 789 457 785 c 0
 457 781 457 781 461 781 c 0x080010
 465 781 466 780 466 776 c 0
 466 772 466 772 470 772 c 0x040020
 474 772 475 771 475 767 c 0
 475 763 475 763 479 763 c 0x200040
 483 763 484 762 484 758 c 0
 484 754 484 754 488 754 c 0x400040
 492 754 493 753 493 749 c 0
 493 745 493 745 502 745 c 0x100080
 511 745 511 744 511 740 c 0
 511 736 511 736 515 736 c 0x001080
 519 736 520 735 520 731 c 0
 520 727 520 727 524 727 c 0
 528 727 529 727 529 709 c 0
 529 691 528 691 524 691 c 0x000880
 520 691 520 691 520 682 c 0
 520 673 519 673 515 673 c 0
 511 673 511 673 511 664 c 0
 511 655 510 655 506 655 c 0
 502 655 502 655 502 651 c 0
 502 647 501 646 497 646 c 0
 493 646 493 646 493 637 c 0x003080
 493 628 492 628 488 628 c 0x004080
 484 628 484 628 484 624 c 0
 484 620 483 619 479 619 c 0x020080
 475 619 475 619 475 615 c 0
 475 611 474 610 470 610 c 0x040040
 466 610 466 610 466 606 c 0
 466 602 465 601 461 601 c 0x080020
 457 601 457 601 457 597 c 0
 457 593 456 592 452 592 c 0
 448 592 448 592 448 588 c 0x100010
 448 584 448 583 439 583 c 0x400020
 430 583 430 583 430 579 c 0
 430 575 430 574 381 574 c 0x800040
 332 574 331 575 331 579 c 0
 331 583 331 583 318 583 c 0x400040
 305 583 304 584 304 588 c 0
 304 592 304 592 291 592 c 0x200040
 278 592 277 593 277 597 c 0
 277 601 277 601 268 601 c 0x080040
 259 601 259 602 259 606 c 0
 259 610 259 610 250 610 c 0x040040
 241 610 241 611 241 615 c 0
 241 619 241 619 228 619 c 0x020040
 215 619 215 620 215 624 c 0
 215 628 215 628 197 628 c 0x008040
 179 628 179 628 179 624 c 0
 179 620 179 619 170 619 c 0x020040
 161 619 161 619 161 615 c 0
 161 611 160 610 156 610 c 0x040040
 152 610 152 610 152 606 c 0
 152 602 151 601 147 601 c 0x080440
 143 601 143 601 143 592 c 0x1002
 143 583 142 583 138 583 c 0x4002
 134 583 134 583 134 579 c 0
 134 575 134 574 125 574 c 0x8001
 116 574 116 575 116 579 c 0
 116 583 115 583 111 583 c 0x4001
 107 583 107 584 107 588 c 0
 107 592 106 592 102 592 c 0x2002
 98 592 98 593 98 597 c 0
 98 601 98 601 89 601 c 0x0802
 80 601 80 602 80 606 c 0
 80 610 79 610 75 610 c 0x0404
 71 610 71 611 71 615 c 0
 71 619 70 619 66 619 c 0x0104
 62 619 62 620 62 624 c 0
 62 628 61 628 57 628 c 0x0044
 53 628 53 629 53 633 c 0
 53 637 52 637 48 637 c 0
 44 637 44 637 44 646 c 0
 44 655 44 655 48 655 c 0x0024
 52 655 53 655 53 664 c 0
 53 673 53 673 57 673 c 0x0044
 61 673 62 673 62 682 c 0
 62 691 62 691 66 691 c 0x0104
 70 691 71 691 71 700 c 0
 71 709 71 709 75 709 c 0
 79 709 80 709 80 713 c 0
 80 717 80 718 84 718 c 0
 88 718 89 718 89 727 c 0x000c
 89 736 89 736 93 736 c 0x0014
 97 736 98 736 98 740 c 0
 98 744 98 745 102 745 c 0x1004
 106 745 107 745 107 749 c 0
 107 753 107 754 111 754 c 0x4002
 115 754 116 754 116 758 c 0
 116 762 116 763 125 763 c 0x2001
 134 763 134 763 134 767 c 0
 134 771 134 772 138 772 c 0x0401
 142 772 143 772 143 776 c 0
 143 780 143 781 156 781 c 0
 169 781 170 781 170 785 c 0x0802
EndSplineSet
EndChar

StartChar: grave
Encoding: 96 96 33
Width: 311
Flags: W
HStem: 565 63<183.325 225.818> 565 54<192.176 234.943> 619 63<84.8109 127.243>
VStem: 84 108<619 663.585> 93 108<610 654.997> 102 108<601 645.997> 111 108<592 636.997> 120 107<583.028 627.997> 129 107<574.028 618.997>
LayerCount: 2
Fore
SplineSet
48 673 m 0x90
 48 682 48 682 106 682 c 0
 164 682 165 682 165 678 c 0
 165 674 165 673 169 673 c 0
 173 673 174 673 174 664 c 0
 174 655 174 655 178 655 c 0
 182 655 183 655 183 651 c 0
 183 647 183 646 187 646 c 0
 191 646 192 646 192 642 c 0x30
 192 638 192 637 196 637 c 0
 200 637 201 637 201 633 c 0x28
 201 629 201 628 205 628 c 0
 209 628 210 628 210 624 c 0x84
 210 620 210 619 214 619 c 0
 218 619 219 619 219 615 c 0x42
 219 611 219 610 223 610 c 0
 227 610 227 610 227 606 c 0x41
 227 602 228 601 232 601 c 0
 236 601 236 601 236 597 c 0x4080
 236 593 237 592 241 592 c 0
 245 592 245 592 245 588 c 0
 245 584 246 583 250 583 c 0
 254 583 254 583 254 579 c 0
 254 575 255 574 259 574 c 0
 263 574 263 574 263 570 c 0
 263 566 264 565 210 565 c 0x84
 156 565 156 566 156 570 c 0
 156 574 155 574 151 574 c 0
 147 574 147 575 147 579 c 0
 147 583 146 583 142 583 c 0
 138 583 138 584 138 588 c 0
 138 592 137 592 133 592 c 0
 129 592 129 593 129 597 c 0x8080
 129 601 128 601 124 601 c 0
 120 601 120 602 120 606 c 0x81
 120 610 119 610 115 610 c 0
 111 610 111 611 111 615 c 0x82
 111 619 110 619 106 619 c 0
 102 619 102 620 102 624 c 0x24
 102 628 101 628 97 628 c 0
 93 628 93 629 93 633 c 0x88
 93 637 92 637 88 637 c 0
 84 637 84 638 84 642 c 0
 84 646 83 646 79 646 c 0
 75 646 75 647 75 651 c 0
 75 655 74 655 70 655 c 0
 66 655 66 656 66 660 c 0
 66 664 66 664 57 664 c 0
 48 664 48 664 48 673 c 0x90
EndSplineSet
EndChar

StartChar: zero
Encoding: 48 48 34
Width: 496
Flags: W
HStem: 0 179<212.422 283.815> 529 180<205.186 291.633>
VStem: 6 197<188.183 528.528> 15 197<179.629 351.94 366.06 528.957> 230 27<1.52588e-05 8.75085> 284 198<179.682 348.001 366.06 528.957> 293 198<188.259 528.528>
LayerCount: 2
Fore
SplineSet
194 704 m 0xd8
 194 708 194 709 248 709 c 0
 302 709 302 708 302 704 c 0
 302 700 302 700 320 700 c 0
 338 700 338 700 338 696 c 0
 338 692 338 691 347 691 c 0
 356 691 356 691 356 687 c 0
 356 683 356 682 365 682 c 0
 374 682 374 682 374 678 c 0
 374 674 374 673 383 673 c 0
 392 673 392 673 392 669 c 0
 392 665 392 664 396 664 c 0
 400 664 401 664 401 660 c 0
 401 656 401 655 405 655 c 0
 409 655 410 655 410 651 c 0
 410 647 410 646 414 646 c 0
 418 646 419 646 419 642 c 0
 419 638 419 637 423 637 c 0
 427 637 428 637 428 633 c 0
 428 629 428 628 432 628 c 0
 436 628 437 628 437 619 c 0
 437 610 437 610 441 610 c 0
 445 610 446 610 446 606 c 0
 446 602 446 601 450 601 c 0
 454 601 455 601 455 592 c 0
 455 583 455 583 459 583 c 0
 463 583 464 583 464 574 c 0
 464 565 464 565 468 565 c 0
 472 565 473 565 473 547 c 0
 473 529 473 529 477 529 c 0
 481 529 482 529 482 507 c 0xdc
 482 485 482 485 486 485 c 0
 490 485 491 484 491 354 c 0xca
 491 224 490 224 486 224 c 0
 482 224 482 224 482 202 c 0
 482 180 481 179 477 179 c 0
 473 179 473 179 473 166 c 0
 473 153 472 153 468 153 c 0
 464 153 464 153 464 144 c 0
 464 135 463 135 459 135 c 0
 455 135 455 135 455 126 c 0
 455 117 454 117 450 117 c 0
 446 117 446 117 446 108 c 0
 446 99 445 99 441 99 c 0
 437 99 437 98 437 94 c 0
 437 90 436 90 432 90 c 0
 428 90 428 89 428 85 c 0
 428 81 427 81 423 81 c 0
 419 81 419 80 419 76 c 0
 419 72 418 72 414 72 c 0
 410 72 410 71 410 67 c 0
 410 63 409 63 405 63 c 0
 401 63 401 62 401 58 c 0
 401 54 400 54 396 54 c 0
 392 54 392 53 392 49 c 0
 392 45 391 45 387 45 c 0
 383 45 383 44 383 40 c 0
 383 36 383 36 374 36 c 0
 365 36 365 35 365 31 c 0
 365 27 365 27 356 27 c 0
 347 27 347 26 347 22 c 0
 347 18 347 18 334 18 c 0
 321 18 320 17 320 13 c 0
 320 9 320 9 289 9 c 0
 258 9 257 8 257 4 c 0
 257 0 257 0 244 0 c 0
 231 0 230 0 230 4 c 0
 230 8 230 9 203 9 c 0xec
 176 9 177 9 177 13 c 0
 177 17 176 18 163 18 c 0
 150 18 150 18 150 22 c 0
 150 26 150 27 141 27 c 0
 132 27 132 27 132 31 c 0
 132 35 132 36 123 36 c 0
 114 36 114 36 114 40 c 0
 114 44 113 45 109 45 c 0
 105 45 105 45 105 49 c 0
 105 53 104 54 100 54 c 0
 96 54 96 54 96 58 c 0
 96 62 95 63 91 63 c 0
 87 63 87 63 87 67 c 0
 87 71 86 72 82 72 c 0
 78 72 78 72 78 76 c 0
 78 80 77 81 73 81 c 0
 69 81 69 81 69 85 c 0
 69 89 68 90 64 90 c 0
 60 90 60 90 60 94 c 0
 60 98 59 99 55 99 c 0
 51 99 51 99 51 108 c 0
 51 117 50 117 46 117 c 0
 42 117 42 117 42 126 c 0
 42 135 41 135 37 135 c 0
 33 135 33 135 33 144 c 0
 33 153 32 153 28 153 c 0
 24 153 24 153 24 166 c 0
 24 179 23 179 19 179 c 0
 15 179 15 179 15 206 c 0xd8
 15 233 14 233 10 233 c 0
 6 233 6 233 6 359 c 0xe8
 6 485 6 485 10 485 c 0
 14 485 15 485 15 507 c 0
 15 529 15 529 19 529 c 0
 23 529 24 529 24 547 c 0
 24 565 24 565 28 565 c 0
 32 565 33 565 33 574 c 0
 33 583 33 583 37 583 c 0
 41 583 42 583 42 592 c 0
 42 601 42 601 46 601 c 0
 50 601 51 602 51 606 c 0
 51 610 51 610 55 610 c 0
 59 610 60 610 60 619 c 0
 60 628 60 628 64 628 c 0
 68 628 69 629 69 633 c 0
 69 637 69 637 73 637 c 0
 77 637 78 638 78 642 c 0
 78 646 78 646 82 646 c 0
 86 646 87 647 87 651 c 0
 87 655 87 655 91 655 c 0
 95 655 96 656 96 660 c 0
 96 664 96 664 100 664 c 0
 104 664 105 665 105 669 c 0
 105 673 105 673 114 673 c 0
 123 673 123 674 123 678 c 0
 123 682 123 682 132 682 c 0
 141 682 141 683 141 687 c 0
 141 691 141 691 150 691 c 0
 159 691 159 692 159 696 c 0
 159 700 159 700 177 700 c 0
 195 700 194 700 194 704 c 0xd8
275 525 m 0
 275 529 275 529 248 529 c 0
 221 529 221 529 221 525 c 0
 221 521 221 521 217 521 c 0
 213 521 212 520 212 516 c 0xdc
 212 512 212 512 208 512 c 0
 204 512 203 512 203 359 c 0xe8
 203 206 204 206 208 206 c 0
 212 206 212 206 212 197 c 0
 212 188 212 188 221 188 c 0
 230 188 230 188 230 184 c 0
 230 180 230 179 248 179 c 0
 266 179 266 180 266 184 c 0
 266 188 266 188 275 188 c 0
 284 188 284 188 284 197 c 0xdc
 284 206 285 206 289 206 c 0
 293 206 293 206 293 359 c 0xca
 293 512 293 512 289 512 c 0
 285 512 284 512 284 516 c 0
 284 520 284 521 280 521 c 0
 276 521 275 521 275 525 c 0
EndSplineSet
EndChar

StartChar: one
Encoding: 49 49 35
Width: 233
Flags: W
HStem: 671 20G<18 215>
VStem: 18 197<18.4546 691> 18 188<18.2384 374.562>
LayerCount: 2
Fore
SplineSet
18 354 m 1xc0
 18 691 l 1
 117 691 l 1
 215 691 l 1
 215 359 l 2xc0
 215 27 215 27 211 27 c 0
 207 27 206 26 206 22 c 0
 206 18 206 18 112 18 c 2
 18 18 l 1xa0
 18 354 l 1xc0
EndSplineSet
EndChar

StartChar: two
Encoding: 50 50 36
Width: 486
Flags: W
HStem: 18 197<139.703 165.781 372 480> 395 63<183.001 200.789> 413 27<191.966 201> 458 36<471.011 479.999> 512 197<192.415 272.664>
VStem: 4 179<401.8 502.494> 13 179<368.003 425.4 426.601 466.585 467.415 473.923> 49 108<305.028 376.585> 58 90<296.415 358.585> 67 72<296.003 340.585> 94 36<278.001 300.961> 103 18<278.001 292.111>
LayerCount: 2
Fore
SplineSet
183 704 m 0xac
 183 708 183 709 237 709 c 0
 291 709 291 708 291 704 c 0
 291 700 291 700 309 700 c 0
 327 700 327 700 327 696 c 0
 327 692 327 691 336 691 c 0
 345 691 345 691 345 687 c 0
 345 683 345 682 354 682 c 0
 363 682 363 682 363 678 c 0
 363 674 363 673 367 673 c 0
 371 673 372 673 372 669 c 0
 372 665 372 664 381 664 c 0
 390 664 390 664 390 660 c 0
 390 656 390 655 394 655 c 0
 398 655 399 655 399 651 c 0
 399 647 399 646 403 646 c 0
 407 646 408 646 408 642 c 0
 408 638 408 637 412 637 c 0
 416 637 417 637 417 633 c 0
 417 629 417 628 421 628 c 0
 425 628 426 628 426 619 c 0
 426 610 426 610 430 610 c 0
 434 610 435 610 435 606 c 0
 435 602 435 601 439 601 c 0
 443 601 444 601 444 592 c 0
 444 583 444 583 448 583 c 0
 452 583 453 583 453 574 c 0
 453 565 453 565 457 565 c 0
 461 565 462 565 462 552 c 0
 462 539 462 538 466 538 c 0
 470 538 471 538 471 516 c 0
 471 494 471 494 475 494 c 0
 479 494 480 494 480 476 c 0
 480 458 479 458 475 458 c 0xbc
 471 458 471 458 471 431 c 0
 471 404 470 404 466 404 c 0
 462 404 462 404 462 395 c 0
 462 386 461 386 457 386 c 0
 453 386 453 386 453 377 c 0
 453 368 452 368 448 368 c 0
 444 368 444 368 444 359 c 0
 444 350 443 350 439 350 c 0
 435 350 435 350 435 341 c 0
 435 332 434 332 430 332 c 0
 426 332 426 332 426 323 c 0
 426 314 425 314 421 314 c 0
 417 314 417 314 417 305 c 0
 417 296 416 296 412 296 c 0
 408 296 408 296 408 287 c 0
 408 278 407 278 403 278 c 0
 399 278 399 278 399 269 c 0
 399 260 398 260 394 260 c 0
 390 260 390 260 390 251 c 0
 390 242 389 242 385 242 c 0
 381 242 381 242 381 233 c 0
 381 224 380 224 376 224 c 0
 372 224 372 224 372 220 c 0
 372 216 372 215 426 215 c 2
 480 215 l 1
 480 117 l 1
 480 18 l 1
 264 18 l 2
 49 18 49 18 49 27 c 0xc9
 49 36 49 36 53 36 c 0
 57 36 58 36 58 45 c 0xc880
 58 54 58 54 62 54 c 0
 66 54 67 54 67 58 c 0xc840
 67 62 67 63 71 63 c 0
 75 63 76 63 76 72 c 0
 76 81 76 81 80 81 c 0
 84 81 85 81 85 90 c 0
 85 99 85 99 89 99 c 0
 93 99 94 99 94 108 c 0xc820
 94 117 94 117 98 117 c 0
 102 117 103 117 103 126 c 0
 103 135 103 135 107 135 c 0
 111 135 112 135 112 144 c 0
 112 153 112 153 116 153 c 0
 120 153 121 153 121 162 c 0xc810
 121 171 121 171 125 171 c 0
 129 171 130 170 130 179 c 0xc820
 130 188 130 188 134 188 c 0
 138 188 139 189 139 193 c 0xc840
 139 197 139 197 143 197 c 0
 147 197 148 197 148 206 c 0xc880
 148 215 148 215 152 215 c 0
 156 215 157 215 157 224 c 0xc9
 157 233 157 233 161 233 c 0
 165 233 166 233 166 242 c 0
 166 251 166 251 170 251 c 0
 174 251 175 251 175 260 c 0
 175 269 175 269 179 269 c 0
 183 269 183 269 183 278 c 0xcc
 183 287 184 287 188 287 c 0
 192 287 192 287 192 296 c 0
 192 305 193 305 197 305 c 0
 201 305 201 305 201 314 c 0
 201 323 202 323 206 323 c 0
 210 323 210 324 210 328 c 0
 210 332 211 332 215 332 c 0
 219 332 219 332 219 341 c 0
 219 350 220 350 224 350 c 0
 228 350 228 350 228 359 c 0
 228 368 229 368 233 368 c 0
 237 368 237 368 237 377 c 0
 237 386 238 386 242 386 c 0
 246 386 246 386 246 395 c 0xca
 246 404 247 404 251 404 c 0
 255 404 255 404 255 413 c 0
 255 422 256 422 260 422 c 0
 264 422 264 422 264 431 c 0
 264 440 265 440 269 440 c 0
 273 440 273 440 273 449 c 0
 273 458 274 458 278 458 c 0
 282 458 282 458 282 471 c 0
 282 484 282 485 278 485 c 0
 274 485 273 485 273 494 c 0
 273 503 273 503 269 503 c 0
 265 503 264 503 264 507 c 0
 264 511 264 512 237 512 c 0
 210 512 210 511 210 507 c 0
 210 503 210 503 206 503 c 0
 202 503 201 502 201 498 c 0
 201 494 201 494 197 494 c 0
 193 494 192 494 192 485 c 0xba
 192 476 192 476 188 476 c 0
 184 476 183 476 183 467 c 0
 183 458 184 458 188 458 c 0xcc
 192 458 192 458 192 449 c 0
 192 440 193 440 197 440 c 0
 201 440 201 439 201 426 c 0
 201 413 201 413 197 413 c 0
 193 413 192 413 192 404 c 0xaa
 192 395 192 395 188 395 c 0
 184 395 183 394 183 390 c 0xcc
 183 386 183 386 179 386 c 0
 175 386 175 386 175 377 c 0
 175 368 174 368 170 368 c 0
 166 368 166 368 166 359 c 0
 166 350 165 350 161 350 c 0
 157 350 157 350 157 341 c 0xc9
 157 332 156 332 152 332 c 0
 148 332 148 332 148 323 c 0xc880
 148 314 147 314 143 314 c 0
 139 314 139 314 139 310 c 0xc840
 139 306 138 305 134 305 c 0
 130 305 130 305 130 296 c 0xc820
 130 287 129 287 125 287 c 0
 121 287 121 287 121 283 c 0
 121 279 121 278 112 278 c 0
 103 278 103 279 103 283 c 0xc810
 103 287 102 287 98 287 c 0
 94 287 94 288 94 292 c 0xc820
 94 296 94 296 85 296 c 0
 76 296 76 297 76 301 c 0
 76 305 75 305 71 305 c 0
 67 305 67 306 67 310 c 0xc840
 67 314 66 314 62 314 c 0
 58 314 58 314 58 323 c 0xc880
 58 332 57 332 53 332 c 0
 49 332 49 333 49 337 c 0
 49 341 48 341 44 341 c 0
 40 341 40 341 40 350 c 0
 40 359 39 359 35 359 c 0
 31 359 31 359 31 368 c 0
 31 377 30 377 26 377 c 0
 22 377 22 377 22 386 c 0
 22 395 21 395 17 395 c 0xc9
 13 395 13 395 13 413 c 0xaa
 13 431 12 431 8 431 c 0
 4 431 4 431 4 476 c 0xac
 4 521 4 521 8 521 c 0
 12 521 13 521 13 534 c 0xaa
 13 547 13 547 17 547 c 0
 21 547 22 548 22 561 c 0
 22 574 22 574 26 574 c 0
 30 574 31 574 31 583 c 0
 31 592 31 592 35 592 c 0
 39 592 40 593 40 597 c 0
 40 601 40 601 44 601 c 0
 48 601 49 601 49 610 c 0xa9
 49 619 49 619 53 619 c 0
 57 619 58 620 58 624 c 0xa880
 58 628 58 628 62 628 c 0
 66 628 67 629 67 633 c 0xa840
 67 637 67 637 71 637 c 0
 75 637 76 638 76 642 c 0
 76 646 76 646 80 646 c 0
 84 646 85 647 85 651 c 0
 85 655 85 655 89 655 c 0
 93 655 94 656 94 660 c 0xa820
 94 664 94 664 98 664 c 0
 102 664 103 665 103 669 c 0
 103 673 103 673 112 673 c 0
 121 673 121 674 121 678 c 0xa810
 121 682 121 682 130 682 c 0xa820
 139 682 139 683 139 687 c 0xa840
 139 691 139 691 148 691 c 0xa880
 157 691 157 692 157 696 c 0xa9
 157 700 157 700 170 700 c 0
 183 700 183 700 183 704 c 0xac
EndSplineSet
EndChar

StartChar: three
Encoding: 51 51 37
Width: 376
Flags: W
HStem: 0 21G<118.5 131.5> 0 21G<118.5 131.5> 9 179<13.0086 124.4> 368 27<40.0001 49>
VStem: 58 197<422.003 484.803> 112 27<1.52588e-05 8.75085> 166 206<215.41 331.904>
LayerCount: 2
Fore
SplineSet
13 597 m 1x38
 13 691 l 1
 188 691 l 2
 363 691 363 691 363 682 c 0
 363 673 362 673 358 673 c 0
 354 673 354 673 354 664 c 0
 354 655 354 655 350 655 c 0
 346 655 345 655 345 642 c 0
 345 629 345 628 341 628 c 0
 337 628 336 628 336 619 c 0
 336 610 336 610 332 610 c 0
 328 610 327 610 327 601 c 0
 327 592 327 592 323 592 c 0
 319 592 318 592 318 579 c 0
 318 566 318 565 314 565 c 0
 310 565 309 565 309 556 c 0
 309 547 309 547 305 547 c 0
 301 547 300 547 300 538 c 0
 300 529 300 529 296 529 c 0
 292 529 291 529 291 516 c 0
 291 503 291 503 287 503 c 0
 283 503 282 503 282 494 c 0
 282 485 282 485 278 485 c 0
 274 485 273 485 273 476 c 0
 273 467 273 467 269 467 c 0
 265 467 264 467 264 458 c 0
 264 449 264 449 260 449 c 0
 256 449 255 448 255 444 c 0x38
 255 440 256 440 260 440 c 0
 264 440 264 439 264 435 c 0
 264 431 265 431 269 431 c 0
 273 431 273 430 273 426 c 0
 273 422 274 422 278 422 c 0
 282 422 282 421 282 417 c 0
 282 413 283 413 287 413 c 0
 291 413 291 412 291 408 c 0
 291 404 292 404 296 404 c 0
 300 404 300 403 300 399 c 0
 300 395 301 395 305 395 c 0
 309 395 309 394 309 390 c 0
 309 386 310 386 314 386 c 0
 318 386 318 385 318 381 c 0
 318 377 319 377 323 377 c 0
 327 377 327 376 327 372 c 0
 327 368 328 368 332 368 c 0
 336 368 336 368 336 359 c 0
 336 350 337 350 341 350 c 0
 345 350 345 350 345 346 c 0
 345 342 346 341 350 341 c 0
 354 341 354 341 354 328 c 0
 354 315 354 314 358 314 c 0
 362 314 363 314 363 296 c 0
 363 278 363 278 367 278 c 0
 371 278 372 278 372 238 c 0x32
 372 198 371 197 367 197 c 0
 363 197 363 197 363 179 c 0
 363 161 362 162 358 162 c 0
 354 162 354 162 354 153 c 0
 354 144 354 144 350 144 c 0
 346 144 345 144 345 135 c 0
 345 126 345 126 341 126 c 0
 337 126 336 126 336 117 c 0
 336 108 336 108 332 108 c 0
 328 108 327 107 327 103 c 0
 327 99 327 99 323 99 c 0
 319 99 318 98 318 94 c 0
 318 90 318 90 314 90 c 0
 310 90 309 89 309 85 c 0
 309 81 309 81 305 81 c 0
 301 81 300 80 300 76 c 0
 300 72 300 72 296 72 c 0
 292 72 291 71 291 67 c 0
 291 63 291 63 287 63 c 0
 283 63 282 62 282 58 c 0
 282 54 282 54 278 54 c 0
 274 54 273 53 273 49 c 0
 273 45 273 45 264 45 c 0
 255 45 255 44 255 40 c 0x38
 255 36 255 36 251 36 c 0
 247 36 246 35 246 31 c 0
 246 27 246 27 233 27 c 0
 220 27 219 26 219 22 c 0
 219 18 219 18 206 18 c 0
 193 18 192 17 192 13 c 0
 192 9 193 9 166 9 c 0x32
 139 9 139 8 139 4 c 0
 139 0 138 0 125 0 c 0x96
 112 0 112 0 112 4 c 0
 112 8 111 9 80 9 c 0
 49 9 49 9 49 13 c 0
 49 17 49 18 31 18 c 0
 13 18 13 18 13 22 c 0
 13 26 12 27 8 27 c 0
 4 27 4 27 4 121 c 0
 4 215 4 215 8 215 c 0
 12 215 13 215 13 211 c 0
 13 207 13 206 22 206 c 0
 31 206 31 206 31 202 c 0
 31 198 31 197 49 197 c 0
 67 197 67 197 67 193 c 0
 67 189 67 188 85 188 c 0
 103 188 103 189 103 193 c 0
 103 197 103 197 112 197 c 0
 121 197 121 198 121 202 c 0
 121 206 121 206 130 206 c 0
 139 206 139 207 139 211 c 0
 139 215 139 215 143 215 c 0
 147 215 148 215 148 224 c 0
 148 233 148 233 152 233 c 0
 156 233 157 234 157 247 c 0
 157 260 157 260 161 260 c 0
 165 260 166 260 166 278 c 0
 166 296 165 296 161 296 c 0
 157 296 157 296 157 305 c 0
 157 314 156 314 152 314 c 0
 148 314 148 314 148 323 c 0
 148 332 147 332 143 332 c 0
 139 332 139 333 139 337 c 0
 139 341 139 341 130 341 c 0
 121 341 121 342 121 346 c 0
 121 350 120 350 116 350 c 0
 112 350 112 350 112 354 c 0x36
 112 358 111 359 98 359 c 0
 85 359 85 359 85 363 c 0
 85 367 84 368 62 368 c 0
 40 368 40 368 40 381 c 0
 40 394 40 395 44 395 c 0
 48 395 49 395 49 408 c 0
 49 421 49 422 53 422 c 0
 57 422 58 422 58 435 c 0
 58 448 58 449 62 449 c 0
 66 449 67 449 67 458 c 0
 67 467 67 467 71 467 c 0
 75 467 76 467 76 480 c 0
 76 493 76 494 80 494 c 0
 84 494 85 494 85 498 c 0
 85 502 85 503 49 503 c 2
 13 503 l 1
 13 597 l 1x38
EndSplineSet
EndChar

StartChar: four
Encoding: 52 52 38
Width: 516
Flags: W
HStem: 671 20G<276 498>
VStem: 85 161<377.415 457.709> 94 161<386.007 475.992> 103 161<404.012 493.993> 309 189<18 520.998>
LayerCount: 2
Fore
SplineSet
201 687 m 0x98
 201 691 202 691 350 691 c 2
 498 691 l 1
 498 354 l 1
 498 18 l 1
 403 18 l 1
 309 18 l 1
 309 269 l 2
 309 520 309 521 305 521 c 0
 301 521 300 520 300 516 c 0
 300 512 300 512 296 512 c 0
 292 512 291 512 291 503 c 0
 291 494 291 494 287 494 c 0
 283 494 282 494 282 485 c 0
 282 476 282 476 278 476 c 0
 274 476 273 476 273 467 c 0
 273 458 273 458 269 458 c 0
 265 458 264 458 264 449 c 0x98
 264 440 264 440 260 440 c 0
 256 440 255 440 255 431 c 0xa8
 255 422 255 422 251 422 c 0
 247 422 246 422 246 413 c 0
 246 404 246 404 242 404 c 0
 238 404 237 404 237 395 c 0
 237 386 237 386 233 386 c 0
 229 386 228 386 228 377 c 0
 228 368 228 368 246 368 c 0xc8
 264 368 264 368 264 296 c 2
 264 224 l 1x98
 134 224 l 2
 4 224 4 224 4 233 c 0
 4 242 4 242 8 242 c 0
 12 242 13 242 13 251 c 0
 13 260 13 260 17 260 c 0
 21 260 22 260 22 269 c 0
 22 278 22 278 26 278 c 0
 30 278 31 279 31 292 c 0
 31 305 31 305 35 305 c 0
 39 305 40 305 40 314 c 0
 40 323 40 323 44 323 c 0
 48 323 49 323 49 332 c 0
 49 341 49 341 53 341 c 0
 57 341 58 341 58 354 c 0
 58 367 58 368 62 368 c 0
 66 368 67 368 67 377 c 0
 67 386 67 386 71 386 c 0
 75 386 76 386 76 395 c 0
 76 404 76 404 80 404 c 0
 84 404 85 404 85 417 c 0xc8
 85 430 85 431 89 431 c 0
 93 431 94 431 94 440 c 0xa8
 94 449 94 449 98 449 c 0
 102 449 103 449 103 462 c 0
 103 475 103 476 107 476 c 0
 111 476 112 476 112 485 c 0
 112 494 112 494 116 494 c 0
 120 494 121 494 121 503 c 0
 121 512 121 512 125 512 c 0
 129 512 130 512 130 525 c 0
 130 538 130 538 134 538 c 0
 138 538 139 538 139 547 c 0
 139 556 139 556 143 556 c 0
 147 556 148 556 148 565 c 0
 148 574 148 574 152 574 c 0
 156 574 157 575 157 588 c 0
 157 601 157 601 161 601 c 0
 165 601 166 601 166 610 c 0
 166 619 166 619 170 619 c 0
 174 619 175 619 175 628 c 0
 175 637 175 637 179 637 c 0
 183 637 183 638 183 651 c 0
 183 664 184 664 188 664 c 0
 192 664 192 664 192 673 c 0
 192 682 193 682 197 682 c 0
 201 682 201 683 201 687 c 0x98
EndSplineSet
EndChar

StartChar: five
Encoding: 53 53 39
Width: 412
Flags: W
HStem: 0 21G<139 157> 0 21G<139 157> 9 170<22.1839 147.169> 18 170<8.18531 105.569> 350 36<4.00021 12.9807> 503 188<213.285 390>
VStem: 40 350<503.024 646> 58 332<512.018 686.749> 130 36<1.52588e-05 8.90122> 201 207<206.492 313.936>
LayerCount: 2
Fore
SplineSet
67 669 m 0x1d
 67 691 66 691 228 691 c 2
 390 691 l 1x1d
 390 597 l 1x1e
 390 503 l 1
 305 503 l 2
 220 503 219 503 219 494 c 0
 219 485 219 485 215 485 c 0
 211 485 210 484 210 480 c 0
 210 476 211 476 215 476 c 0
 219 476 219 475 219 471 c 0
 219 467 219 467 228 467 c 0
 237 467 237 466 237 462 c 0
 237 458 238 458 251 458 c 0
 264 458 264 457 264 453 c 0
 264 449 264 449 273 449 c 0
 282 449 282 448 282 444 c 0
 282 440 282 440 291 440 c 0
 300 440 300 439 300 435 c 0
 300 431 301 431 305 431 c 0
 309 431 309 430 309 426 c 0
 309 422 309 422 318 422 c 0
 327 422 327 421 327 417 c 0
 327 413 328 413 332 413 c 0
 336 413 336 412 336 408 c 0
 336 404 337 404 341 404 c 0
 345 404 345 403 345 399 c 0
 345 395 346 395 350 395 c 0
 354 395 354 394 354 390 c 0
 354 386 354 386 358 386 c 0
 362 386 363 386 363 377 c 0
 363 368 363 368 367 368 c 0
 371 368 372 367 372 363 c 0
 372 359 372 359 376 359 c 0
 380 359 381 359 381 350 c 0
 381 341 381 341 385 341 c 0
 389 341 390 341 390 328 c 0x1d
 390 315 390 314 394 314 c 0
 398 314 399 314 399 296 c 0
 399 278 399 278 403 278 c 0
 407 278 408 278 408 233 c 0x1c40
 408 188 407 188 403 188 c 0
 399 188 399 188 399 175 c 0
 399 162 398 162 394 162 c 0
 390 162 390 161 390 148 c 0
 390 135 389 135 385 135 c 0
 381 135 381 135 381 126 c 0
 381 117 380 117 376 117 c 0
 372 117 372 116 372 112 c 0
 372 108 371 108 367 108 c 0
 363 108 363 107 363 103 c 0
 363 99 362 99 358 99 c 0
 354 99 354 99 354 90 c 0
 354 81 354 81 350 81 c 0
 346 81 345 80 345 76 c 0
 345 72 345 72 336 72 c 0
 327 72 327 71 327 67 c 0
 327 63 327 63 323 63 c 0
 319 63 318 62 318 58 c 0
 318 54 318 54 314 54 c 0
 310 54 309 53 309 49 c 0
 309 45 309 45 300 45 c 0
 291 45 291 44 291 40 c 0
 291 36 291 36 282 36 c 0
 273 36 273 35 273 31 c 0
 273 27 273 27 264 27 c 0
 255 27 255 26 255 22 c 0
 255 18 255 18 242 18 c 0x1d
 229 18 228 17 228 13 c 0
 228 9 228 9 197 9 c 0x2d
 166 9 166 8 166 4 c 0
 166 0 166 0 148 0 c 0x8c80
 130 0 130 0 130 4 c 0
 130 8 130 9 103 9 c 0x2c80
 76 9 76 9 76 13 c 0
 76 17 75 18 62 18 c 0
 49 18 49 18 49 22 c 0
 49 26 48 27 35 27 c 0
 22 27 22 27 22 31 c 0
 22 35 22 36 13 36 c 0
 4 36 4 36 4 121 c 0
 4 206 4 206 8 206 c 0
 12 206 13 206 13 202 c 0
 13 198 13 197 26 197 c 0
 39 197 40 197 40 193 c 0x1e
 40 189 40 188 58 188 c 0x1d
 76 188 76 188 76 184 c 0
 76 180 76 179 107 179 c 0x2d
 138 179 139 180 139 184 c 0
 139 188 139 188 152 188 c 0
 165 188 166 189 166 193 c 0
 166 197 166 197 170 197 c 0
 174 197 175 198 175 202 c 0
 175 206 175 206 179 206 c 0
 183 206 183 207 183 211 c 0
 183 215 184 215 188 215 c 0
 192 215 192 216 192 220 c 0
 192 224 193 224 197 224 c 0
 201 224 201 225 201 256 c 0
 201 287 201 287 197 287 c 0
 193 287 192 288 192 292 c 0
 192 296 192 296 188 296 c 0
 184 296 183 296 183 305 c 0
 183 314 184 314 175 314 c 0
 166 314 166 315 166 319 c 0x1cc0
 166 323 165 323 161 323 c 0
 157 323 157 324 157 328 c 0
 157 332 157 332 148 332 c 0
 139 332 139 333 139 337 c 0
 139 341 138 341 125 341 c 0
 112 341 112 342 112 346 c 0
 112 350 112 350 58 350 c 0x1d
 4 350 4 350 4 368 c 0
 4 386 4 386 8 386 c 0
 12 386 13 386 13 408 c 0
 13 430 13 431 17 431 c 0
 21 431 22 431 22 449 c 0
 22 467 22 467 26 467 c 0
 30 467 31 467 31 489 c 0
 31 511 31 512 35 512 c 0
 39 512 40 512 40 534 c 0x1e
 40 556 40 556 44 556 c 0
 48 556 49 557 49 579 c 0
 49 601 49 601 53 601 c 0
 57 601 58 602 58 624 c 0
 58 646 58 646 62 646 c 0
 66 646 67 647 67 669 c 0x1d
EndSplineSet
EndChar

StartChar: six
Encoding: 54 54 40
Width: 519
Flags: W
HStem: 0 187<210.187 305.026> 4 191<199.401 256.677 257.324 315.712> 316 4<239 242.979> 595 59<301.952 316.363> 617 33<312.75 323.999> 639 8<323.815 327>
VStem: 4 187<205.974 315.797> 8 198<193.001 244.477 247.523 249.308 250.691 363.999> 15 195<247.523 249.308 250.691 372.998> 19 198<270.002 394.998> 30 202<312.001 431.998> 30 198<303.002 425.999> 37 202<332.002 451.999> 52 198<369.002 486.998> 59 198<391.002 502.98> 70 198<421.002 532.943> 81 199<452.001 572.999> 85 198<461.002 579.999> 92 199<483.002 603.998> 96 198<492.001 611.998> 103 199<514.192 633.998> 114 199<543.938 642.815 643.185 657.728> 147 30<694.062 704.816> 151 4<705.021 709> 305 74<463.274 488.732> 309 55<476.001 492> 313 29<496 503> 316 11<502.994 506.925> 320 195<200.001 302.999>
LayerCount: 2
Fore
SplineSet
151 705 m 0x280001
 151 709 151 709 153 709 c 0
 155 709 155 709 155 707 c 0x280001
 155 705 154 705 160 705 c 0
 166 705 166 705 166 703 c 0
 166 701 165 702 171 702 c 0
 177 702 177 702 177 700 c 0x280002
 177 698 176 698 182 698 c 0
 188 698 188 698 188 696 c 0
 188 694 187 694 193 694 c 0
 199 694 199 694 199 692 c 0
 199 690 198 691 202 691 c 0
 206 691 206 691 206 689 c 0x29
 206 687 206 687 212 687 c 0
 218 687 217 687 217 685 c 0x2840
 217 683 217 683 223 683 c 0
 229 683 228 683 228 681 c 0x2810
 228 679 228 680 234 680 c 0
 240 680 239 680 239 678 c 0x2808
 239 676 239 676 245 676 c 0
 251 676 250 676 250 674 c 0x2804
 250 672 250 672 254 672 c 0
 258 672 257 672 257 670 c 0x2802
 257 668 257 669 263 669 c 0
 269 669 268 669 268 667 c 0x2801
 268 665 268 665 274 665 c 0
 280 665 280 665 280 663 c 0x280080
 280 661 279 661 285 661 c 0
 291 661 291 661 291 659 c 0x280020
 291 657 290 658 296 658 c 0
 302 658 302 658 302 656 c 0
 302 654 301 654 307 654 c 0x300008
 313 654 313 654 313 652 c 0
 313 650 312 650 316 650 c 0x28000410
 320 650 320 650 320 648 c 0x28000008
 320 646 320 647 324 647 c 0
 328 647 327 647 327 643 c 0x24000010
 327 639 327 639 325 639 c 0
 323 639 324 640 324 634 c 0
 324 628 324 628 322 628 c 0
 320 628 320 629 320 623 c 0x24000008
 320 617 320 617 318 617 c 0
 316 617 316 618 316 612 c 0
 316 606 316 606 314 606 c 0
 312 606 313 607 313 601 c 0x28000410
 313 595 313 595 311 595 c 0
 309 595 309 596 309 590 c 0x30000040
 309 584 309 584 307 584 c 0
 305 584 305 584 305 580 c 0
 305 576 305 577 303 577 c 0
 301 577 302 577 302 571 c 0x30000880
 302 565 302 566 300 566 c 0
 298 566 298 566 298 560 c 0
 298 554 298 555 296 555 c 0
 294 555 294 555 294 549 c 0x300010
 294 543 294 544 292 544 c 0
 290 544 291 544 291 538 c 0x300020
 291 532 291 533 289 533 c 0
 287 533 287 533 287 529 c 0
 287 525 287 525 285 525 c 0
 283 525 283 526 283 520 c 0x300040
 283 514 283 514 281 514 c 0
 279 514 280 515 280 509 c 0x300080
 280 503 280 503 278 503 c 0
 276 503 276 504 276 498 c 0
 276 492 276 492 274 492 c 0
 272 492 272 493 272 487 c 0
 272 481 272 481 270 481 c 0
 268 481 268 482 268 478 c 0x3001
 268 474 269 474 267 474 c 0
 265 474 265 474 265 468 c 0
 265 462 265 463 263 463 c 0
 261 463 261 463 261 457 c 0
 261 451 261 452 259 452 c 0
 257 452 257 452 257 446 c 0x3002
 257 440 258 441 256 441 c 0
 254 441 254 441 254 435 c 0
 254 429 254 430 252 430 c 0
 250 430 250 430 250 426 c 0x3004
 250 422 250 422 248 422 c 0
 246 422 246 423 246 417 c 0
 246 411 247 411 245 411 c 0
 243 411 243 412 243 406 c 0
 243 400 243 400 241 400 c 0
 239 400 239 401 239 395 c 0x3008
 239 389 239 389 237 389 c 0
 235 389 235 390 235 384 c 0
 235 378 236 378 234 378 c 0
 232 378 232 379 232 373 c 0x3020
 232 367 232 367 230 367 c 0
 228 367 228 368 228 364 c 0x3010
 228 360 228 360 226 360 c 0
 224 360 224 360 224 354 c 0
 224 348 225 349 223 349 c 0
 221 349 221 349 221 343 c 0
 221 337 221 338 219 338 c 0
 217 338 217 338 217 332 c 0x3040
 217 326 217 327 215 327 c 0
 213 327 213 327 213 321 c 0
 213 315 214 316 212 316 c 0
 210 316 210 316 210 312 c 0x3080
 210 308 210 309 208 309 c 0
 206 309 206 309 206 303 c 0x31
 206 297 206 298 204 298 c 0
 202 298 202 298 202 292 c 0
 202 286 203 287 201 287 c 0
 199 287 199 287 199 281 c 0
 199 275 199 276 197 276 c 0
 195 276 195 276 195 270 c 0
 195 264 195 264 193 264 c 0
 191 264 191 265 191 250 c 0x32
 191 235 191 235 193 235 c 0
 195 235 195 236 195 230 c 0
 195 224 195 224 197 224 c 0
 199 224 199 224 199 220 c 0
 199 216 199 217 201 217 c 0
 203 217 202 217 202 215 c 0
 202 213 202 213 204 213 c 0
 206 213 206 213 206 211 c 0x31
 206 209 206 209 208 209 c 0
 210 209 210 210 210 208 c 0x3080
 210 206 210 206 212 206 c 0
 214 206 213 206 213 204 c 0
 213 202 213 202 215 202 c 0
 217 202 217 202 217 200 c 0x3040
 217 198 217 198 219 198 c 0
 221 198 221 199 221 197 c 0
 221 195 220 195 224 195 c 0
 228 195 228 195 228 193 c 0x7010
 228 191 228 191 232 191 c 0x7020
 236 191 235 191 235 189 c 0
 235 187 236 187 243 187 c 0
 250 187 250 188 250 186 c 0xa004
 250 184 250 184 257 184 c 0xa002
 264 184 265 184 265 186 c 0
 265 188 265 187 272 187 c 0
 279 187 280 187 280 189 c 0xa00080
 280 191 279 191 285 191 c 0
 291 191 291 191 291 193 c 0xa00020
 291 195 290 195 292 195 c 0
 294 195 294 195 294 197 c 0x600010
 294 199 294 198 296 198 c 0
 298 198 298 198 298 200 c 0
 298 202 298 202 300 202 c 0
 302 202 302 202 302 204 c 0
 302 206 301 206 303 206 c 0
 305 206 305 206 305 208 c 0x60000880
 305 210 305 209 307 209 c 0
 309 209 309 209 309 211 c 0x60000040
 309 213 309 213 311 213 c 0
 313 213 313 213 313 215 c 0x60000020
 313 217 312 217 314 217 c 0
 316 217 316 216 316 220 c 0x60000010
 316 224 316 224 318 224 c 0
 320 224 320 224 320 231 c 0
 320 238 320 239 322 239 c 0
 324 239 324 239 324 252 c 0
 324 265 324 264 322 264 c 0
 320 264 320 264 320 270 c 0x60000008
 320 276 320 276 318 276 c 0
 316 276 316 275 316 279 c 0x60000010
 316 283 316 283 314 283 c 0
 312 283 313 283 313 287 c 0x60000020
 313 291 313 290 311 290 c 0
 309 290 309 290 309 292 c 0x60000040
 309 294 309 294 307 294 c 0
 305 294 305 294 305 296 c 0
 305 298 305 298 303 298 c 0
 301 298 302 297 302 299 c 0x60000880
 302 301 302 301 300 301 c 0
 298 301 298 301 298 303 c 0
 298 305 298 305 296 305 c 0
 294 305 294 305 294 307 c 0x600010
 294 309 295 309 291 309 c 0x600020
 287 309 287 308 287 310 c 0
 287 312 287 312 283 312 c 0x600040
 279 312 280 312 280 314 c 0x600080
 280 316 279 316 259 316 c 0
 239 316 239 316 239 318 c 0x6008
 239 320 239 320 241 320 c 0
 243 320 243 319 243 325 c 0
 243 331 243 331 245 331 c 0
 247 331 246 330 246 334 c 0
 246 338 246 338 248 338 c 0
 250 338 250 337 250 343 c 0x6004
 250 349 250 349 252 349 c 0
 254 349 254 349 254 353 c 0
 254 357 254 356 256 356 c 0
 258 356 257 356 257 360 c 0x6002
 257 364 257 364 259 364 c 0
 261 364 261 363 261 369 c 0
 261 375 261 375 263 375 c 0
 265 375 265 374 265 378 c 0
 265 382 265 382 267 382 c 0
 269 382 268 382 268 388 c 0x6001
 268 394 268 393 270 393 c 0
 272 393 272 393 272 397 c 0
 272 401 272 400 274 400 c 0
 276 400 276 400 276 404 c 0
 276 408 276 408 278 408 c 0
 280 408 280 407 280 413 c 0x600080
 280 419 279 419 281 419 c 0
 283 419 283 418 283 422 c 0x600040
 283 426 283 426 285 426 c 0
 287 426 287 426 287 432 c 0
 287 438 287 437 289 437 c 0
 291 437 291 437 291 441 c 0x600020
 291 445 290 445 292 445 c 0
 294 445 294 444 294 448 c 0x600010
 294 452 294 452 296 452 c 0
 298 452 298 451 298 457 c 0
 298 463 298 463 300 463 c 0
 302 463 302 463 302 467 c 0
 302 471 301 470 303 470 c 0
 305 470 305 470 305 476 c 0x60000880
 305 482 305 481 307 481 c 0
 309 481 309 481 309 485 c 0x60000040
 309 489 309 489 311 489 c 0
 313 489 313 488 313 494 c 0x60000020
 313 500 312 500 314 500 c 0
 316 500 316 499 316 503 c 0
 316 507 316 507 322 507 c 0
 328 507 327 507 327 505 c 0x60000010
 327 503 327 503 331 503 c 0
 335 503 335 503 335 501 c 0
 335 499 334 500 338 500 c 0
 342 500 342 500 342 498 c 0x60000020
 342 496 342 496 346 496 c 0
 350 496 349 496 349 494 c 0
 349 492 349 492 353 492 c 0
 357 492 357 492 357 490 c 0
 357 488 356 489 360 489 c 0
 364 489 364 489 364 487 c 0x60000040
 364 485 364 485 368 485 c 0
 372 485 371 485 371 483 c 0
 371 481 371 481 375 481 c 0
 379 481 379 481 379 479 c 0x60000080
 379 477 378 478 382 478 c 0
 386 478 386 478 386 476 c 0
 386 474 386 474 388 474 c 0
 390 474 390 474 390 472 c 0
 390 470 389 470 393 470 c 0
 397 470 397 470 397 468 c 0
 397 466 397 467 399 467 c 0
 401 467 401 467 401 465 c 0
 401 463 400 463 404 463 c 0
 408 463 408 463 408 461 c 0
 408 459 408 459 410 459 c 0
 412 459 412 459 412 457 c 0
 412 455 411 456 415 456 c 0
 419 456 419 456 419 454 c 0
 419 452 419 452 421 452 c 0
 423 452 423 452 423 450 c 0
 423 448 423 448 425 448 c 0
 427 448 426 448 426 446 c 0
 426 444 426 445 428 445 c 0
 430 445 430 445 430 443 c 0
 430 441 430 441 434 441 c 0
 438 441 437 441 437 439 c 0
 437 437 437 437 439 437 c 0
 441 437 441 437 441 435 c 0
 441 433 441 433 443 433 c 0
 445 433 445 434 445 432 c 0
 445 430 445 430 447 430 c 0
 449 430 449 430 449 428 c 0
 449 426 448 426 450 426 c 0
 452 426 452 426 452 424 c 0
 452 422 452 422 454 422 c 0
 456 422 456 423 456 421 c 0
 456 419 456 419 458 419 c 0
 460 419 460 419 460 417 c 0
 460 415 459 415 461 415 c 0
 463 415 463 415 463 413 c 0
 463 411 463 411 465 411 c 0
 467 411 467 412 467 408 c 0
 467 404 467 404 469 404 c 0
 471 404 471 404 471 402 c 0
 471 400 470 400 472 400 c 0
 474 400 474 401 474 399 c 0
 474 397 474 397 476 397 c 0
 478 397 478 397 478 393 c 0
 478 389 478 389 480 389 c 0
 482 389 482 390 482 386 c 0
 482 382 481 382 483 382 c 0
 485 382 485 382 485 380 c 0
 485 378 485 378 487 378 c 0
 489 378 489 379 489 375 c 0
 489 371 489 371 491 371 c 0
 493 371 493 371 493 367 c 0
 493 363 492 364 494 364 c 0
 496 364 496 364 496 358 c 0
 496 352 496 353 498 353 c 0
 500 353 500 353 500 349 c 0
 500 345 500 345 502 345 c 0
 504 345 504 345 504 338 c 0
 504 331 503 331 505 331 c 0
 507 331 507 330 507 323 c 0
 507 316 507 316 509 316 c 0
 511 316 511 316 511 305 c 0
 511 294 511 294 513 294 c 0
 515 294 515 294 515 259 c 0x60000008
 515 224 515 224 513 224 c 0
 511 224 511 224 511 211 c 0
 511 198 511 198 509 198 c 0
 507 198 507 198 507 191 c 0
 507 184 507 184 505 184 c 0
 503 184 504 184 504 178 c 0
 504 172 504 173 502 173 c 0
 500 173 500 173 500 167 c 0
 500 161 500 162 498 162 c 0
 496 162 496 162 496 158 c 0
 496 154 496 154 494 154 c 0
 492 154 493 155 493 149 c 0
 493 143 493 143 491 143 c 0
 489 143 489 144 489 140 c 0
 489 136 489 136 487 136 c 0
 485 136 485 136 485 134 c 0
 485 132 485 132 483 132 c 0
 481 132 482 133 482 129 c 0
 482 125 482 125 480 125 c 0
 478 125 478 125 478 121 c 0
 478 117 478 118 476 118 c 0
 474 118 474 118 474 116 c 0
 474 114 474 114 472 114 c 0
 470 114 471 114 471 110 c 0
 471 106 471 107 469 107 c 0
 467 107 467 107 467 105 c 0
 467 103 467 103 465 103 c 0
 463 103 463 103 463 101 c 0
 463 99 463 99 461 99 c 0
 459 99 460 100 460 96 c 0
 460 92 460 92 458 92 c 0
 456 92 456 92 456 90 c 0
 456 88 456 88 454 88 c 0
 452 88 452 88 452 86 c 0
 452 84 452 84 450 84 c 0
 448 84 449 85 449 83 c 0
 449 81 449 81 447 81 c 0
 445 81 445 81 445 79 c 0
 445 77 445 77 443 77 c 0
 441 77 441 77 441 75 c 0
 441 73 441 73 439 73 c 0
 437 73 437 74 437 72 c 0
 437 70 438 70 436 70 c 0
 434 70 434 70 434 68 c 0
 434 66 434 66 432 66 c 0
 430 66 430 66 430 64 c 0
 430 62 430 62 428 62 c 0
 426 62 426 63 426 61 c 0
 426 59 427 59 425 59 c 0
 423 59 423 59 423 57 c 0
 423 55 423 55 419 55 c 0
 415 55 415 55 415 53 c 0
 415 51 416 51 414 51 c 0
 412 51 412 52 412 50 c 0
 412 48 412 48 410 48 c 0
 408 48 408 48 408 46 c 0
 408 44 408 44 404 44 c 0
 400 44 401 44 401 42 c 0
 401 40 401 40 399 40 c 0
 397 40 397 41 397 39 c 0
 397 37 397 37 393 37 c 0
 389 37 390 37 390 35 c 0
 390 33 390 33 388 33 c 0
 386 33 386 33 386 31 c 0
 386 29 386 29 382 29 c 0
 378 29 379 30 379 28 c 0x60000080
 379 26 379 26 375 26 c 0
 371 26 371 26 371 24 c 0
 371 22 372 22 368 22 c 0
 364 22 364 22 364 20 c 0x60000040
 364 18 364 18 358 18 c 0
 352 18 353 19 353 17 c 0
 353 15 353 15 347 15 c 0
 341 15 342 15 342 13 c 0x60000020
 342 11 342 11 336 11 c 0
 330 11 331 11 331 9 c 0
 331 7 331 7 324 7 c 0
 317 7 316 8 316 6 c 0x60000010
 316 4 316 4 305 4 c 0x60000080
 294 4 294 4 294 2 c 0
 294 0 294 0 259 0 c 0xa0001080
 224 0 224 0 224 2 c 0
 224 4 224 4 213 4 c 0
 202 4 202 4 202 6 c 0
 202 8 202 7 195 7 c 0
 188 7 188 7 188 9 c 0
 188 11 188 11 182 11 c 0
 176 11 177 11 177 13 c 0x600002
 177 15 177 15 171 15 c 0
 165 15 166 15 166 17 c 0
 166 19 166 18 162 18 c 0
 158 18 158 18 158 20 c 0
 158 22 159 22 155 22 c 0
 151 22 151 22 151 24 c 0x600001
 151 26 151 26 147 26 c 0x600002
 143 26 144 26 144 28 c 0
 144 30 144 29 140 29 c 0
 136 29 136 29 136 31 c 0
 136 33 137 33 133 33 c 0
 129 33 129 33 129 35 c 0
 129 37 129 37 127 37 c 0
 125 37 125 37 125 39 c 0
 125 41 126 40 122 40 c 0
 118 40 118 40 118 42 c 0
 118 44 118 44 116 44 c 0
 114 44 114 44 114 46 c 0x600004
 114 48 115 48 111 48 c 0
 107 48 107 48 107 50 c 0
 107 52 107 51 105 51 c 0
 103 51 103 51 103 53 c 0x600008
 103 55 103 55 101 55 c 0
 99 55 100 55 100 57 c 0
 100 59 100 59 98 59 c 0
 96 59 96 59 96 61 c 0x600010
 96 63 96 62 94 62 c 0
 92 62 92 62 92 64 c 0x600020
 92 66 92 66 88 66 c 0
 84 66 85 66 85 68 c 0x600040
 85 70 85 70 83 70 c 0
 81 70 81 70 81 72 c 0x600080
 81 74 81 73 79 73 c 0
 77 73 77 73 77 75 c 0
 77 77 78 77 76 77 c 0
 74 77 74 77 74 79 c 0
 74 81 74 81 72 81 c 0
 70 81 70 81 70 83 c 0x6001
 70 85 70 84 68 84 c 0
 66 84 66 84 66 88 c 0
 66 92 67 92 65 92 c 0
 63 92 63 92 63 94 c 0
 63 96 63 96 61 96 c 0
 59 96 59 95 59 97 c 0x6002
 59 99 59 99 57 99 c 0
 55 99 55 99 55 101 c 0
 55 103 56 103 54 103 c 0
 52 103 52 103 52 107 c 0x6004
 52 111 52 110 50 110 c 0
 48 110 48 110 48 112 c 0
 48 114 48 114 46 114 c 0
 44 114 44 114 44 116 c 0
 44 118 45 118 43 118 c 0
 41 118 41 117 41 121 c 0
 41 125 41 125 39 125 c 0
 37 125 37 125 37 129 c 0x6008
 37 133 37 132 35 132 c 0
 33 132 33 132 33 134 c 0
 33 136 34 136 32 136 c 0
 30 136 30 136 30 140 c 0x6010
 30 144 30 143 28 143 c 0
 26 143 26 143 26 147 c 0
 26 151 26 151 24 151 c 0
 22 151 22 150 22 156 c 0
 22 162 23 162 21 162 c 0
 19 162 19 161 19 165 c 0x6040
 19 169 19 169 17 169 c 0
 15 169 15 168 15 174 c 0
 15 180 15 180 13 180 c 0
 11 180 11 180 11 187 c 0xa080
 11 194 12 195 10 195 c 0
 8 195 8 195 8 204 c 0x61
 8 213 8 213 6 213 c 0
 4 213 4 213 4 246 c 0x62
 4 279 4 279 6 279 c 0
 8 279 8 279 8 288 c 0x61
 8 297 8 298 10 298 c 0
 12 298 11 298 11 305 c 0
 11 312 11 312 13 312 c 0
 15 312 15 313 15 320 c 0x6080
 15 327 15 327 17 327 c 0
 19 327 19 327 19 334 c 0x6040
 19 341 19 342 21 342 c 0
 23 342 22 341 22 347 c 0
 22 353 22 353 24 353 c 0
 26 353 26 352 26 358 c 0
 26 364 26 364 28 364 c 0
 30 364 30 363 30 369 c 0x6020
 30 375 30 375 32 375 c 0
 34 375 33 374 33 380 c 0
 33 386 33 386 35 386 c 0
 37 386 37 385 37 391 c 0x6008
 37 397 37 397 39 397 c 0
 41 397 41 396 41 402 c 0
 41 408 41 408 43 408 c 0
 45 408 44 407 44 411 c 0
 44 415 44 415 46 415 c 0
 48 415 48 415 48 421 c 0
 48 427 48 426 50 426 c 0
 52 426 52 426 52 432 c 0x6004
 52 438 52 437 54 437 c 0
 56 437 55 437 55 443 c 0
 55 449 55 448 57 448 c 0
 59 448 59 448 59 452 c 0x6002
 59 456 59 456 61 456 c 0
 63 456 63 455 63 461 c 0
 63 467 63 467 65 467 c 0
 67 467 66 466 66 472 c 0
 66 478 66 478 68 478 c 0
 70 478 70 477 70 483 c 0x6001
 70 489 70 489 72 489 c 0
 74 489 74 488 74 492 c 0
 74 496 74 496 76 496 c 0
 78 496 77 495 77 501 c 0
 77 507 77 507 79 507 c 0
 81 507 81 506 81 512 c 0x600080
 81 518 81 518 83 518 c 0
 85 518 85 517 85 523 c 0x600040
 85 529 85 529 87 529 c 0
 89 529 88 529 88 533 c 0
 88 537 88 536 90 536 c 0
 92 536 92 536 92 542 c 0x600020
 92 548 92 547 94 547 c 0
 96 547 96 547 96 553 c 0x600010
 96 559 96 558 98 558 c 0
 100 558 100 558 100 564 c 0
 100 570 99 569 101 569 c 0
 103 569 103 569 103 573 c 0x600008
 103 577 103 577 105 577 c 0
 107 577 107 576 107 582 c 0
 107 588 107 588 109 588 c 0
 111 588 111 587 111 593 c 0
 111 599 110 599 112 599 c 0
 114 599 114 598 114 604 c 0
 114 610 114 610 116 610 c 0
 118 610 118 609 118 615 c 0
 118 621 118 621 120 621 c 0
 122 621 122 621 122 625 c 0
 122 629 121 628 123 628 c 0
 125 628 125 628 125 634 c 0
 125 640 125 639 127 639 c 0x640004
 129 639 129 639 129 645 c 0
 129 651 129 650 131 650 c 0
 133 650 133 650 133 656 c 0
 133 662 132 661 134 661 c 0
 136 661 136 661 136 665 c 0
 136 669 136 669 138 669 c 0
 140 669 140 668 140 674 c 0
 140 680 140 680 142 680 c 0
 144 680 144 679 144 685 c 0
 144 691 143 691 145 691 c 0
 147 691 147 690 147 696 c 0x280002
 147 702 147 702 149 702 c 0
 151 702 151 701 151 705 c 0x280001
EndSplineSet
EndChar

StartChar: seven
Encoding: 55 55 41
Width: 466
Flags: W
HStem: 18 27<67 76>
VStem: 85 206<31.6006 161.803> 94 206<54.1839 187.995> 103 206<81.1084 214.743> 121 197<135.257 268.983> 130 197<162.257 295.892> 139 197<188.831 332> 148 197<215.197 359> 157 197<242.108 386> 166 197<269.015 412.892> 175 197<305.108 439.803> 183 198<332.035 466.169> 192 198<359.011 484.169>
LayerCount: 2
Fore
SplineSet
4 687 m 0x8008
 4 691 4 691 233 691 c 0
 462 691 462 691 462 678 c 0
 462 665 461 664 457 664 c 0
 453 664 453 664 453 651 c 0
 453 638 452 637 448 637 c 0
 444 637 444 637 444 619 c 0
 444 601 443 601 439 601 c 0
 435 601 435 601 435 588 c 0
 435 575 434 574 430 574 c 0
 426 574 426 574 426 561 c 0
 426 548 425 547 421 547 c 0
 417 547 417 547 417 529 c 0
 417 511 416 512 412 512 c 0
 408 512 408 511 408 498 c 0
 408 485 407 485 403 485 c 0
 399 485 399 485 399 467 c 0
 399 449 398 449 394 449 c 0
 390 449 390 448 390 435 c 0x8008
 390 422 389 422 385 422 c 0
 381 422 381 422 381 404 c 0x8010
 381 386 380 386 376 386 c 0
 372 386 372 385 372 372 c 0x8020
 372 359 371 359 367 359 c 0
 363 359 363 359 363 346 c 0x8040
 363 333 362 332 358 332 c 0
 354 332 354 332 354 314 c 0x8080
 354 296 354 296 350 296 c 0
 346 296 345 296 345 283 c 0x81
 345 270 345 269 341 269 c 0
 337 269 336 269 336 251 c 0x82
 336 233 336 233 332 233 c 0
 328 233 327 233 327 220 c 0x84
 327 207 327 206 323 206 c 0
 319 206 318 206 318 188 c 0x88
 318 170 318 171 314 171 c 0
 310 171 309 170 309 157 c 0x90
 309 144 309 144 305 144 c 0
 301 144 300 143 300 130 c 0xa0
 300 117 300 117 296 117 c 0
 292 117 291 117 291 99 c 0xc0
 291 81 291 81 287 81 c 0
 283 81 282 80 282 67 c 0
 282 54 282 54 278 54 c 0
 274 54 273 53 273 40 c 0
 273 27 273 27 269 27 c 0
 265 27 264 26 264 22 c 0
 264 18 265 18 166 18 c 0x8040
 67 18 67 18 67 31 c 0
 67 44 67 45 71 45 c 0
 75 45 76 45 76 58 c 0
 76 71 76 72 80 72 c 0
 84 72 85 72 85 90 c 0xc0
 85 108 85 108 89 108 c 0
 93 108 94 108 94 121 c 0xa0
 94 134 94 135 98 135 c 0
 102 135 103 135 103 148 c 0x90
 103 161 103 162 107 162 c 0
 111 162 112 162 112 175 c 0
 112 188 112 188 116 188 c 0
 120 188 121 189 121 202 c 0x88
 121 215 121 215 125 215 c 0
 129 215 130 216 130 229 c 0x84
 130 242 130 242 134 242 c 0
 138 242 139 243 139 256 c 0x82
 139 269 139 269 143 269 c 0
 147 269 148 269 148 287 c 0x81
 148 305 148 305 152 305 c 0
 156 305 157 306 157 319 c 0x8080
 157 332 157 332 161 332 c 0
 165 332 166 333 166 346 c 0x8040
 166 359 166 359 170 359 c 0
 174 359 175 359 175 372 c 0x8020
 175 385 175 386 179 386 c 0
 183 386 183 386 183 399 c 0x8010
 183 412 184 413 188 413 c 0
 192 413 192 413 192 426 c 0
 192 439 193 440 197 440 c 0
 201 440 201 440 201 453 c 0
 201 466 202 467 206 467 c 0
 210 467 210 467 210 485 c 0
 210 503 211 503 112 503 c 2
 13 503 l 1
 13 592 l 2
 13 682 12 682 8 682 c 0
 4 682 4 683 4 687 c 0x8008
EndSplineSet
EndChar

StartChar: eight
Encoding: 56 56 42
Width: 493
Flags: W
HStem: 0 153<183.003 299.689> 9 153<175.037 241.399 242.6 244.339 247.661 308.598> 233 9<480.5 488.993> 314 144<192.418 290.938> 565 144<201.305 290.663>
VStem: 4 162<171.003 295.792> 13 170<162.108 231.339 234.661 235.738 240.261 305.099> 40 143<467.16 546.973> 228 27<1.52588e-05 8.75085> 300 144<467.274 555.545> 318 162<171 232.169 233.831 237.815 238.185 295.598>
LayerCount: 2
Fore
SplineSet
192 704 m 0xbc80
 192 708 192 709 246 709 c 0
 300 709 300 708 300 704 c 0
 300 700 301 700 314 700 c 0
 327 700 327 700 327 696 c 0
 327 692 327 691 336 691 c 0
 345 691 345 691 345 687 c 0
 345 683 345 682 354 682 c 0
 363 682 363 682 363 678 c 0
 363 674 363 673 367 673 c 0
 371 673 372 673 372 669 c 0
 372 665 372 664 376 664 c 0
 380 664 381 664 381 660 c 0
 381 656 381 655 385 655 c 0
 389 655 390 655 390 651 c 0
 390 647 390 646 394 646 c 0
 398 646 399 646 399 642 c 0
 399 638 399 637 403 637 c 0
 407 637 408 637 408 633 c 0
 408 629 408 628 412 628 c 0
 416 628 417 628 417 624 c 0
 417 620 417 619 421 619 c 0
 425 619 426 619 426 610 c 0
 426 601 426 601 430 601 c 0
 434 601 435 601 435 588 c 0
 435 575 435 574 439 574 c 0
 443 574 444 574 444 516 c 0
 444 458 443 458 439 458 c 0
 435 458 435 458 435 449 c 0
 435 440 434 440 430 440 c 0
 426 440 426 440 426 431 c 0
 426 422 425 422 421 422 c 0
 417 422 417 421 417 408 c 0
 417 395 417 395 421 395 c 0
 425 395 426 394 426 390 c 0
 426 386 426 386 430 386 c 0
 434 386 435 385 435 381 c 0
 435 377 435 377 439 377 c 0
 443 377 444 377 444 368 c 0xbcc0
 444 359 444 359 448 359 c 0
 452 359 453 358 453 354 c 0
 453 350 453 350 457 350 c 0
 461 350 462 350 462 341 c 0
 462 332 462 332 466 332 c 0
 470 332 471 332 471 319 c 0
 471 306 471 305 475 305 c 0
 479 305 480 305 480 274 c 0
 480 243 480 242 484 242 c 0
 488 242 489 242 489 238 c 0
 489 234 488 233 484 233 c 0
 480 233 480 233 480 202 c 0xb8a0
 480 171 479 171 475 171 c 0
 471 171 471 170 471 157 c 0
 471 144 470 144 466 144 c 0
 462 144 462 144 462 135 c 0
 462 126 461 126 457 126 c 0
 453 126 453 126 453 117 c 0
 453 108 452 108 448 108 c 0
 444 108 444 107 444 103 c 0xb8c0
 444 99 443 99 439 99 c 0
 435 99 435 98 435 94 c 0
 435 90 434 90 430 90 c 0
 426 90 426 89 426 85 c 0
 426 81 425 81 421 81 c 0
 417 81 417 80 417 76 c 0
 417 72 416 72 412 72 c 0
 408 72 408 71 408 67 c 0
 408 63 407 63 403 63 c 0
 399 63 399 62 399 58 c 0
 399 54 398 54 394 54 c 0
 390 54 390 53 390 49 c 0
 390 45 389 45 385 45 c 0
 381 45 381 44 381 40 c 0
 381 36 381 36 372 36 c 0
 363 36 363 35 363 31 c 0
 363 27 363 27 354 27 c 0
 345 27 345 26 345 22 c 0
 345 18 345 18 332 18 c 0
 319 18 318 17 318 13 c 0
 318 9 318 9 287 9 c 0x78a0
 256 9 255 8 255 4 c 0
 255 0 255 0 242 0 c 0xb8a0
 229 0 228 0 228 4 c 0
 228 8 228 9 201 9 c 0
 174 9 175 9 175 13 c 0
 175 17 174 18 161 18 c 0
 148 18 148 18 148 22 c 0
 148 26 148 27 139 27 c 0
 130 27 130 27 130 31 c 0
 130 35 130 36 121 36 c 0
 112 36 112 36 112 40 c 0
 112 44 111 45 107 45 c 0
 103 45 103 45 103 49 c 0
 103 53 103 54 94 54 c 0
 85 54 85 54 85 58 c 0
 85 62 84 63 80 63 c 0
 76 63 76 63 76 67 c 0
 76 71 75 72 71 72 c 0
 67 72 67 72 67 76 c 0
 67 80 66 81 62 81 c 0
 58 81 58 81 58 85 c 0
 58 89 57 90 53 90 c 0
 49 90 49 90 49 99 c 0
 49 108 48 108 44 108 c 0
 40 108 40 108 40 112 c 0x79a0
 40 116 39 117 35 117 c 0
 31 117 31 117 31 126 c 0
 31 135 30 135 26 135 c 0
 22 135 22 135 22 144 c 0
 22 153 21 153 17 153 c 0
 13 153 13 153 13 171 c 0xba80
 13 189 12 188 8 188 c 0
 4 188 4 189 4 238 c 0xbc80
 4 287 4 287 8 287 c 0
 12 287 13 287 13 305 c 0xba80
 13 323 13 323 17 323 c 0
 21 323 22 323 22 332 c 0
 22 341 22 341 26 341 c 0
 30 341 31 341 31 350 c 0
 31 359 31 359 35 359 c 0
 39 359 40 359 40 363 c 0
 40 367 40 368 44 368 c 0
 48 368 49 368 49 372 c 0
 49 376 49 377 53 377 c 0
 57 377 58 377 58 381 c 0
 58 385 58 386 62 386 c 0
 66 386 67 386 67 395 c 0
 67 404 67 404 71 404 c 0
 75 404 76 404 76 408 c 0
 76 412 75 413 71 413 c 0
 67 413 67 413 67 422 c 0
 67 431 66 431 62 431 c 0
 58 431 58 431 58 440 c 0
 58 449 57 449 53 449 c 0
 49 449 49 449 49 462 c 0
 49 475 48 476 44 476 c 0
 40 476 40 476 40 516 c 0xb980
 40 556 40 556 44 556 c 0
 48 556 49 557 49 570 c 0
 49 583 49 583 53 583 c 0
 57 583 58 584 58 597 c 0
 58 610 58 610 62 610 c 0
 66 610 67 611 67 615 c 0
 67 619 67 619 71 619 c 0
 75 619 76 619 76 628 c 0
 76 637 76 637 80 637 c 0
 84 637 85 638 85 642 c 0
 85 646 85 646 89 646 c 0
 93 646 94 647 94 651 c 0
 94 655 94 655 98 655 c 0
 102 655 103 656 103 660 c 0
 103 664 103 664 107 664 c 0
 111 664 112 665 112 669 c 0
 112 673 112 673 121 673 c 0
 130 673 130 674 130 678 c 0
 130 682 130 682 134 682 c 0
 138 682 139 683 139 687 c 0
 139 691 139 691 152 691 c 0
 165 691 166 692 166 696 c 0
 166 700 166 700 179 700 c 0
 192 700 192 700 192 704 c 0xbc80
264 561 m 0
 264 565 264 565 242 565 c 0
 220 565 219 565 219 561 c 0
 219 557 219 556 215 556 c 0
 211 556 210 556 210 552 c 0
 210 548 210 547 206 547 c 0
 202 547 201 547 201 543 c 0
 201 539 201 538 197 538 c 0
 193 538 192 538 192 529 c 0
 192 520 192 521 188 521 c 0
 184 521 183 521 183 512 c 0x39c0
 183 503 184 503 188 503 c 0
 192 503 192 502 192 489 c 0
 192 476 193 476 197 476 c 0
 201 476 201 475 201 471 c 0
 201 467 201 467 210 467 c 0
 219 467 219 466 219 462 c 0
 219 458 220 458 242 458 c 0
 264 458 264 458 264 462 c 0
 264 466 264 467 273 467 c 0
 282 467 282 467 282 471 c 0
 282 475 283 476 287 476 c 0
 291 476 291 476 291 485 c 0
 291 494 292 494 296 494 c 0
 300 494 300 494 300 512 c 0
 300 530 300 529 296 529 c 0
 292 529 291 529 291 538 c 0
 291 547 291 547 287 547 c 0
 283 547 282 548 282 552 c 0
 282 556 282 556 273 556 c 0
 264 556 264 557 264 561 c 0
273 310 m 0
 273 314 273 314 242 314 c 0
 211 314 210 314 210 310 c 0
 210 306 210 305 201 305 c 0
 192 305 192 305 192 301 c 0
 192 297 192 296 188 296 c 0
 184 296 183 296 183 292 c 0x7ac0
 183 288 183 287 179 287 c 0
 175 287 175 287 175 278 c 0
 175 269 174 269 170 269 c 0
 166 269 166 269 166 233 c 0x7c80
 166 197 166 197 170 197 c 0
 174 197 175 197 175 188 c 0
 175 179 175 179 179 179 c 0
 183 179 183 179 183 175 c 0
 183 171 184 171 188 171 c 0
 192 171 192 170 192 166 c 0
 192 162 192 162 201 162 c 0x7a80
 210 162 210 161 210 157 c 0
 210 153 210 153 246 153 c 0xba80
 282 153 282 153 282 157 c 0
 282 161 283 162 287 162 c 0
 291 162 291 162 291 166 c 0
 291 170 292 171 296 171 c 0
 300 171 300 171 300 175 c 0x7ac0
 300 179 301 179 305 179 c 0
 309 179 309 180 309 184 c 0
 309 188 310 188 314 188 c 0
 318 188 318 189 318 202 c 0
 318 215 319 215 323 215 c 0
 327 215 327 215 327 233 c 0
 327 251 327 251 323 251 c 0
 319 251 318 252 318 265 c 0x78a0
 318 278 318 278 314 278 c 0
 310 278 309 279 309 283 c 0
 309 287 309 287 305 287 c 0
 301 287 300 288 300 292 c 0
 300 296 300 296 296 296 c 0
 292 296 291 297 291 301 c 0
 291 305 291 305 282 305 c 0
 273 305 273 306 273 310 c 0
EndSplineSet
EndChar

StartChar: nine
Encoding: 57 57 43
Width: 519
Flags: W
HStem: 0 21G<365 367> 0 21G<365 367> 55 59<202.206 216.981> 59 33<199 206> 62 8<191 195> 500 202<199.039 217 261.508 323.969> 522 187<213.113 309.026>
VStem: 4 195<406.001 510.726> 30 224<299.001 385.999> 118 99<230.001 258.999> 140 73<219.001 243.999> 155 55<209.278 231.227> 177 29<202.386 217.138> 191 11<202 206.037> 199 198<51.2742 65.8154 66.1846 144.998> 199 191<51.2742 65.8154 66.1846 126.998> 202 199<51.2742 65.8154 66.1846 153.862> 213 199<66.1846 183.808> 217 198<75.0018 190.98> 228 198<108.002 224.034> 232 198<118.001 236.998> 239 198<138.002 253.045> 250 199<172.95 291.998> 250 22<705.008 709> 254 198<178.002 298.998> 261 199<202.192 322.981> 268 199<219.002 337.808> 276 198<241.002 361.998> 280 198<257.057 374.998> 287 198<272.001 382> 291 198<286.955 382> 298 198<303.002 382> 309 195<332.002 456.585 457.416 457.662> 313 62<11.0195 26.3303> 320 191<366.002 456.585 457.416 508.999> 327 188<430 487.926> 342 29<4.18386 14.9375> 364 4<1.52588e-05 3.93896>
LayerCount: 2
Fore
SplineSet
250 707 m 0x040001
 250 709 250 709 261 709 c 0x02000040
 272 709 272 709 272 707 c 0
 272 705 272 705 289 705 c 0
 306 705 305 705 305 703 c 0
 305 701 305 702 314 702 c 0
 323 702 324 702 324 700 c 0
 324 698 323 698 329 698 c 0
 335 698 335 698 335 696 c 0
 335 694 334 694 340 694 c 0
 346 694 346 694 346 692 c 0
 346 690 345 691 351 691 c 0
 357 691 357 691 357 689 c 0
 357 687 356 687 360 687 c 0
 364 687 364 687 364 685 c 0
 364 683 364 683 368 683 c 0x0400010004
 372 683 371 683 371 681 c 0x0400000008
 371 679 371 680 375 680 c 0x0400000040
 379 680 379 680 379 678 c 0
 379 676 378 676 382 676 c 0
 386 676 386 676 386 674 c 0
 386 672 386 672 388 672 c 0
 390 672 390 672 390 670 c 0x0401
 390 668 389 669 393 669 c 0
 397 669 397 669 397 667 c 0x0402
 397 665 397 665 399 665 c 0
 401 665 401 665 401 663 c 0x040080
 401 661 400 661 404 661 c 0
 408 661 408 661 408 659 c 0
 408 657 408 658 410 658 c 0
 412 658 412 658 412 656 c 0x040040
 412 654 412 654 414 654 c 0
 416 654 415 654 415 652 c 0x040020
 415 650 415 650 417 650 c 0
 419 650 419 650 419 648 c 0
 419 646 419 647 423 647 c 0
 427 647 426 647 426 645 c 0x040010
 426 643 426 643 428 643 c 0
 430 643 430 643 430 641 c 0x040008
 430 639 430 639 432 639 c 0
 434 639 434 639 434 637 c 0
 434 635 434 636 436 636 c 0
 438 636 437 636 437 634 c 0x040004
 437 632 437 632 439 632 c 0
 441 632 441 632 441 630 c 0
 441 628 441 628 443 628 c 0
 445 628 445 628 445 626 c 0
 445 624 445 625 447 625 c 0
 449 625 449 625 449 623 c 0x040002
 449 621 448 621 450 621 c 0
 452 621 452 621 452 619 c 0x04000080
 452 617 452 617 454 617 c 0
 456 617 456 617 456 615 c 0
 456 613 456 613 458 613 c 0
 460 613 460 614 460 610 c 0x04000040
 460 606 459 606 461 606 c 0
 463 606 463 606 463 604 c 0
 463 602 463 602 465 602 c 0
 467 602 467 603 467 601 c 0x04000020
 467 599 467 599 469 599 c 0
 471 599 471 599 471 595 c 0
 471 591 470 591 472 591 c 0
 474 591 474 592 474 590 c 0x04000010
 474 588 474 588 476 588 c 0
 478 588 478 588 478 584 c 0x04000008
 478 580 478 580 480 580 c 0
 482 580 482 581 482 579 c 0
 482 577 481 577 483 577 c 0
 485 577 485 577 485 573 c 0x04000004
 485 569 485 569 487 569 c 0
 489 569 489 570 489 566 c 0x04000002
 489 562 489 562 491 562 c 0
 493 562 493 562 493 558 c 0
 493 554 492 555 494 555 c 0
 496 555 496 555 496 551 c 0x04000001
 496 547 496 547 498 547 c 0
 500 547 500 548 500 542 c 0
 500 536 500 536 502 536 c 0
 504 536 504 537 504 531 c 0x0400000080
 504 525 503 525 505 525 c 0
 507 525 507 525 507 518 c 0
 507 511 507 511 509 511 c 0
 511 511 511 511 511 500 c 0x0400000020
 511 489 511 489 513 489 c 0
 515 489 515 488 515 459 c 0x0400000010
 515 430 515 430 513 430 c 0
 511 430 511 430 511 421 c 0x0400000020
 511 412 511 411 509 411 c 0
 507 411 507 411 507 404 c 0
 507 397 507 397 505 397 c 0
 503 397 504 396 504 389 c 0x0400000080
 504 382 504 382 502 382 c 0
 500 382 500 382 500 375 c 0
 500 368 500 367 498 367 c 0
 496 367 496 368 496 362 c 0x04000001
 496 356 496 356 494 356 c 0
 492 356 493 357 493 351 c 0
 493 345 493 345 491 345 c 0
 489 345 489 346 489 340 c 0x04000002
 489 334 489 334 487 334 c 0
 485 334 485 335 485 329 c 0x04000004
 485 323 485 323 483 323 c 0
 481 323 482 324 482 318 c 0
 482 312 482 312 480 312 c 0
 478 312 478 313 478 309 c 0x04000008
 478 305 478 305 476 305 c 0
 474 305 474 305 474 299 c 0x04000010
 474 293 474 294 472 294 c 0
 470 294 471 294 471 288 c 0
 471 282 471 283 469 283 c 0
 467 283 467 283 467 277 c 0x04000020
 467 271 467 272 465 272 c 0
 463 272 463 272 463 268 c 0
 463 264 463 264 461 264 c 0
 459 264 460 265 460 259 c 0x04000040
 460 253 460 253 458 253 c 0
 456 253 456 254 456 248 c 0
 456 242 456 242 454 242 c 0
 452 242 452 243 452 237 c 0x04000080
 452 231 452 231 450 231 c 0
 448 231 449 232 449 228 c 0x040002
 449 224 449 224 447 224 c 0
 445 224 445 225 445 219 c 0
 445 213 445 213 443 213 c 0
 441 213 441 214 441 208 c 0
 441 202 441 202 439 202 c 0
 437 202 437 203 437 197 c 0x040004
 437 191 438 191 436 191 c 0
 434 191 434 192 434 186 c 0
 434 180 434 180 432 180 c 0
 430 180 430 180 430 176 c 0x040008
 430 172 430 173 428 173 c 0
 426 173 426 173 426 167 c 0x040010
 426 161 427 162 425 162 c 0
 423 162 423 162 423 156 c 0
 423 150 423 151 421 151 c 0
 419 151 419 151 419 145 c 0
 419 139 419 140 417 140 c 0
 415 140 415 140 415 136 c 0x040020
 415 132 416 132 414 132 c 0
 412 132 412 133 412 127 c 0x040040
 412 121 412 121 410 121 c 0
 408 121 408 122 408 116 c 0
 408 110 408 110 406 110 c 0
 404 110 404 111 404 105 c 0
 404 99 405 99 403 99 c 0
 401 99 401 100 401 94 c 0x040080
 401 88 401 88 399 88 c 0
 397 88 397 88 397 84 c 0x0402
 397 80 397 81 395 81 c 0
 393 81 393 81 393 75 c 0
 393 69 394 70 392 70 c 0
 390 70 390 70 390 64 c 0x0c01
 390 58 390 59 388 59 c 0
 386 59 386 59 386 53 c 0
 386 47 386 48 384 48 c 0
 382 48 382 48 382 44 c 0
 382 40 383 40 381 40 c 0
 379 40 379 41 379 35 c 0
 379 29 379 29 377 29 c 0
 375 29 375 30 375 24 c 0x1000000040
 375 18 375 18 373 18 c 0
 371 18 371 19 371 13 c 0x1000000008
 371 7 372 7 370 7 c 0
 368 7 368 8 368 4 c 0
 368 0 368 0 366 0 c 0
 364 0 364 0 364 2 c 0x9000000004
 364 4 364 4 358 4 c 0
 352 4 353 4 353 6 c 0
 353 8 353 7 347 7 c 0
 341 7 342 7 342 9 c 0x9000000008
 342 11 342 11 336 11 c 0
 330 11 331 11 331 13 c 0
 331 15 331 15 325 15 c 0
 319 15 320 15 320 17 c 0x9000000020
 320 19 320 18 316 18 c 0
 312 18 313 18 313 20 c 0x9000000040
 313 22 313 22 307 22 c 0
 301 22 302 22 302 24 c 0
 302 26 302 26 296 26 c 0
 290 26 291 26 291 28 c 0x90000002
 291 30 291 29 285 29 c 0
 279 29 280 29 280 31 c 0x90000008
 280 33 280 33 274 33 c 0
 268 33 268 33 268 35 c 0x90000020
 268 37 269 37 265 37 c 0
 261 37 261 37 261 39 c 0x90000040
 261 41 262 40 256 40 c 0
 250 40 250 40 250 42 c 0x900001
 250 44 251 44 245 44 c 0
 239 44 239 44 239 46 c 0x900004
 239 48 240 48 234 48 c 0
 228 48 228 48 228 50 c 0x900010
 228 52 229 51 223 51 c 0
 217 51 217 51 217 53 c 0
 217 55 218 55 212 55 c 0
 206 55 206 55 206 57 c 0xa00820
 206 59 206 59 202 59 c 0x100080
 198 59 199 59 199 61 c 0x1002
 199 63 199 62 195 62 c 0
 191 62 191 62 191 66 c 0x0804
 191 70 191 70 193 70 c 0
 195 70 195 69 195 75 c 0
 195 81 195 81 197 81 c 0
 199 81 199 80 199 86 c 0x0802
 199 92 199 92 201 92 c 0
 203 92 202 91 202 97 c 0x100080
 202 103 202 103 204 103 c 0
 206 103 206 102 206 108 c 0x1008
 206 114 206 114 208 114 c 0
 210 114 210 114 210 118 c 0
 210 122 210 121 212 121 c 0
 214 121 213 121 213 127 c 0x201040
 213 133 213 132 215 132 c 0
 217 132 217 132 217 138 c 0x200020
 217 144 217 143 219 143 c 0
 221 143 221 143 221 149 c 0
 221 155 221 154 223 154 c 0
 225 154 224 154 224 160 c 0
 224 166 224 165 226 165 c 0
 228 165 228 165 228 169 c 0x200010
 228 173 228 173 230 173 c 0
 232 173 232 172 232 178 c 0x200008
 232 184 232 184 234 184 c 0
 236 184 235 183 235 189 c 0
 235 195 235 195 237 195 c 0
 239 195 239 194 239 200 c 0x200004
 239 206 239 206 241 206 c 0
 243 206 243 205 243 211 c 0
 243 217 243 217 245 217 c 0
 247 217 246 216 246 220 c 0
 246 224 246 224 248 224 c 0
 250 224 250 224 250 230 c 0x200002
 250 236 250 235 252 235 c 0
 254 235 254 235 254 241 c 0x20000080
 254 247 254 246 256 246 c 0
 258 246 257 246 257 252 c 0
 257 258 257 257 259 257 c 0
 261 257 261 257 261 263 c 0x20000040
 261 269 261 268 263 268 c 0
 265 268 265 268 265 272 c 0
 265 276 265 276 267 276 c 0
 269 276 268 275 268 281 c 0x20000020
 268 287 268 287 270 287 c 0
 272 287 272 286 272 292 c 0
 272 298 272 298 274 298 c 0
 276 298 276 297 276 303 c 0x20000110
 276 309 276 309 278 309 c 0
 280 309 280 308 280 314 c 0x20000008
 280 320 279 320 281 320 c 0
 283 320 283 319 283 323 c 0
 283 327 283 327 285 327 c 0
 287 327 287 326 287 332 c 0x20000004
 287 338 287 338 289 338 c 0
 291 338 291 337 291 343 c 0x20000002
 291 349 290 349 292 349 c 0
 294 349 294 348 294 354 c 0
 294 360 294 360 296 360 c 0
 298 360 298 360 298 366 c 0x20000001
 298 372 298 371 300 371 c 0
 302 371 302 371 302 375 c 0
 302 379 301 378 303 378 c 0
 305 378 305 378 305 384 c 0
 305 390 305 389 307 389 c 0
 309 389 309 389 309 395 c 0x2000000080
 309 401 309 400 311 400 c 0
 313 400 313 400 313 406 c 0x2000000040
 313 412 312 411 314 411 c 0
 316 411 316 411 316 417 c 0
 316 423 316 422 318 422 c 0
 320 422 320 422 320 426 c 0x2000000020
 320 430 320 430 322 430 c 0
 324 430 324 430 324 439 c 0
 324 448 323 448 325 448 c 0
 327 448 327 448 327 457 c 0x2000000010
 327 466 327 467 325 467 c 0
 323 467 324 467 324 474 c 0
 324 481 324 481 322 481 c 0
 320 481 320 481 320 485 c 0x2000000020
 320 489 320 489 318 489 c 0
 316 489 316 488 316 490 c 0
 316 492 316 492 314 492 c 0
 312 492 313 492 313 496 c 0x2000000040
 313 500 313 500 311 500 c 0
 309 500 309 499 309 501 c 0x2400000080
 309 503 309 503 307 503 c 0
 305 503 305 503 305 505 c 0
 305 507 306 507 302 507 c 0
 298 507 298 507 298 509 c 0x24000001
 298 511 298 511 296 511 c 0
 294 511 294 510 294 512 c 0
 294 514 295 514 291 514 c 0x24000002
 287 514 287 514 287 516 c 0x24000004
 287 518 287 518 281 518 c 0
 275 518 276 518 276 520 c 0x24000010
 276 522 276 522 259 522 c 0
 242 522 243 522 243 520 c 0
 243 518 243 518 237 518 c 0
 231 518 232 518 232 516 c 0x020008
 232 514 232 514 230 514 c 0
 228 514 228 514 228 512 c 0x020010
 228 510 228 511 224 511 c 0
 220 511 221 511 221 509 c 0
 221 507 221 507 219 507 c 0
 217 507 217 507 217 505 c 0x020020
 217 503 217 503 215 503 c 0
 213 503 213 503 213 501 c 0
 213 499 214 500 212 500 c 0
 210 500 210 500 210 498 c 0x041040
 210 496 210 496 208 496 c 0
 206 496 206 496 206 492 c 0x0408
 206 488 206 489 204 489 c 0
 202 489 202 489 202 485 c 0
 202 481 203 481 201 481 c 0
 199 481 199 482 199 476 c 0
 199 470 199 470 197 470 c 0
 195 470 195 471 195 456 c 0
 195 441 195 441 197 441 c 0
 199 441 199 441 199 435 c 0
 199 429 199 430 201 430 c 0
 203 430 202 430 202 426 c 0x050080
 202 422 202 422 204 422 c 0
 206 422 206 423 206 421 c 0x0408
 206 419 206 419 208 419 c 0
 210 419 210 419 210 415 c 0
 210 411 210 411 212 411 c 0
 214 411 213 412 213 410 c 0x041040
 213 408 213 408 217 408 c 0x040020
 221 408 221 408 221 406 c 0
 221 404 221 404 223 404 c 0
 225 404 224 404 224 402 c 0
 224 400 224 400 228 400 c 0x040010
 232 400 232 401 232 399 c 0x040008
 232 397 231 397 235 397 c 0
 239 397 239 397 239 395 c 0x040004
 239 393 239 393 259 393 c 0
 279 393 280 393 280 391 c 0x04000008
 280 389 280 389 278 389 c 0
 276 389 276 390 276 386 c 0
 276 382 276 382 274 382 c 0
 272 382 272 383 272 377 c 0x04000110
 272 371 272 371 270 371 c 0
 268 371 268 371 268 367 c 0x04000020
 268 363 269 364 267 364 c 0
 265 364 265 364 265 358 c 0
 265 352 265 353 263 353 c 0
 261 353 261 353 261 349 c 0
 261 345 261 345 259 345 c 0
 257 345 257 346 257 340 c 0
 257 334 258 334 256 334 c 0
 254 334 254 335 254 331 c 0x04800040
 254 327 254 327 252 327 c 0
 250 327 250 327 250 323 c 0x040001
 250 319 250 320 248 320 c 0
 246 320 246 320 246 314 c 0
 246 308 247 309 245 309 c 0
 243 309 243 309 243 305 c 0
 243 301 243 301 241 301 c 0
 239 301 239 302 239 296 c 0x040004
 239 290 239 290 237 290 c 0
 235 290 235 291 235 287 c 0
 235 283 236 283 234 283 c 0
 232 283 232 283 232 277 c 0x040008
 232 271 232 272 230 272 c 0
 228 272 228 272 228 268 c 0
 228 264 228 264 226 264 c 0
 224 264 224 265 224 261 c 0
 224 257 225 257 223 257 c 0
 221 257 221 258 221 252 c 0
 221 246 221 246 219 246 c 0
 217 246 217 246 217 242 c 0x044010
 217 238 217 239 215 239 c 0
 213 239 213 239 213 233 c 0x0420
 213 227 214 228 212 228 c 0
 210 228 210 228 210 224 c 0x0410
 210 220 210 220 208 220 c 0
 206 220 206 221 206 215 c 0x0408
 206 209 206 209 204 209 c 0
 202 209 202 210 202 206 c 0
 202 202 203 202 197 202 c 0
 191 202 191 202 191 204 c 0x0404
 191 206 192 206 188 206 c 0
 184 206 184 206 184 208 c 0
 184 210 184 209 180 209 c 0
 176 209 177 209 177 211 c 0x0408
 177 213 177 213 173 213 c 0
 169 213 169 213 169 215 c 0
 169 217 170 217 166 217 c 0
 162 217 162 217 162 219 c 0
 162 221 162 220 158 220 c 0
 154 220 155 220 155 222 c 0x0410
 155 224 155 224 151 224 c 0
 147 224 147 224 147 226 c 0
 147 228 148 228 144 228 c 0
 140 228 140 228 140 230 c 0x0420
 140 232 140 231 136 231 c 0
 132 231 133 231 133 233 c 0
 133 235 133 235 131 235 c 0
 129 235 129 235 129 237 c 0
 129 239 129 239 125 239 c 0
 121 239 122 239 122 241 c 0
 122 243 122 242 120 242 c 0
 118 242 118 242 118 244 c 0x0440
 118 246 118 246 114 246 c 0
 110 246 111 246 111 248 c 0
 111 250 111 250 109 250 c 0
 107 250 107 250 107 252 c 0
 107 254 107 253 103 253 c 0
 99 253 100 253 100 255 c 0
 100 257 100 257 98 257 c 0
 96 257 96 257 96 259 c 0
 96 261 96 261 94 261 c 0
 92 261 92 261 92 263 c 0
 92 265 92 264 88 264 c 0
 84 264 85 264 85 266 c 0
 85 268 85 268 83 268 c 0
 81 268 81 268 81 270 c 0
 81 272 81 272 79 272 c 0
 77 272 77 272 77 274 c 0
 77 276 78 276 76 276 c 0
 74 276 74 275 74 277 c 0
 74 279 74 279 72 279 c 0
 70 279 70 279 70 281 c 0
 70 283 70 283 68 283 c 0
 66 283 66 283 66 285 c 0
 66 287 67 287 65 287 c 0
 63 287 63 286 63 288 c 0
 63 290 63 290 61 290 c 0
 59 290 59 290 59 292 c 0
 59 294 59 294 57 294 c 0
 55 294 55 294 55 296 c 0
 55 298 56 298 54 298 c 0
 52 298 52 297 52 299 c 0
 52 301 52 301 50 301 c 0
 48 301 48 301 48 305 c 0
 48 309 48 309 46 309 c 0
 44 309 44 308 44 310 c 0
 44 312 45 312 43 312 c 0
 41 312 41 312 41 316 c 0
 41 320 41 320 39 320 c 0
 37 320 37 319 37 321 c 0
 37 323 37 323 35 323 c 0
 33 323 33 323 33 327 c 0
 33 331 34 331 32 331 c 0
 30 331 30 330 30 334 c 0x0480
 30 338 30 338 28 338 c 0
 26 338 26 338 26 342 c 0
 26 346 26 345 24 345 c 0
 22 345 22 345 22 349 c 0
 22 353 23 353 21 353 c 0
 19 353 19 352 19 358 c 0
 19 364 19 364 17 364 c 0
 15 364 15 363 15 369 c 0
 15 375 15 375 13 375 c 0
 11 375 11 375 11 382 c 0
 11 389 12 389 10 389 c 0
 8 389 8 390 8 399 c 0
 8 408 8 408 6 408 c 0
 4 408 4 408 4 450 c 0x05
 4 492 4 492 6 492 c 0
 8 492 8 492 8 501 c 0
 8 510 8 511 10 511 c 0
 12 511 11 511 11 518 c 0
 11 525 11 525 13 525 c 0
 15 525 15 525 15 531 c 0
 15 537 15 536 17 536 c 0
 19 536 19 536 19 542 c 0
 19 548 19 547 21 547 c 0
 23 547 22 547 22 551 c 0
 22 555 22 555 24 555 c 0
 26 555 26 554 26 558 c 0
 26 562 26 562 28 562 c 0
 30 562 30 562 30 566 c 0x0480
 30 570 30 569 32 569 c 0
 34 569 33 569 33 573 c 0
 33 577 33 577 35 577 c 0
 37 577 37 576 37 580 c 0
 37 584 37 584 39 584 c 0
 41 584 41 584 41 588 c 0
 41 592 41 591 43 591 c 0
 45 591 44 591 44 593 c 0
 44 595 44 595 46 595 c 0
 48 595 48 595 48 597 c 0
 48 599 48 599 50 599 c 0
 52 599 52 598 52 602 c 0
 52 606 52 606 54 606 c 0
 56 606 55 606 55 608 c 0
 55 610 55 610 57 610 c 0
 59 610 59 610 59 612 c 0
 59 614 59 613 61 613 c 0
 63 613 63 613 63 615 c 0
 63 617 63 617 65 617 c 0
 67 617 66 617 66 621 c 0
 66 625 66 625 68 625 c 0
 70 625 70 624 70 626 c 0
 70 628 70 628 72 628 c 0
 74 628 74 628 74 630 c 0
 74 632 74 632 76 632 c 0
 78 632 77 632 77 634 c 0
 77 636 77 636 79 636 c 0
 81 636 81 635 81 637 c 0
 81 639 81 639 83 639 c 0
 85 639 85 639 85 641 c 0
 85 643 85 643 87 643 c 0
 89 643 88 643 88 645 c 0
 88 647 88 647 92 647 c 0
 96 647 96 646 96 648 c 0
 96 650 96 650 98 650 c 0
 100 650 100 650 100 652 c 0
 100 654 99 654 101 654 c 0
 103 654 103 654 103 656 c 0
 103 658 103 658 105 658 c 0
 107 658 107 657 107 659 c 0
 107 661 107 661 111 661 c 0
 115 661 114 661 114 663 c 0
 114 665 114 665 116 665 c 0
 118 665 118 665 118 667 c 0x0440
 118 669 118 669 122 669 c 0
 126 669 125 668 125 670 c 0
 125 672 125 672 129 672 c 0
 133 672 133 672 133 674 c 0
 133 676 132 676 134 676 c 0
 136 676 136 676 136 678 c 0
 136 680 136 680 140 680 c 0x0420
 144 680 144 679 144 681 c 0
 144 683 143 683 147 683 c 0
 151 683 151 683 151 685 c 0
 151 687 150 687 156 687 c 0
 162 687 162 687 162 689 c 0
 162 691 162 691 166 691 c 0
 170 691 169 690 169 692 c 0
 169 694 169 694 175 694 c 0
 181 694 180 694 180 696 c 0
 180 698 181 698 188 698 c 0
 195 698 195 698 195 700 c 0
 195 702 195 702 204 702 c 0
 213 702 213 701 213 703 c 0x040040
 213 705 214 705 232 705 c 0x040008
 250 705 250 705 250 707 c 0x040001
EndSplineSet
EndChar

StartChar: sterling
Encoding: 163 163 44
Width: 484
Flags: W
HStem: 18 188<66.6833 84.3708 255.001 444> 296 99<49.1413 76 273.611 372> 305 81<49.0335 75.9946> 529 180<246.069 308.766>
VStem: 58 179<422.008 528.411> 76 179<207.125 277.169 395.775 484.169 485.831 496.154>
LayerCount: 2
Fore
SplineSet
219 704 m 0xd4
 219 708 220 709 269 709 c 0
 318 709 318 708 318 704 c 0
 318 700 319 700 332 700 c 0
 345 700 345 700 345 696 c 0
 345 692 345 691 354 691 c 0
 363 691 363 691 363 687 c 0
 363 683 363 682 372 682 c 0
 381 682 381 682 381 678 c 0
 381 674 381 673 390 673 c 0
 399 673 399 673 399 669 c 0
 399 665 399 664 403 664 c 0
 407 664 408 664 408 660 c 0
 408 656 408 655 412 655 c 0
 416 655 417 655 417 651 c 0
 417 647 417 646 421 646 c 0
 425 646 426 646 426 642 c 0
 426 638 426 637 430 637 c 0
 434 637 435 637 435 633 c 0
 435 629 435 628 439 628 c 0
 443 628 444 628 444 619 c 0
 444 610 444 610 448 610 c 0
 452 610 453 610 453 601 c 0
 453 592 453 592 457 592 c 0
 461 592 462 592 462 583 c 0
 462 574 462 574 466 574 c 0
 470 574 471 574 471 556 c 0
 471 538 471 538 475 538 c 0
 479 538 480 539 480 512 c 0
 480 485 480 485 399 485 c 0
 318 485 318 485 318 489 c 0
 318 493 318 494 314 494 c 0
 310 494 309 494 309 507 c 0
 309 520 309 521 305 521 c 0
 301 521 300 521 300 525 c 0
 300 529 300 529 278 529 c 0
 256 529 255 529 255 525 c 0xd4
 255 521 255 521 251 521 c 0
 247 521 246 521 246 512 c 0
 246 503 246 503 242 503 c 0
 238 503 237 503 237 485 c 0xd8
 237 467 238 467 242 467 c 0
 246 467 246 466 246 453 c 0
 246 440 247 440 251 440 c 0
 255 440 255 440 255 431 c 0
 255 422 256 422 260 422 c 0
 264 422 264 421 264 408 c 0
 264 395 264 395 318 395 c 2
 372 395 l 1
 372 346 l 1
 372 296 l 1
 323 296 l 2
 274 296 273 296 273 283 c 0
 273 270 273 269 269 269 c 0
 265 269 264 269 264 251 c 0
 264 233 264 233 260 233 c 0
 256 233 255 233 255 220 c 0xd4
 255 207 256 206 350 206 c 2
 444 206 l 1
 444 112 l 1
 444 18 l 1
 224 18 l 2
 4 18 4 18 4 22 c 0
 4 26 4 27 8 27 c 0
 12 27 13 27 13 40 c 0
 13 53 13 54 17 54 c 0
 21 54 22 54 22 67 c 0
 22 80 22 81 26 81 c 0
 30 81 31 81 31 94 c 0
 31 107 31 108 35 108 c 0
 39 108 40 108 40 117 c 0
 40 126 40 126 44 126 c 0
 48 126 49 126 49 139 c 0
 49 152 49 153 53 153 c 0
 57 153 58 153 58 166 c 0xd8
 58 179 58 179 62 179 c 0
 66 179 67 180 67 193 c 0
 67 206 67 206 71 206 c 0
 75 206 76 206 76 215 c 0
 76 224 76 224 80 224 c 0
 84 224 85 224 85 242 c 0
 85 260 85 260 89 260 c 0
 93 260 94 260 94 278 c 0
 94 296 94 296 76 296 c 0xd4
 58 296 58 297 58 301 c 0
 58 305 57 305 53 305 c 0
 49 305 49 306 49 346 c 0
 49 386 49 386 53 386 c 0
 57 386 58 386 58 390 c 0xb8
 58 394 58 395 67 395 c 0
 76 395 76 395 76 408 c 0xd4
 76 421 75 422 71 422 c 0
 67 422 67 422 67 440 c 0
 67 458 66 458 62 458 c 0
 58 458 58 458 58 498 c 0xd8
 58 538 58 538 62 538 c 0
 66 538 67 538 67 556 c 0
 67 574 67 574 71 574 c 0
 75 574 76 574 76 583 c 0
 76 592 76 592 80 592 c 0
 84 592 85 592 85 601 c 0
 85 610 85 610 89 610 c 0
 93 610 94 611 94 615 c 0
 94 619 94 619 98 619 c 0
 102 619 103 619 103 628 c 0
 103 637 103 637 107 637 c 0
 111 637 112 638 112 642 c 0
 112 646 112 646 116 646 c 0
 120 646 121 647 121 651 c 0
 121 655 121 655 125 655 c 0
 129 655 130 656 130 660 c 0
 130 664 130 664 139 664 c 0
 148 664 148 665 148 669 c 0
 148 673 148 673 152 673 c 0
 156 673 157 674 157 678 c 0
 157 682 157 682 166 682 c 0
 175 682 175 683 175 687 c 0
 175 691 174 691 183 691 c 0
 192 691 192 692 192 696 c 0
 192 700 193 700 206 700 c 0
 219 700 219 700 219 704 c 0xd4
EndSplineSet
EndChar

StartChar: Euro
Encoding: 8364 8364 45
Width: 529
Flags: W
HStem: 0 21G<309 327> 0 21G<309 327> 18 188<319.246 363.169 381.007 443.997> 54 117<435.008 488.972> 63 99<453.004 497.997> 72 81<462.415 507> 90 54<480.003 516.02> 99 36<493.039 520.185> 117 9<516.042 524.993> 278 63<4.0471 75.9497 264.001 398.814> 278 54<4.01717 75.7627> 386 63<4.0471 75.9679 264.049 398.869> 386 54<4.01717 75.5365> 494 21G<367.5 376.5> 512 188<320.907 371.585 372.415 434.997> 547 126<417.003 479.972> 556 108<435.003 488.997> 565 90<444.007 498> 574 63<471.003 515.972> 583 45<480.004 524.972> 592 27<498 524.993> 601 9<516 524.993>
VStem: 76 188<197.831 277.419 341.671 385.316 449.636 520.169> 85 197<188.655 254.984 467.831 528.699> 300 36<1.52588e-05 8.93511> 345 72<503.415 528.998> 354 63<188.164 223.816> 354 54<503.003 528.958> 363 18<224 233 494 503>
LayerCount: 2
Fore
SplineSet
255 704 m 0x00020180
 255 708 255 709 318 709 c 0
 381 709 381 708 381 704 c 0x00020188
 381 700 381 700 394 700 c 0
 407 700 408 700 408 696 c 0x00020090
 408 692 408 691 417 691 c 0
 426 691 426 691 426 687 c 0
 426 683 426 682 435 682 c 0
 444 682 444 682 444 678 c 0
 444 674 444 673 453 673 c 0x000100a0
 462 673 462 673 462 669 c 0
 462 665 462 664 466 664 c 0x000080a0
 470 664 471 664 471 660 c 0
 471 656 471 655 475 655 c 0x000040a0
 479 655 480 655 480 651 c 0
 480 647 480 646 484 646 c 0
 488 646 489 646 489 642 c 0
 489 638 489 637 493 637 c 0x000020a0
 497 637 498 637 498 633 c 0
 498 629 498 628 502 628 c 0x000010a0
 506 628 507 628 507 624 c 0
 507 620 507 619 511 619 c 0x000008a0
 515 619 516 619 516 615 c 0
 516 611 516 610 520 610 c 0
 524 610 525 610 525 606 c 0
 525 602 524 601 520 601 c 0x000004a0
 516 601 516 601 516 597 c 0
 516 593 515 592 511 592 c 0x000008a0
 507 592 507 592 507 588 c 0
 507 584 506 583 502 583 c 0x000010a0
 498 583 498 583 498 579 c 0
 498 575 498 574 489 574 c 0x000020a0
 480 574 480 574 480 570 c 0
 480 566 479 565 475 565 c 0x000040a0
 471 565 471 565 471 561 c 0
 471 557 470 556 466 556 c 0x000080a0
 462 556 462 556 462 552 c 0
 462 548 462 547 453 547 c 0
 444 547 444 547 444 543 c 0
 444 539 443 538 439 538 c 0
 435 538 435 538 435 534 c 0
 435 530 435 529 426 529 c 0
 417 529 417 529 417 525 c 0x000100c0
 417 521 416 521 412 521 c 0
 408 521 408 520 408 516 c 0
 408 512 407 512 403 512 c 0x00020090
 399 512 399 511 399 507 c 0
 399 503 399 503 390 503 c 0
 381 503 381 502 381 498 c 0
 381 494 381 494 372 494 c 0
 363 494 363 494 363 503 c 0x00040088
 363 512 362 512 358 512 c 0
 354 512 354 512 354 516 c 0x00020090
 354 520 354 521 350 521 c 0
 346 521 345 521 345 525 c 0
 345 529 345 529 318 529 c 0
 291 529 291 529 291 525 c 0
 291 521 291 521 287 521 c 0
 283 521 282 520 282 516 c 0x000201c0
 282 512 282 512 278 512 c 0
 274 512 273 511 273 498 c 0
 273 485 273 485 269 485 c 0
 265 485 264 485 264 467 c 0
 264 449 265 449 332 449 c 0
 399 449 399 448 399 417 c 0
 399 386 399 386 336 386 c 0
 273 386 273 385 273 381 c 0
 273 377 273 377 269 377 c 0
 265 377 264 377 264 359 c 0
 264 341 265 341 332 341 c 0
 399 341 399 341 399 314 c 0
 399 287 398 287 394 287 c 0
 390 287 390 287 390 283 c 0
 390 279 390 278 327 278 c 0
 264 278 264 278 264 256 c 0x00520280
 264 234 265 233 269 233 c 0
 273 233 273 233 273 220 c 0
 273 207 274 206 278 206 c 0
 282 206 282 206 282 202 c 0
 282 198 283 197 287 197 c 0
 291 197 291 197 291 193 c 0
 291 189 291 188 318 188 c 0
 345 188 345 189 345 193 c 0x205201c0
 345 197 346 197 350 197 c 0
 354 197 354 198 354 202 c 0x205200a0
 354 206 354 206 358 206 c 0
 362 206 363 207 363 220 c 0
 363 233 363 233 372 233 c 0
 381 233 381 233 381 229 c 0x20520088
 381 225 381 224 390 224 c 0
 399 224 399 224 399 220 c 0
 399 216 399 215 403 215 c 0
 407 215 408 215 408 211 c 0
 408 207 408 206 412 206 c 0x20520090
 416 206 417 206 417 202 c 0
 417 198 417 197 426 197 c 0
 435 197 435 197 435 193 c 0
 435 189 435 188 439 188 c 0
 443 188 444 188 444 184 c 0
 444 180 444 179 448 179 c 0
 452 179 453 179 453 175 c 0
 453 171 453 171 462 171 c 0x100000a0
 471 171 471 170 471 166 c 0
 471 162 471 162 475 162 c 0x080000a0
 479 162 480 161 480 157 c 0
 480 153 480 153 484 153 c 0x040000a0
 488 153 489 152 489 148 c 0
 489 144 489 144 498 144 c 0x020000a0
 507 144 507 143 507 139 c 0
 507 135 507 135 511 135 c 0x010000a0
 515 135 516 134 516 130 c 0
 516 126 516 126 520 126 c 0
 524 126 525 125 525 121 c 0
 525 117 524 117 520 117 c 0x008000a0
 516 117 516 117 516 108 c 0
 516 99 515 99 511 99 c 0x010000a0
 507 99 507 98 507 94 c 0
 507 90 506 90 502 90 c 0x020000a0
 498 90 498 89 498 85 c 0
 498 81 497 81 493 81 c 0
 489 81 489 80 489 76 c 0
 489 72 488 72 484 72 c 0x040000a0
 480 72 480 71 480 67 c 0
 480 63 479 63 475 63 c 0x080000a0
 471 63 471 62 471 58 c 0
 471 54 470 54 466 54 c 0x100000a0
 462 54 462 53 462 49 c 0
 462 45 461 45 457 45 c 0
 453 45 453 44 453 40 c 0
 453 36 453 36 444 36 c 0
 435 36 435 35 435 31 c 0
 435 27 435 27 426 27 c 0
 417 27 417 26 417 22 c 0
 417 18 416 18 403 18 c 0x200000a0
 390 18 390 17 390 13 c 0
 390 9 390 9 363 9 c 0
 336 9 336 8 336 4 c 0
 336 0 336 0 318 0 c 0x80000088
 300 0 300 0 300 4 c 0
 300 8 300 9 273 9 c 0
 246 9 246 9 246 13 c 0
 246 17 246 18 233 18 c 0x20000088
 220 18 219 18 219 22 c 0
 219 26 219 27 210 27 c 0
 201 27 201 27 201 31 c 0
 201 35 201 36 192 36 c 0
 183 36 183 36 183 40 c 0
 183 44 183 45 179 45 c 0
 175 45 175 45 175 49 c 0
 175 53 175 54 166 54 c 0x10000088
 157 54 157 54 157 58 c 0
 157 62 156 63 152 63 c 0x08000088
 148 63 148 63 148 67 c 0
 148 71 147 72 143 72 c 0x04000088
 139 72 139 72 139 81 c 0
 139 90 138 90 134 90 c 0x02000088
 130 90 130 90 130 94 c 0
 130 98 129 99 125 99 c 0x01000088
 121 99 121 99 121 108 c 0
 121 117 120 117 116 117 c 0
 112 117 112 117 112 121 c 0
 112 125 111 126 107 126 c 0x00800088
 103 126 103 126 103 139 c 0
 103 152 102 153 98 153 c 0
 94 153 94 153 94 166 c 0
 94 179 93 179 89 179 c 0
 85 179 85 179 85 197 c 0x04000188
 85 215 84 215 80 215 c 0
 76 215 76 216 76 247 c 0
 76 278 76 278 40 278 c 0x04400280
 4 278 4 278 4 305 c 0
 4 332 4 332 8 332 c 0x00200280
 12 332 13 333 13 337 c 0
 13 341 13 341 44 341 c 0
 75 341 76 341 76 363 c 0
 76 385 76 386 40 386 c 0x00500280
 4 386 4 386 4 413 c 0
 4 440 4 440 8 440 c 0x00080280
 12 440 13 440 13 444 c 0
 13 448 13 449 44 449 c 0
 75 449 76 449 76 476 c 0x00100280
 76 503 76 503 80 503 c 0
 84 503 85 503 85 521 c 0
 85 539 85 538 89 538 c 0
 93 538 94 539 94 552 c 0
 94 565 94 565 98 565 c 0x00104180
 102 565 103 565 103 574 c 0x00002180
 103 583 103 583 107 583 c 0x00001180
 111 583 112 583 112 592 c 0x00000980
 112 601 112 601 116 601 c 0
 120 601 121 601 121 610 c 0x00000580
 121 619 121 619 125 619 c 0x00000980
 129 619 130 620 130 624 c 0
 130 628 130 628 134 628 c 0x00001180
 138 628 139 629 139 633 c 0
 139 637 139 637 143 637 c 0x00002180
 147 637 148 638 148 642 c 0
 148 646 148 646 152 646 c 0
 156 646 157 647 157 651 c 0
 157 655 157 655 161 655 c 0x00004180
 165 655 166 656 166 660 c 0
 166 664 166 664 170 664 c 0x00008180
 174 664 175 665 175 669 c 0
 175 673 174 673 183 673 c 0x00010180
 192 673 192 674 192 678 c 0
 192 682 192 682 201 682 c 0
 210 682 210 683 210 687 c 0
 210 691 210 691 219 691 c 0
 228 691 228 692 228 696 c 0
 228 700 229 700 242 700 c 0
 255 700 255 700 255 704 c 0x00020180
EndSplineSet
EndChar

StartChar: exclam
Encoding: 33 33 46
Width: 253
Flags: W
HStem: 0 238<48.9993 203.001> 14 210<35.0355 123.739 128.261 217.001> 28 182<34.9099 77.005 174.995 230.964>
VStem: 21 210<27.9993 116.739 121.261 210.001> 35 196<27.9993 83.8485 154.151 210.001 281.969 700> 35 182<14.0355 69.9316 168.004 223.964 280 698.688>
LayerCount: 2
Fore
SplineSet
35 490 m 1x08
 35 700 l 1
 133 700 l 1
 231 700 l 1
 231 616 l 2x08
 231 532 231 532 224 532 c 0
 217 532 217 532 217 406 c 2
 217 280 l 1
 126 280 l 1
 35 280 l 1x04
 35 490 l 1x08
77 231 m 0
 77 238 77 238 126 238 c 0x88
 175 238 175 238 175 231 c 0
 175 224 175 224 189 224 c 0x48
 203 224 203 224 203 217 c 0
 203 210 203 210 210 210 c 0
 217 210 217 210 217 203 c 0x24
 217 196 217 196 224 196 c 0
 231 196 231 196 231 182 c 0
 231 168 231 168 238 168 c 0
 245 168 245 168 245 119 c 0
 245 70 245 70 238 70 c 0
 231 70 231 70 231 56 c 0x30
 231 42 231 42 224 42 c 0
 217 42 217 42 217 35 c 0
 217 28 217 28 210 28 c 0x24
 203 28 203 28 203 21 c 0
 203 14 203 14 189 14 c 0x44
 175 14 175 14 175 7 c 0
 175 0 175 0 126 0 c 0x84
 77 0 77 0 77 7 c 0
 77 14 77 14 63 14 c 0x44
 49 14 49 14 49 21 c 0
 49 28 49 28 42 28 c 0
 35 28 35 28 35 35 c 0x28
 35 42 35 42 28 42 c 0
 21 42 21 42 21 63 c 0
 21 84 21 84 14 84 c 0
 7 84 7 84 7 119 c 0
 7 154 7 154 14 154 c 0
 21 154 21 154 21 168 c 0x30
 21 182 21 182 28 182 c 0
 35 182 35 182 35 196 c 0
 35 210 35 210 42 210 c 0x28
 49 210 49 210 49 217 c 0
 49 224 49 224 63 224 c 0x48
 77 224 77 224 77 231 c 0
EndSplineSet
EndChar

StartChar: at
Encoding: 64 64 47
Width: 708
Flags: W
HStem: 0 84<241.999 550.001> 14 84<214.068 384.155 400.522 563.354> 28 84<200 283.831 493.99 577.932> 28 42<578 592> 42 98<171.999 213.328> 196 56<523.262 578> 210 70<549.999 592.09> 294 28<354.019 368> 406 140<326.034 409.018> 406 42<536.036 550> 532 112<143.91 172 578 606.09> 546 112<144.646 185.996 564.004 605.964> 574 98<171.999 213.996 536.004 578.001> 602 84<200 270.001 479.999 550> 616 84<214.004 325.863 424.137 535.996> 630 84<242.068 372.739 377.261 507.932> 644 84<269.999 480.001>
VStem: 4 98<238.001 461.665> 32 84<196.672 307.656 392.344 504.001> 46 98<167.999 223.996 490.672 545.996> 46 84<182.068 237.996> 60 112<140.004 181.328 531.999 574> 60 98<503.999 560.001> 74 112<125.999 168.001 546.004 587.996> 88 126<111.91 139.996 573.999 602.09> 186 126<322.716 392.001> 200 140<224.039 292.578 378.813 405.973> 284 42<196 210> 354 42<714.073 728> 396 126<252.937 384.031> 410 126<268.584 299.385 302.615 405.84> 550 28<98.0733 112> 564 98<545.999 588.001> 578 98<532.672 573.996> 578 84<265.91 308.001> 592 84<266.036 336.002> 606 84<279.999 376.054 450.688 546.001> 634 70<335.999 504.001>
LayerCount: 2
Fore
SplineSet
354 721 m 0x01010048
 354 728 354 728 375 728 c 0x01008048
 396 728 396 728 396 721 c 0
 396 714 396 714 438 714 c 0x01010048
 480 714 480 714 480 707 c 0
 480 700 480 700 501 700 c 0
 522 700 522 700 522 693 c 0x01020004
 522 686 522 686 536 686 c 0
 550 686 550 686 550 679 c 0x01040003
 550 672 550 672 564 672 c 0x0108000080
 578 672 578 672 578 665 c 0
 578 658 578 658 585 658 c 0x0110000020
 592 658 592 658 592 651 c 0
 592 644 592 644 599 644 c 0x0120000010
 606 644 606 644 606 637 c 0
 606 630 606 630 613 630 c 0x0101000008
 620 630 620 630 620 623 c 0
 620 616 620 616 627 616 c 0x0102000008
 634 616 634 616 634 609 c 0
 634 602 634 602 641 602 c 0x0104000004
 648 602 648 602 648 595 c 0
 648 588 648 588 655 588 c 0
 662 588 662 588 662 574 c 0x0108000080
 662 560 662 560 669 560 c 0
 676 560 676 560 676 553 c 0x0108000040
 676 546 676 546 683 546 c 0
 690 546 690 546 690 525 c 0x0110000008
 690 504 690 504 697 504 c 0
 704 504 704 504 704 420 c 0x0110000004
 704 336 704 336 697 336 c 0
 690 336 690 336 690 322 c 0x0110000008
 690 308 690 308 683 308 c 0
 676 308 676 308 676 294 c 0x0110000010
 676 280 676 280 669 280 c 0
 662 280 662 280 662 273 c 0x0310000020
 662 266 662 266 655 266 c 0
 648 266 648 266 648 252 c 0
 648 238 648 238 634 238 c 0x0500000004
 620 238 620 238 620 231 c 0
 620 224 620 224 613 224 c 0
 606 224 606 224 606 217 c 0x0500000008
 606 210 606 210 592 210 c 0x0300000010
 578 210 578 210 578 203 c 0
 578 196 578 196 557 196 c 0
 536 196 536 196 536 189 c 0
 536 182 536 182 494 182 c 0
 452 182 452 182 452 189 c 0
 452 196 452 196 438 196 c 0x0500000220
 424 196 424 196 424 203 c 0
 424 210 424 210 410 210 c 0x0300000220
 396 210 396 210 396 266 c 0x03000004
 396 322 396 322 403 322 c 0
 410 322 410 322 410 364 c 0
 410 406 410 406 375 406 c 0
 340 406 340 406 340 399 c 0x03800022
 340 392 340 392 333 392 c 0
 326 392 326 392 326 385 c 0x03800010
 326 378 326 378 319 378 c 0
 312 378 312 378 312 357 c 0x03800040
 312 336 312 336 319 336 c 0
 326 336 326 336 326 329 c 0x03800010
 326 322 326 322 347 322 c 0
 368 322 368 322 368 308 c 0
 368 294 368 294 361 294 c 0
 354 294 354 294 354 273 c 0
 354 252 354 252 347 252 c 0
 340 252 340 252 340 238 c 0x05800028
 340 224 340 224 333 224 c 0
 326 224 326 224 326 210 c 0x03000010
 326 196 326 196 305 196 c 0x05000010
 284 196 284 196 284 203 c 0
 284 210 284 210 263 210 c 0
 242 210 242 210 242 217 c 0
 242 224 242 224 228 224 c 0
 214 224 214 224 214 231 c 0x03000090
 214 238 214 238 207 238 c 0
 200 238 200 238 200 252 c 0x05000020
 200 266 200 266 193 266 c 0
 186 266 186 266 186 329 c 0x05000040
 186 392 186 392 193 392 c 0
 200 392 200 392 200 406 c 0x05400020
 200 420 200 420 207 420 c 0
 214 420 214 420 214 434 c 0
 214 448 214 448 221 448 c 0
 228 448 228 448 228 455 c 0
 228 462 228 462 235 462 c 0
 242 462 242 462 242 469 c 0
 242 476 242 476 249 476 c 0
 256 476 256 476 256 483 c 0
 256 490 256 490 263 490 c 0
 270 490 270 490 270 497 c 0
 270 504 270 504 277 504 c 0
 284 504 284 504 284 511 c 0x05400090
 284 518 284 518 298 518 c 0
 312 518 312 518 312 525 c 0
 312 532 312 532 333 532 c 0
 354 532 354 532 354 539 c 0x05600048
 354 546 354 546 396 546 c 0x01800004
 438 546 438 546 438 539 c 0
 438 532 438 532 459 532 c 0
 480 532 480 532 480 525 c 0
 480 518 480 518 494 518 c 0
 508 518 508 518 508 511 c 0
 508 504 508 504 515 504 c 0
 522 504 522 504 522 497 c 0x01200004
 522 490 522 490 529 490 c 0
 536 490 536 490 536 469 c 0
 536 448 536 448 543 448 c 0
 550 448 550 448 550 427 c 0
 550 406 550 406 543 406 c 0
 536 406 536 406 536 371 c 0x01600003
 536 336 536 336 529 336 c 0
 522 336 522 336 522 301 c 0x01600004
 522 266 522 266 529 266 c 0
 536 266 536 266 536 259 c 0
 536 252 536 252 543 252 c 0
 550 252 550 252 550 259 c 0x05600003
 550 266 550 266 564 266 c 0x0560000080
 578 266 578 266 578 273 c 0x0560000020
 578 280 578 280 585 280 c 0
 592 280 592 280 592 294 c 0x0300000010
 592 308 592 308 599 308 c 0
 606 308 606 308 606 322 c 0x0300000008
 606 336 606 336 613 336 c 0
 620 336 620 336 620 357 c 0
 620 378 620 378 627 378 c 0
 634 378 634 378 634 413 c 0x0300000004
 634 448 634 448 627 448 c 0
 620 448 620 448 620 476 c 0
 620 504 620 504 613 504 c 0
 606 504 606 504 606 518 c 0x0340000008
 606 532 606 532 599 532 c 0
 592 532 592 532 592 539 c 0x0360000010
 592 546 592 546 585 546 c 0
 578 546 578 546 578 553 c 0x0110000040
 578 560 578 560 571 560 c 0
 564 560 564 560 564 567 c 0x0110000080
 564 574 564 574 557 574 c 0
 550 574 550 574 550 581 c 0
 550 588 550 588 543 588 c 0
 536 588 536 588 536 595 c 0x01080003
 536 602 536 602 522 602 c 0x01040004
 508 602 508 602 508 609 c 0
 508 616 508 616 494 616 c 0x01020004
 480 616 480 616 480 623 c 0
 480 630 480 630 452 630 c 0x01010004
 424 630 424 630 424 637 c 0
 424 644 424 644 375 644 c 0x01008004
 326 644 326 644 326 637 c 0
 326 630 326 630 298 630 c 0x01010014
 270 630 270 630 270 623 c 0
 270 616 270 616 256 616 c 0x01020014
 242 616 242 616 242 609 c 0
 242 602 242 602 228 602 c 0
 214 602 214 602 214 595 c 0x01040094
 214 588 214 588 207 588 c 0
 200 588 200 588 200 581 c 0
 200 574 200 574 193 574 c 0
 186 574 186 574 186 567 c 0x01080120
 186 560 186 560 179 560 c 0
 172 560 172 560 172 553 c 0x010804
 172 546 172 546 165 546 c 0
 158 546 158 546 158 539 c 0x011002
 158 532 158 532 151 532 c 0
 144 532 144 532 144 518 c 0x012010
 144 504 144 504 137 504 c 0
 130 504 130 504 130 497 c 0x012008
 130 490 130 490 123 490 c 0
 116 490 116 490 116 469 c 0x012020
 116 448 116 448 109 448 c 0
 102 448 102 448 102 350 c 0x016040
 102 252 102 252 109 252 c 0
 116 252 116 252 116 238 c 0x056020
 116 224 116 224 123 224 c 0
 130 224 130 224 130 210 c 0x030008
 130 196 130 196 137 196 c 0
 144 196 144 196 144 189 c 0x050010
 144 182 144 182 151 182 c 0
 158 182 158 182 158 175 c 0x050002
 158 168 158 168 165 168 c 0
 172 168 172 168 172 161 c 0x050004
 172 154 172 154 179 154 c 0
 186 154 186 154 186 147 c 0
 186 140 186 140 193 140 c 0
 200 140 200 140 200 133 c 0x0d000120
 200 126 200 126 207 126 c 0
 214 126 214 126 214 119 c 0
 214 112 214 112 228 112 c 0x21000080
 242 112 242 112 242 105 c 0
 242 98 242 98 263 98 c 0x41000080
 284 98 284 98 284 91 c 0
 284 84 284 84 389 84 c 0x81000090
 494 84 494 84 494 91 c 0
 494 98 494 98 522 98 c 0
 550 98 550 98 550 105 c 0x41000095
 550 112 550 112 564 112 c 0x2100000080
 578 112 578 112 578 91 c 0
 578 70 578 70 585 70 c 0x1100000020
 592 70 592 70 592 49 c 0
 592 28 592 28 571 28 c 0x2100000010
 550 28 550 28 550 21 c 0
 550 14 550 14 522 14 c 0x4100000510
 494 14 494 14 494 7 c 0
 494 0 494 0 396 0 c 0x8100000510
 298 0 298 0 298 7 c 0
 298 14 298 14 270 14 c 0x4100000510
 242 14 242 14 242 21 c 0
 242 28 242 28 221 28 c 0
 200 28 200 28 200 35 c 0x2100002510
 200 42 200 42 186 42 c 0
 172 42 172 42 172 49 c 0x09000440
 172 56 172 56 165 56 c 0
 158 56 158 56 158 63 c 0x090002
 158 70 158 70 144 70 c 0x110010
 130 70 130 70 130 77 c 0x110008
 130 84 130 84 123 84 c 0
 116 84 116 84 116 91 c 0x810020
 116 98 116 98 109 98 c 0
 102 98 102 98 102 105 c 0x410040
 102 112 102 112 95 112 c 0
 88 112 88 112 88 119 c 0x21000080
 88 126 88 126 81 126 c 0
 74 126 74 126 74 140 c 0x090001
 74 154 74 154 67 154 c 0
 60 154 60 154 60 161 c 0x090004
 60 168 60 168 53 168 c 0
 46 168 46 168 46 189 c 0x090010
 46 210 46 210 39 210 c 0
 32 210 32 210 32 224 c 0x0b0020
 32 238 32 238 25 238 c 0
 18 238 18 238 18 273 c 0
 18 308 18 308 11 308 c 0
 4 308 4 308 4 350 c 0x0b0040
 4 392 4 392 11 392 c 0
 18 392 18 392 18 427 c 0
 18 462 18 462 25 462 c 0
 32 462 32 462 32 483 c 0x0b0020
 32 504 32 504 39 504 c 0
 46 504 46 504 46 518 c 0
 46 532 46 532 53 532 c 0x0b2010
 60 532 60 532 60 546 c 0x011004
 60 560 60 560 67 560 c 0
 74 560 74 560 74 567 c 0x011001
 74 574 74 574 81 574 c 0
 88 574 88 574 88 588 c 0x01080080
 88 602 88 602 95 602 c 0
 102 602 102 602 102 609 c 0x010440
 102 616 102 616 109 616 c 0
 116 616 116 616 116 623 c 0x010220
 116 630 116 630 123 630 c 0
 130 630 130 630 130 637 c 0x010108
 130 644 130 644 144 644 c 0x012010
 158 644 158 644 158 651 c 0
 158 658 158 658 165 658 c 0x011002
 172 658 172 658 172 665 c 0
 172 672 172 672 186 672 c 0x01080440
 200 672 200 672 200 679 c 0x01080020
 200 686 200 686 214 686 c 0x01040080
 228 686 228 686 228 693 c 0
 228 700 228 700 249 700 c 0x01020080
 270 700 270 700 270 707 c 0
 270 714 270 714 312 714 c 0
 354 714 354 714 354 721 c 0x01010048
EndSplineSet
EndChar

StartChar: numbersign
Encoding: 35 35 48
Width: 582
Flags: W
HStem: 14 42<284 297.891> 196 126<18.5998 86.5668 228.337 311.139 438.861 535.487> 210 112<438.861 535.973> 280 28<536.131 550> 406 126<46.8615 129.139 256.861 339.139 466.861 563.277> 630 70<270.059 283.76 480.059 493.76>
VStem: 74 112<14.9344 144.739> 88 112<57.9381 194.754> 116 112<322.451 398.677> 130 112<358.615 405.91> 144 112<532.469 629.828> 158 126<546.766 698.578> 284 112<14.4672 139.139> 298 112<35.9691 174.031> 312 112<56.8615 195.533> 326 112<322.183 376.708> 340 112<329.323 405.475> 354 112<532.469 629.828> 368 126<546.766 698.578>
LayerCount: 2
Fore
SplineSet
158 651 m 0xcc10
 158 700 158 700 221 700 c 0
 284 700 284 700 284 665 c 0xcc10
 284 630 284 630 277 630 c 0
 270 630 270 630 270 588 c 0
 270 546 270 546 263 546 c 0
 256 546 256 546 256 539 c 0
 256 532 256 532 305 532 c 0
 354 532 354 532 354 567 c 0xcc2040
 354 602 354 602 361 602 c 0
 368 602 368 602 368 651 c 0
 368 700 368 700 431 700 c 0
 494 700 494 700 494 665 c 0xcc0020
 494 630 494 630 487 630 c 0
 480 630 480 630 480 588 c 0
 480 546 480 546 473 546 c 0
 466 546 466 546 466 539 c 0xcc0040
 466 532 466 532 522 532 c 0
 578 532 578 532 578 504 c 0
 578 476 578 476 571 476 c 0
 564 476 564 476 564 448 c 0
 564 420 564 420 557 420 c 0
 550 420 550 420 550 413 c 0
 550 406 550 406 501 406 c 0
 452 406 452 406 452 371 c 0xcc0080
 452 336 452 336 445 336 c 0
 438 336 438 336 438 329 c 0
 438 322 438 322 487 322 c 0xcc01
 536 322 536 322 536 315 c 0
 536 308 536 308 543 308 c 0
 550 308 550 308 550 294 c 0
 550 280 550 280 543 280 c 0x9c01
 536 280 536 280 536 245 c 0
 536 210 536 210 529 210 c 0xac01
 522 210 522 210 522 203 c 0
 522 196 522 196 473 196 c 0
 424 196 424 196 424 168 c 0xcc02
 424 140 424 140 417 140 c 0
 410 140 410 140 410 91 c 0xcc04
 410 42 410 42 403 42 c 0
 396 42 396 42 396 28 c 0xcc08
 396 14 396 14 340 14 c 0xcc0080
 284 14 284 14 284 35 c 0xcc08
 284 56 284 56 291 56 c 0
 298 56 298 56 298 105 c 0xcc04
 298 154 298 154 305 154 c 0
 312 154 312 154 312 175 c 0
 312 196 312 196 256 196 c 0xcc22
 200 196 200 196 200 140 c 0xcd
 200 84 200 84 193 84 c 0
 186 84 186 84 186 49 c 0xce
 186 14 186 14 130 14 c 0xcc40
 74 14 74 14 74 56 c 0xce
 74 98 74 98 81 98 c 0
 88 98 88 98 88 147 c 0
 88 196 88 196 46 196 c 0xcd
 4 196 4 196 4 245 c 0
 4 294 4 294 11 294 c 0
 18 294 18 294 18 308 c 0x9d
 18 322 18 322 67 322 c 0
 116 322 116 322 116 357 c 0xcc80
 116 392 116 392 123 392 c 0
 130 392 130 392 130 399 c 0xcc40
 130 406 130 406 81 406 c 0
 32 406 32 406 32 448 c 0
 32 490 32 490 39 490 c 0
 46 490 46 490 46 511 c 0
 46 532 46 532 95 532 c 0
 144 532 144 532 144 567 c 0xcc20
 144 602 144 602 151 602 c 0
 158 602 158 602 158 651 c 0xcc10
340 378 m 0xcc0080
 340 406 340 406 291 406 c 0
 242 406 242 406 242 399 c 0xcc4080
 242 392 242 392 235 392 c 0
 228 392 228 392 228 357 c 0
 228 322 228 322 277 322 c 0
 326 322 326 322 326 336 c 0xcc81
 326 350 326 350 333 350 c 0
 340 350 340 350 340 378 c 0xcc0080
EndSplineSet
EndChar

StartChar: dollar
Encoding: 36 36 49
Width: 372
Flags: W
HStem: 532 182<298.766 360.677>
VStem: 102 252<224.205 278.062 281.938 349.996 645.338 713.997> 102 196<-67.184 14.0901 715.874 781.653> 354 14<518 531.474>
LayerCount: 2
Fore
SplineSet
102 728 m 2xa0
 102 784 l 1
 200 784 l 2
 298 784 298 784 298 749 c 0xa0
 298 714 298 714 326 714 c 0
 354 714 354 714 354 707 c 0xc0
 354 700 354 700 361 700 c 0
 368 700 368 700 368 609 c 0
 368 518 368 518 361 518 c 0
 354 518 354 518 354 525 c 0
 354 532 354 532 319 532 c 0
 284 532 284 532 284 525 c 0
 284 518 284 518 277 518 c 0
 270 518 270 518 270 511 c 0
 270 504 270 504 263 504 c 0
 256 504 256 504 256 490 c 0
 256 476 256 476 263 476 c 0
 270 476 270 476 270 455 c 0
 270 434 270 434 277 434 c 0
 284 434 284 434 284 427 c 0
 284 420 284 420 291 420 c 0
 298 420 298 420 298 406 c 0xb0
 298 392 298 392 305 392 c 0
 312 392 312 392 312 378 c 0
 312 364 312 364 319 364 c 0
 326 364 326 364 326 357 c 0
 326 350 326 350 333 350 c 0
 340 350 340 350 340 329 c 0
 340 308 340 308 347 308 c 0
 354 308 354 308 354 245 c 0xc0
 354 182 354 182 347 182 c 0
 340 182 340 182 340 168 c 0
 340 154 340 154 333 154 c 0
 326 154 326 154 326 140 c 0
 326 126 326 126 319 126 c 0
 312 126 312 126 312 119 c 0
 312 112 312 112 305 112 c 0
 298 112 298 112 298 21 c 2
 298 -70 l 1
 200 -70 l 2
 102 -70 102 -70 102 -28 c 0xa0
 102 14 102 14 88 14 c 0
 74 14 74 14 74 21 c 0
 74 28 74 28 53 28 c 0
 32 28 32 28 32 35 c 0
 32 42 32 42 18 42 c 0
 4 42 4 42 4 133 c 0
 4 224 4 224 53 224 c 0
 102 224 102 224 102 231 c 0
 102 238 102 238 109 238 c 0
 116 238 116 238 116 280 c 0
 116 322 116 322 109 322 c 0
 102 322 102 322 102 329 c 0xc0
 102 336 102 336 95 336 c 0
 88 336 88 336 88 350 c 0
 88 364 88 364 81 364 c 0
 74 364 74 364 74 371 c 0
 74 378 74 378 67 378 c 0
 60 378 60 378 60 392 c 0
 60 406 60 406 53 406 c 0
 46 406 46 406 46 427 c 0
 46 448 46 448 39 448 c 0
 32 448 32 448 32 511 c 0
 32 574 32 574 39 574 c 0
 46 574 46 574 46 588 c 0
 46 602 46 602 53 602 c 0
 60 602 60 602 60 616 c 0
 60 630 60 630 67 630 c 0
 74 630 74 630 74 637 c 0
 74 644 74 644 81 644 c 0
 88 644 88 644 88 658 c 0
 88 672 88 672 95 672 c 0
 102 672 102 672 102 728 c 2xa0
EndSplineSet
EndChar

StartChar: percent
Encoding: 37 37 50
Width: 848
Flags: W
HStem: 0 112<606.034 717.88> 14 112<284 297.831 592 653.385 656.615 717.831> 14 42<256 270.059> 168 42<830.006 844> 252 112<592.169 653.385 656.615 717.831> 266 112<606.004 717.88> 350 112<130.084 241.966> 364 112<116.733 191.385 194.615 255.959> 602 112<116.733 185.354 186.646 191.385 194.615 255.963> 616 112<130.084 241.916> 616 98<186.646 241.831> 686 14<578.073 592>
VStem: 4 112<476.052 601.948> 18 112<476.068 536.739 541.261 601.932> 172 42<350 363.994> 172 28<714.073 728> 228 126<462.027 489.187 588.813 615.973> 256 56<14.0115 69.9958> 270 98<490.128 587.872> 270 56<35.9691 111.932> 284 56<56.0042 139.996> 298 56<84.0684 182.001> 312 56<126.004 209.932> 326 56<154.068 237.996> 340 56<181.999 279.932> 354 56<224.004 307.996> 368 56<252.068 349.932> 382 56<294.004 377.996> 396 56<322.068 419.932> 410 56<364.004 447.996> 424 56<392.068 489.932> 438 56<434.004 517.996> 452 56<462.068 559.932> 466 56<504.004 587.996> 480 98<140.128 237.872> 480 56<532.068 630.001> 494 126<112.027 139.187 238.813 265.973> 494 56<574.004 657.932> 508 56<602.068 685.996> 522 56<629.999 692.677> 634 42<2.67029e-05 13.9942 364.006 378> 718 112<126.169 187.385 190.615 251.831> 732 112<126.12 251.88>
LayerCount: 2
Fore
SplineSet
172 721 m 0x108900000080
 172 728 172 728 186 728 c 0x104900000080
 200 728 200 728 200 721 c 0
 200 714 200 714 228 714 c 0x108980000080
 256 714 256 714 256 707 c 0x108040000080
 256 700 256 700 270 700 c 0x101010000080
 284 700 284 700 284 693 c 0x101008000080
 284 686 284 686 291 686 c 0
 298 686 298 686 298 679 c 0x101004000080
 298 672 298 672 312 672 c 0x101002000080
 326 672 326 672 326 658 c 0x101001000080
 326 644 326 644 333 644 c 0
 340 644 340 644 340 637 c 0x101000800080
 340 630 340 630 347 630 c 0
 354 630 354 630 354 616 c 0x102000400080
 354 602 354 602 361 602 c 0
 368 602 368 602 368 539 c 0
 368 476 368 476 361 476 c 0x118020000080
 354 476 354 476 354 462 c 0x120000400080
 354 448 354 448 347 448 c 0
 340 448 340 448 340 441 c 0x120000800080
 340 434 340 434 333 434 c 0
 326 434 326 434 326 420 c 0x120001000080
 326 406 326 406 319 406 c 0
 312 406 312 406 312 399 c 0x120002000080
 312 392 312 392 298 392 c 0x120004000080
 284 392 284 392 284 385 c 0x120008000080
 284 378 284 378 270 378 c 0x140010000080
 256 378 256 378 256 371 c 0
 256 364 256 364 235 364 c 0x110040000080
 214 364 214 364 214 357 c 0
 214 350 214 350 193 350 c 0x120240000080
 172 350 172 350 172 357 c 0
 172 364 172 364 144 364 c 0x110240000080
 116 364 116 364 116 371 c 0
 116 378 116 378 102 378 c 0x140a40000080
 88 378 88 378 88 385 c 0
 88 392 88 392 81 392 c 0
 74 392 74 392 74 399 c 0
 74 406 74 406 67 406 c 0
 60 406 60 406 60 413 c 0
 60 420 60 420 53 420 c 0
 46 420 46 420 46 427 c 0
 46 434 46 434 39 434 c 0
 32 434 32 434 32 448 c 0
 32 462 32 462 25 462 c 0
 18 462 18 462 18 483 c 0x120400000080
 18 504 18 504 11 504 c 0
 4 504 4 504 4 539 c 0x120800000080
 4 574 4 574 11 574 c 0
 18 574 18 574 18 595 c 0
 18 616 18 616 25 616 c 0x122400000080
 32 616 32 616 32 630 c 0
 32 644 32 644 39 644 c 0
 46 644 46 644 46 651 c 0
 46 658 46 658 53 658 c 0
 60 658 60 658 60 665 c 0
 60 672 60 672 67 672 c 0
 74 672 74 672 74 679 c 0
 74 686 74 686 81 686 c 0
 88 686 88 686 88 693 c 0
 88 700 88 700 102 700 c 0x101400000080
 116 700 116 700 116 707 c 0
 116 714 116 714 144 714 c 0
 172 714 172 714 172 721 c 0x108900000080
228 609 m 0x118080000080
 228 616 228 616 193 616 c 0x104080000080
 158 616 158 616 158 609 c 0
 158 602 158 602 144 602 c 0
 130 602 130 602 130 595 c 0x108480000080
 130 588 130 588 123 588 c 0
 116 588 116 588 116 539 c 0x108800000080
 116 490 116 490 123 490 c 0
 130 490 130 490 130 483 c 0
 130 476 130 476 144 476 c 0x118400000080
 158 476 158 476 158 469 c 0
 158 462 158 462 193 462 c 0
 228 462 228 462 228 469 c 0x120480000080
 228 476 228 476 235 476 c 0
 242 476 242 476 242 483 c 0
 242 490 242 490 249 490 c 0
 256 490 256 490 256 504 c 0x110040000080
 256 518 256 518 263 518 c 0
 270 518 270 518 270 539 c 0x110020000080
 270 560 270 560 263 560 c 0
 256 560 256 560 256 574 c 0x110040000080
 256 588 256 588 249 588 c 0
 242 588 242 588 242 595 c 0
 242 602 242 602 235 602 c 0
 228 602 228 602 228 609 c 0x118080000080
522 686 m 0x101000000180
 522 700 522 700 557 700 c 0
 592 700 592 700 592 693 c 0
 592 686 592 686 585 686 c 0
 578 686 578 686 578 672 c 0x101000000180
 578 658 578 658 571 658 c 0
 564 658 564 658 564 644 c 0x101000000280
 564 630 564 630 557 630 c 0
 550 630 550 630 550 609 c 0x101000000480
 550 588 550 588 543 588 c 0
 536 588 536 588 536 574 c 0x101000001080
 536 560 536 560 529 560 c 0
 522 560 522 560 522 539 c 0x101000004080
 522 518 522 518 515 518 c 0
 508 518 508 518 508 504 c 0x101000008080
 508 490 508 490 501 490 c 0
 494 490 494 490 494 469 c 0x101000010080
 494 448 494 448 487 448 c 0
 480 448 480 448 480 434 c 0x101000020080
 480 420 480 420 473 420 c 0
 466 420 466 420 466 399 c 0
 466 378 466 378 459 378 c 0x141000040080
 452 378 452 378 452 364 c 0x110000080080
 452 350 452 350 445 350 c 0
 438 350 438 350 438 329 c 0x120000100080
 438 308 438 308 431 308 c 0
 424 308 424 308 424 294 c 0x120000200080
 424 280 424 280 417 280 c 0
 410 280 410 280 410 259 c 0x120000400080
 410 238 410 238 403 238 c 0
 396 238 396 238 396 224 c 0x120000800080
 396 210 396 210 389 210 c 0
 382 210 382 210 382 196 c 0x120001000080
 382 182 382 182 375 182 c 0
 368 182 368 182 368 161 c 0x120002000080
 368 140 368 140 361 140 c 0
 354 140 354 140 354 126 c 0x520004000080
 354 112 354 112 347 112 c 0
 340 112 340 112 340 91 c 0x900008000080
 340 70 340 70 333 70 c 0
 326 70 326 70 326 56 c 0x300010000080
 326 42 326 42 319 42 c 0
 312 42 312 42 312 28 c 0x300040000080
 312 14 312 14 284 14 c 0x500008000080
 256 14 256 14 256 35 c 0x500040000080
 256 56 256 56 263 56 c 0
 270 56 270 56 270 70 c 0x300010000080
 270 84 270 84 277 84 c 0
 284 84 284 84 284 105 c 0x300008000080
 284 126 284 126 291 126 c 0
 298 126 298 126 298 140 c 0x500004000080
 298 154 298 154 305 154 c 0
 312 154 312 154 312 168 c 0x500002000080
 312 182 312 182 319 182 c 0
 326 182 326 182 326 203 c 0x500001000080
 326 224 326 224 333 224 c 0
 340 224 340 224 340 238 c 0x500000800080
 340 252 340 252 347 252 c 0
 354 252 354 252 354 273 c 0x580000400080
 354 294 354 294 361 294 c 0
 368 294 368 294 368 308 c 0x580000200080
 368 322 368 322 375 322 c 0
 382 322 382 322 382 343 c 0
 382 364 382 364 389 364 c 0x110000100080
 396 364 396 364 396 378 c 0x140000080080
 396 392 396 392 403 392 c 0
 410 392 410 392 410 413 c 0x140000040080
 410 434 410 434 417 434 c 0
 424 434 424 434 424 448 c 0x140000020080
 424 462 424 462 431 462 c 0
 438 462 438 462 438 483 c 0x120000010080
 438 504 438 504 445 504 c 0
 452 504 452 504 452 518 c 0x120000008080
 452 532 452 532 459 532 c 0
 466 532 466 532 466 553 c 0x120000004080
 466 574 466 574 473 574 c 0
 480 574 480 574 480 588 c 0
 480 602 480 602 487 602 c 0x128000001080
 494 602 494 602 494 616 c 0x102000000480
 494 630 494 630 501 630 c 0
 508 630 508 630 508 651 c 0x102000000280
 508 672 508 672 515 672 c 0
 522 672 522 672 522 686 c 0x101000000180
634 371 m 0
 634 378 634 378 655 378 c 0x140000000180
 676 378 676 378 676 371 c 0
 676 364 676 364 704 364 c 0x180000000180
 732 364 732 364 732 357 c 0
 732 350 732 350 746 350 c 0x1200000001a0
 760 350 760 350 760 343 c 0
 760 336 760 336 767 336 c 0
 774 336 774 336 774 329 c 0
 774 322 774 322 781 322 c 0
 788 322 788 322 788 315 c 0
 788 308 788 308 795 308 c 0
 802 308 802 308 802 301 c 0
 802 294 802 294 809 294 c 0
 816 294 816 294 816 280 c 0
 816 266 816 266 823 266 c 0
 830 266 830 266 830 238 c 0x1400000000c0
 830 210 830 210 837 210 c 0
 844 210 844 210 844 189 c 0x1400000000a0
 844 168 844 168 837 168 c 0
 830 168 830 168 830 140 c 0
 830 112 830 112 823 112 c 0x9400000000c0
 816 112 816 112 816 98 c 0
 816 84 816 84 809 84 c 0
 802 84 802 84 802 77 c 0
 802 70 802 70 795 70 c 0
 788 70 788 70 788 63 c 0
 788 56 788 56 781 56 c 0x3000000000c0
 774 56 774 56 774 49 c 0
 774 42 774 42 767 42 c 0
 760 42 760 42 760 35 c 0
 760 28 760 28 746 28 c 0
 732 28 732 28 732 21 c 0
 732 14 732 14 704 14 c 0x5000000000a0
 676 14 676 14 676 7 c 0
 676 0 676 0 655 0 c 0x9000000000a0
 634 0 634 0 634 7 c 0
 634 14 634 14 613 14 c 0
 592 14 592 14 592 21 c 0
 592 28 592 28 578 28 c 0x5000000001a0
 564 28 564 28 564 35 c 0x500000000280
 564 42 564 42 550 42 c 0x500000000480
 536 42 536 42 536 49 c 0x500000001080
 536 56 536 56 529 56 c 0
 522 56 522 56 522 63 c 0x300000000180
 522 70 522 70 515 70 c 0
 508 70 508 70 508 84 c 0x300000000280
 508 98 508 98 501 98 c 0
 494 98 494 98 494 112 c 0x900000000480
 494 126 494 126 487 126 c 0
 480 126 480 126 480 189 c 0
 480 252 480 252 487 252 c 0x580000002080
 494 252 494 252 494 266 c 0x140000000480
 494 280 494 280 501 280 c 0
 508 280 508 280 508 294 c 0x140000000280
 508 308 508 308 515 308 c 0
 522 308 522 308 522 315 c 0x140000000180
 522 322 522 322 529 322 c 0
 536 322 536 322 536 329 c 0x140000001080
 536 336 536 336 550 336 c 0x140000000480
 564 336 564 336 564 343 c 0
 564 350 564 350 571 350 c 0x120000000280
 578 350 578 350 578 357 c 0
 578 364 578 364 606 364 c 0x180000000180
 634 364 634 364 634 371 c 0
690 259 m 0
 690 266 690 266 655 266 c 0
 620 266 620 266 620 259 c 0x1400000008c0
 620 252 620 252 613 252 c 0
 606 252 606 252 606 245 c 0
 606 238 606 238 599 238 c 0
 592 238 592 238 592 231 c 0
 592 224 592 224 585 224 c 0
 578 224 578 224 578 189 c 0
 578 154 578 154 585 154 c 0
 592 154 592 154 592 147 c 0
 592 140 592 140 599 140 c 0
 606 140 606 140 606 133 c 0
 606 126 606 126 613 126 c 0x580000002080
 620 126 620 126 620 119 c 0
 620 112 620 112 655 112 c 0x900000000880
 690 112 690 112 690 119 c 0
 690 126 690 126 704 126 c 0
 718 126 718 126 718 140 c 0x5000000008c0
 718 154 718 154 725 154 c 0
 732 154 732 154 732 189 c 0x5000000000a0
 732 224 732 224 725 224 c 0
 718 224 718 224 718 238 c 0
 718 252 718 252 704 252 c 0x5800000000c0
 690 252 690 252 690 259 c 0
EndSplineSet
EndChar

StartChar: asciicircum
Encoding: 94 94 51
Width: 578
Flags: W
HStem: 378 42<44.0003 58.0587 505.941 520.059>
VStem: 86 154<448.004 531.996> 100 154<476.004 559.996> 310 154<490.004 573.932> 324 154<448.068 531.996> 338 154<420.004 503.996> 352 154<392.004 475.932>
LayerCount: 2
Fore
SplineSet
184 707 m 0xa0
 184 714 184 714 289 714 c 0
 394 714 394 714 394 700 c 0
 394 686 394 686 401 686 c 0
 408 686 408 686 408 665 c 0
 408 644 408 644 415 644 c 0
 422 644 422 644 422 630 c 0
 422 616 422 616 429 616 c 0
 436 616 436 616 436 602 c 0
 436 588 436 588 443 588 c 0
 450 588 450 588 450 567 c 0
 450 546 450 546 457 546 c 0
 464 546 464 546 464 532 c 0xb0
 464 518 464 518 471 518 c 0
 478 518 478 518 478 504 c 0x88
 478 490 478 490 485 490 c 0
 492 490 492 490 492 469 c 0x84
 492 448 492 448 499 448 c 0
 506 448 506 448 506 434 c 0
 506 420 506 420 513 420 c 0
 520 420 520 420 520 406 c 0
 520 392 520 392 527 392 c 0
 534 392 534 392 534 385 c 0
 534 378 534 378 450 378 c 0
 366 378 366 378 366 392 c 0
 366 406 366 406 359 406 c 0
 352 406 352 406 352 420 c 0x82
 352 434 352 434 345 434 c 0
 338 434 338 434 338 455 c 0x84
 338 476 338 476 331 476 c 0
 324 476 324 476 324 490 c 0x88
 324 504 324 504 317 504 c 0
 310 504 310 504 310 518 c 0
 310 532 310 532 303 532 c 0
 296 532 296 532 296 553 c 0
 296 574 296 574 289 574 c 0
 282 574 282 574 282 567 c 0
 282 560 282 560 275 560 c 0
 268 560 268 560 268 546 c 0
 268 532 268 532 261 532 c 0
 254 532 254 532 254 511 c 0xb0
 254 490 254 490 247 490 c 0
 240 490 240 490 240 476 c 0
 240 462 240 462 233 462 c 0
 226 462 226 462 226 448 c 0
 226 434 226 434 219 434 c 0
 212 434 212 434 212 413 c 0
 212 392 212 392 205 392 c 0
 198 392 198 392 198 385 c 0
 198 378 198 378 121 378 c 0
 44 378 44 378 44 399 c 0
 44 420 44 420 51 420 c 0
 58 420 58 420 58 434 c 0
 58 448 58 448 65 448 c 0
 72 448 72 448 72 462 c 0
 72 476 72 476 79 476 c 0
 86 476 86 476 86 497 c 0xc0
 86 518 86 518 93 518 c 0
 100 518 100 518 100 532 c 0
 100 546 100 546 107 546 c 0
 114 546 114 546 114 560 c 0
 114 574 114 574 121 574 c 0
 128 574 128 574 128 588 c 0
 128 602 128 602 135 602 c 0
 142 602 142 602 142 623 c 0
 142 644 142 644 149 644 c 0
 156 644 156 644 156 658 c 0
 156 672 156 672 163 672 c 0
 170 672 170 672 170 686 c 0
 170 700 170 700 177 700 c 0
 184 700 184 700 184 707 c 0xa0
EndSplineSet
EndChar

StartChar: ampersand
Encoding: 38 38 52
Width: 554
Flags: W
HStem: 0 168<186.128 255.897> 28 308<326.041 454.801> 518 42<438 452>
VStem: 4 168<181.999 265.676> 46 182<476.336 545.611> 228 42<714.006 728>
LayerCount: 2
Fore
SplineSet
228 721 m 0x74
 228 728 228 728 249 728 c 0
 270 728 270 728 270 721 c 0x74
 270 714 270 714 298 714 c 0
 326 714 326 714 326 707 c 0
 326 700 326 700 340 700 c 0
 354 700 354 700 354 693 c 0
 354 686 354 686 361 686 c 0
 368 686 368 686 368 679 c 0
 368 672 368 672 375 672 c 0
 382 672 382 672 382 665 c 0
 382 658 382 658 389 658 c 0
 396 658 396 658 396 651 c 0
 396 644 396 644 403 644 c 0
 410 644 410 644 410 637 c 0
 410 630 410 630 417 630 c 0
 424 630 424 630 424 616 c 0
 424 602 424 602 431 602 c 0
 438 602 438 602 438 581 c 0
 438 560 438 560 445 560 c 0
 452 560 452 560 452 539 c 0
 452 518 452 518 445 518 c 0
 438 518 438 518 438 511 c 0
 438 504 438 504 368 504 c 0
 298 504 298 504 298 511 c 0
 298 518 298 518 291 518 c 0
 284 518 284 518 284 532 c 0
 284 546 284 546 256 546 c 0
 228 546 228 546 228 518 c 0x68
 228 490 228 490 235 490 c 0
 242 490 242 490 242 483 c 0
 242 476 242 476 249 476 c 0
 256 476 256 476 256 469 c 0
 256 462 256 462 263 462 c 0
 270 462 270 462 270 448 c 0
 270 434 270 434 277 434 c 0
 284 434 284 434 284 427 c 0
 284 420 284 420 291 420 c 0
 298 420 298 420 298 406 c 0
 298 392 298 392 305 392 c 0
 312 392 312 392 312 385 c 0
 312 378 312 378 319 378 c 0
 326 378 326 378 326 364 c 0
 326 350 326 350 333 350 c 0
 340 350 340 350 340 343 c 0
 340 336 340 336 347 336 c 0x64
 354 336 354 336 354 329 c 0
 354 322 354 322 417 322 c 0
 480 322 480 322 480 315 c 0
 480 308 480 308 487 308 c 0
 494 308 494 308 494 273 c 0
 494 238 494 238 487 238 c 0
 480 238 480 238 480 217 c 0
 480 196 480 196 473 196 c 0
 466 196 466 196 466 168 c 0xa4
 466 140 466 140 473 140 c 0
 480 140 480 140 480 133 c 0
 480 126 480 126 487 126 c 0
 494 126 494 126 494 112 c 0
 494 98 494 98 501 98 c 0
 508 98 508 98 508 91 c 0
 508 84 508 84 515 84 c 0
 522 84 522 84 522 70 c 0
 522 56 522 56 529 56 c 0
 536 56 536 56 536 49 c 0
 536 42 536 42 543 42 c 0
 550 42 550 42 550 28 c 0
 550 14 550 14 459 14 c 0
 368 14 368 14 368 21 c 0
 368 28 368 28 347 28 c 0x64
 326 28 326 28 326 21 c 0
 326 14 326 14 312 14 c 0
 298 14 298 14 298 7 c 0
 298 0 298 0 235 0 c 0
 172 0 172 0 172 7 c 0xb4
 172 14 172 14 151 14 c 0
 130 14 130 14 130 21 c 0
 130 28 130 28 123 28 c 0
 116 28 116 28 116 35 c 0
 116 42 116 42 102 42 c 0
 88 42 88 42 88 49 c 0
 88 56 88 56 81 56 c 0
 74 56 74 56 74 63 c 0
 74 70 74 70 67 70 c 0
 60 70 60 70 60 77 c 0
 60 84 60 84 53 84 c 0
 46 84 46 84 46 98 c 0x68
 46 112 46 112 39 112 c 0
 32 112 32 112 32 126 c 0
 32 140 32 140 25 140 c 0
 18 140 18 140 18 161 c 0
 18 182 18 182 11 182 c 0
 4 182 4 182 4 217 c 0x70
 4 252 4 252 11 252 c 0
 18 252 18 252 18 280 c 0
 18 308 18 308 25 308 c 0
 32 308 32 308 32 322 c 0
 32 336 32 336 39 336 c 0
 46 336 46 336 46 343 c 0
 46 350 46 350 53 350 c 0
 60 350 60 350 60 357 c 0
 60 364 60 364 67 364 c 0
 74 364 74 364 74 371 c 0
 74 378 74 378 81 378 c 0
 88 378 88 378 88 385 c 0
 88 392 88 392 95 392 c 0
 102 392 102 392 102 399 c 0
 102 406 102 406 95 406 c 0
 88 406 88 406 88 413 c 0
 88 420 88 420 81 420 c 0
 74 420 74 420 74 434 c 0
 74 448 74 448 67 448 c 0
 60 448 60 448 60 469 c 0
 60 490 60 490 53 490 c 0
 46 490 46 490 46 525 c 0x68
 46 560 46 560 53 560 c 0
 60 560 60 560 60 581 c 0
 60 602 60 602 67 602 c 0
 74 602 74 602 74 616 c 0
 74 630 74 630 81 630 c 0
 88 630 88 630 88 637 c 0
 88 644 88 644 95 644 c 0
 102 644 102 644 102 651 c 0
 102 658 102 658 109 658 c 0
 116 658 116 658 116 665 c 0
 116 672 116 672 123 672 c 0
 130 672 130 672 130 679 c 0
 130 686 130 686 137 686 c 0
 144 686 144 686 144 693 c 0
 144 700 144 700 158 700 c 0
 172 700 172 700 172 707 c 0
 172 714 172 714 200 714 c 0
 228 714 228 714 228 721 c 0x74
200 259 m 0
 200 266 200 266 193 266 c 0
 186 266 186 266 186 259 c 0
 186 252 186 252 179 252 c 0
 172 252 172 252 172 224 c 0
 172 196 172 196 179 196 c 0
 186 196 186 196 186 189 c 0
 186 182 186 182 193 182 c 0
 200 182 200 182 200 175 c 0
 200 168 200 168 221 168 c 0xb4
 242 168 242 168 242 175 c 0
 242 182 242 182 249 182 c 0
 256 182 256 182 256 189 c 0
 256 196 256 196 249 196 c 0
 242 196 242 196 242 203 c 0
 242 210 242 210 235 210 c 0
 228 210 228 210 228 224 c 0
 228 238 228 238 221 238 c 0
 214 238 214 238 214 245 c 0
 214 252 214 252 207 252 c 0
 200 252 200 252 200 259 c 0
EndSplineSet
EndChar

StartChar: asterisk
Encoding: 42 42 53
Width: 396
Flags: W
HStem: 420 14<72.0001 85.9267> 532 84<72.6719 113.964 282 324.001> 546 70<282.328 337.996> 560 28<330.677 352> 574 56<44.0137 71.9316>
VStem: 44 42<616.006 630> 100 14<406 419.786> 198 28<700 714> 226 70<406.646 447.964> 268 14<392 405.927 616.214 630>
LayerCount: 2
Fore
SplineSet
198 707 m 0x8f
 198 714 198 714 212 714 c 0
 226 714 226 714 226 686 c 0
 226 658 226 658 233 658 c 0
 240 658 240 658 240 637 c 0
 240 616 240 616 254 616 c 0xa680
 268 616 268 616 268 623 c 0
 268 630 268 630 275 630 c 0x8e40
 282 630 282 630 282 623 c 0
 282 616 282 616 303 616 c 0xc640
 324 616 324 616 324 609 c 0
 324 602 324 602 331 602 c 0
 338 602 338 602 338 595 c 0
 338 588 338 588 345 588 c 0x9640
 352 588 352 588 352 574 c 0x8e40
 352 560 352 560 338 560 c 0x9640
 324 560 324 560 324 553 c 0
 324 546 324 546 317 546 c 0xa640
 310 546 310 546 310 539 c 0
 310 532 310 532 296 532 c 0xc680
 282 532 282 532 282 511 c 0xc640
 282 490 282 490 289 490 c 0
 296 490 296 490 296 455 c 0xc680
 296 420 296 420 289 420 c 0
 282 420 282 420 282 406 c 0
 282 392 282 392 275 392 c 0
 268 392 268 392 268 399 c 0xc640
 268 406 268 406 254 406 c 0
 240 406 240 406 240 413 c 0
 240 420 240 420 233 420 c 0
 226 420 226 420 226 427 c 0xc680
 226 434 226 434 219 434 c 0
 212 434 212 434 212 441 c 0
 212 448 212 448 198 448 c 0
 184 448 184 448 184 441 c 0
 184 434 184 434 170 434 c 0
 156 434 156 434 156 427 c 0
 156 420 156 420 135 420 c 0
 114 420 114 420 114 413 c 0
 114 406 114 406 107 406 c 0
 100 406 100 406 100 413 c 0
 100 420 100 420 86 420 c 0
 72 420 72 420 72 427 c 0
 72 434 72 434 79 434 c 0
 86 434 86 434 86 448 c 0
 86 462 86 462 93 462 c 0
 100 462 100 462 100 476 c 0
 100 490 100 490 107 490 c 0
 114 490 114 490 114 504 c 0
 114 518 114 518 107 518 c 0
 100 518 100 518 100 525 c 0
 100 532 100 532 93 532 c 0xc7
 86 532 86 532 86 539 c 0
 86 546 86 546 79 546 c 0xa7
 72 546 72 546 72 553 c 0
 72 560 72 560 65 560 c 0x97
 58 560 58 560 58 567 c 0
 58 574 58 574 51 574 c 0
 44 574 44 574 44 602 c 0
 44 630 44 630 65 630 c 0x8f
 86 630 86 630 86 623 c 0
 86 616 86 616 114 616 c 0xa7
 142 616 142 616 142 630 c 0
 142 644 142 644 149 644 c 0
 156 644 156 644 156 658 c 0
 156 672 156 672 163 672 c 0
 170 672 170 672 170 686 c 0
 170 700 170 700 184 700 c 0
 198 700 198 700 198 707 c 0x8f
EndSplineSet
EndChar

StartChar: parenleft
Encoding: 40 40 54
Width: 278
Flags: W
HStem: 672 28<246.019 260>
VStem: 8 168<98.3817 489.917> 22 168<56.0684 288.186 307.784 531.992> 36 168<14.0684 153.234 448.839 573.328> 50 154<490.649 602.001> 64 154<-42.0014 55.3281 532.008 630.001> 78 154<-70.0004 13.3281 574.068 657.932> 92 154<-83.9958 -14.0684 601.999 685.354> 120 140<-104.677 -69.9986 658.672 699.505>
LayerCount: 2
Fore
SplineSet
120 693 m 0x8080
 120 700 120 700 190 700 c 0xa0
 260 700 260 700 260 686 c 0x8080
 260 672 260 672 253 672 c 0
 246 672 246 672 246 651 c 0x81
 246 630 246 630 239 630 c 0
 232 630 232 630 232 616 c 0x82
 232 602 232 602 225 602 c 0
 218 602 218 602 218 581 c 0x84
 218 560 218 560 211 560 c 0
 204 560 204 560 204 532 c 0x90
 204 504 204 504 197 504 c 0
 190 504 190 504 190 476 c 0xa0
 190 448 190 448 183 448 c 0
 176 448 176 448 176 301 c 0xc0
 176 154 176 154 183 154 c 0
 190 154 190 154 190 119 c 0xa0
 190 84 190 84 197 84 c 0
 204 84 204 84 204 63 c 0x90
 204 42 204 42 211 42 c 0
 218 42 218 42 218 21 c 0x84
 218 0 218 0 225 0 c 0
 232 0 232 0 232 -21 c 0x82
 232 -42 232 -42 239 -42 c 0
 246 -42 246 -42 246 -56 c 0x81
 246 -70 246 -70 253 -70 c 0
 260 -70 260 -70 260 -84 c 0
 260 -98 260 -98 267 -98 c 0
 274 -98 274 -98 274 -105 c 0
 274 -112 274 -112 197 -112 c 0
 120 -112 120 -112 120 -98 c 0x8080
 120 -84 120 -84 113 -84 c 0
 106 -84 106 -84 106 -77 c 0
 106 -70 106 -70 99 -70 c 0
 92 -70 92 -70 92 -56 c 0x81
 92 -42 92 -42 85 -42 c 0
 78 -42 78 -42 78 -28 c 0x82
 78 -14 78 -14 71 -14 c 0
 64 -14 64 -14 64 0 c 0x84
 64 14 64 14 57 14 c 0
 50 14 50 14 50 35 c 0x88
 50 56 50 56 43 56 c 0
 36 56 36 56 36 77 c 0x90
 36 98 36 98 29 98 c 0
 22 98 22 98 22 133 c 0xa0
 22 168 22 168 15 168 c 0
 8 168 8 168 8 294 c 0xc0
 8 420 8 420 15 420 c 0
 22 420 22 420 22 455 c 0xa0
 22 490 22 490 29 490 c 0
 36 490 36 490 36 511 c 0x90
 36 532 36 532 43 532 c 0
 50 532 50 532 50 553 c 0x88
 50 574 50 574 57 574 c 0
 64 574 64 574 64 588 c 0x84
 64 602 64 602 71 602 c 0
 78 602 78 602 78 616 c 0x82
 78 630 78 630 85 630 c 0
 92 630 92 630 92 644 c 0x81
 92 658 92 658 99 658 c 0
 106 658 106 658 106 672 c 0
 106 686 106 686 113 686 c 0
 120 686 120 686 120 693 c 0x8080
EndSplineSet
EndChar

StartChar: parenright
Encoding: 41 41 55
Width: 277
Flags: W
VStem: 18 140<-104.677 -56.0042 644.004 692.677> 32 140<-97.9958 -28.6719 629.999 685.996> 46 154<-55.9958 27.9316 560.068 643.996> 46 140<-69.9958 0.000640869> 60 154<-27.9316 55.3281 532.672 630> 74 154<-0.000640869 111.421 476.579 587.932> 88 154<42.0042 181.052 406.948 545.996> 102 168<112.418 475.582>
LayerCount: 2
Fore
SplineSet
4 693 m 0x80
 4 700 4 700 81 700 c 0
 158 700 158 700 158 686 c 0x80
 158 672 158 672 165 672 c 0
 172 672 172 672 172 658 c 0x40
 172 644 172 644 179 644 c 0
 186 644 186 644 186 637 c 0x10
 186 630 186 630 193 630 c 0
 200 630 200 630 200 616 c 0x20
 200 602 200 602 207 602 c 0
 214 602 214 602 214 581 c 0x08
 214 560 214 560 221 560 c 0
 228 560 228 560 228 546 c 0x04
 228 532 228 532 235 532 c 0
 242 532 242 532 242 504 c 0x02
 242 476 242 476 249 476 c 0
 256 476 256 476 256 441 c 0
 256 406 256 406 263 406 c 0
 270 406 270 406 270 294 c 0x01
 270 182 270 182 263 182 c 0
 256 182 256 182 256 147 c 0
 256 112 256 112 249 112 c 0
 242 112 242 112 242 84 c 0x02
 242 56 242 56 235 56 c 0
 228 56 228 56 228 42 c 0x04
 228 28 228 28 221 28 c 0
 214 28 214 28 214 14 c 0x08
 214 0 214 0 207 0 c 0
 200 0 200 0 200 -14 c 0x20
 200 -28 200 -28 193 -28 c 0
 186 -28 186 -28 186 -42 c 0x10
 186 -56 186 -56 179 -56 c 0
 172 -56 172 -56 172 -70 c 0x40
 172 -84 172 -84 165 -84 c 0
 158 -84 158 -84 158 -98 c 0
 158 -112 158 -112 81 -112 c 0
 4 -112 4 -112 4 -105 c 0
 4 -98 4 -98 11 -98 c 0
 18 -98 18 -98 18 -84 c 0x80
 18 -70 18 -70 25 -70 c 0
 32 -70 32 -70 32 -56 c 0x40
 32 -42 32 -42 39 -42 c 0
 46 -42 46 -42 46 -21 c 0x20
 46 0 46 0 53 0 c 0
 60 0 60 0 60 21 c 0x08
 60 42 60 42 67 42 c 0
 74 42 74 42 74 63 c 0x04
 74 84 74 84 81 84 c 0
 88 84 88 84 88 119 c 0x02
 88 154 88 154 95 154 c 0
 102 154 102 154 102 294 c 0x01
 102 434 102 434 95 434 c 0
 88 434 88 434 88 469 c 0x02
 88 504 88 504 81 504 c 0
 74 504 74 504 74 525 c 0x04
 74 546 74 546 67 546 c 0
 60 546 60 546 60 567 c 0x08
 60 588 60 588 53 588 c 0
 46 588 46 588 46 609 c 0x20
 46 630 46 630 39 630 c 0
 32 630 32 630 32 644 c 0x40
 32 658 32 658 25 658 c 0
 18 658 18 658 18 672 c 0
 18 686 18 686 11 686 c 0
 4 686 4 686 4 693 c 0x80
EndSplineSet
EndChar

StartChar: underscore
Encoding: 95 95 56
Width: 526
Flags: W
HStem: -154 112<4.72098 522> -140 98<4.09012 273.938>
LayerCount: 2
Fore
SplineSet
4 -91 m 2x40
 4 -42 l 1x40
 263 -42 l 1
 522 -42 l 1
 522 -98 l 1
 522 -154 l 1
 270 -154 l 2x80
 18 -154 18 -154 18 -147 c 0
 18 -140 18 -140 11 -140 c 0
 4 -140 4 -140 4 -91 c 2x40
EndSplineSet
EndChar

StartChar: plus
Encoding: 43 43 57
Width: 526
Flags: W
HStem: 280 168<326.417 520.578> 294 140<4 186 327.246 522>
VStem: 186 154<99.4219 293.583 434.417 628.578> 186 140<98 292.754 435.246 630>
LayerCount: 2
Fore
SplineSet
186 532 m 1x60
 186 630 l 1
 256 630 l 1
 326 630 l 1
 326 539 l 2
 326 448 326 448 333 448 c 0x90
 340 448 340 448 340 441 c 0
 340 434 340 434 431 434 c 2
 522 434 l 1
 522 364 l 1
 522 294 l 1
 431 294 l 2
 340 294 340 294 340 287 c 0x60
 340 280 340 280 333 280 c 0
 326 280 326 280 326 189 c 2
 326 98 l 1
 256 98 l 1
 186 98 l 1x90
 186 196 l 1xa0
 186 294 l 1
 95 294 l 1
 4 294 l 1
 4 364 l 1
 4 434 l 1
 95 434 l 1
 186 434 l 1x50
 186 532 l 1x60
EndSplineSet
EndChar

StartChar: hyphen
Encoding: 45 45 58
Width: 326
Flags: W
HStem: 252 140<44 281.125> 252 126<45.75 281.817>
VStem: 44 224<252.984 391.474>
LayerCount: 2
Fore
SplineSet
44 322 m 1xa0
 44 392 l 1
 156 392 l 2xa0
 268 392 268 392 268 385 c 0
 268 378 268 378 275 378 c 0
 282 378 282 378 282 315 c 2
 282 252 l 1x60
 163 252 l 1
 44 252 l 1
 44 322 l 1xa0
EndSplineSet
EndChar

StartChar: equal
Encoding: 61 61 59
Width: 554
Flags: W
HStem: 224 126<18 536> 392 140<18 536>
LayerCount: 2
Fore
SplineSet
18 462 m 1
 18 532 l 1
 277 532 l 1
 536 532 l 1
 536 462 l 1
 536 392 l 1
 277 392 l 1
 18 392 l 1
 18 462 l 1
18 287 m 1
 18 350 l 1
 277 350 l 1
 536 350 l 1
 536 287 l 1
 536 224 l 1
 277 224 l 1
 18 224 l 1
 18 287 l 1
EndSplineSet
EndChar

StartChar: colon
Encoding: 58 58 60
Width: 314
Flags: W
HStem: 0 238<79.9993 234.001> 14 210<66.0355 154.739 159.261 248.001> 28 182<65.9099 108.005 205.995 261.964> 294 238<94.0042 234.001> 308 210<66.0733 154.739 159.261 248.001> 322 182<65.9099 108.005 205.995 261.964>
VStem: 52 210<27.9993 110.062 113.938 116.739 121.261 210.001 321.999 404.062 407.938 410.739 415.261 503.927> 66 182<14.0355 70.0043 168.004 223.964 308.036 364.004 462.004 504.09> 80 154<13.9099 42.0014 196.004 224.09 307.91 336.001> 108 98<0.0901222 14.0901 223.91 237.91 294.09 308.09 517.91 531.91>
LayerCount: 2
Fore
SplineSet
108 525 m 0x0840
 108 532 108 532 157 532 c 0
 206 532 206 532 206 525 c 0x1040
 206 518 206 518 220 518 c 0
 234 518 234 518 234 511 c 0x0880
 234 504 234 504 241 504 c 0
 248 504 248 504 248 497 c 0x05
 248 490 248 490 255 490 c 0
 262 490 262 490 262 476 c 0
 262 462 262 462 269 462 c 0
 276 462 276 462 276 413 c 0
 276 364 276 364 269 364 c 0
 262 364 262 364 262 350 c 0x06
 262 336 262 336 255 336 c 0
 248 336 248 336 248 329 c 0
 248 322 248 322 241 322 c 0x05
 234 322 234 322 234 315 c 0
 234 308 234 308 220 308 c 0x0880
 206 308 206 308 206 301 c 0
 206 294 206 294 157 294 c 0
 108 294 108 294 108 301 c 0x1040
 108 308 108 308 94 308 c 0
 80 308 80 308 80 315 c 0x0880
 80 322 80 322 73 322 c 0
 66 322 66 322 66 329 c 0x05
 66 336 66 336 59 336 c 0
 52 336 52 336 52 350 c 0
 52 364 52 364 45 364 c 0
 38 364 38 364 38 406 c 0
 38 448 38 448 45 448 c 0
 52 448 52 448 52 462 c 0x06
 52 476 52 476 59 476 c 0
 66 476 66 476 66 490 c 0x05
 66 504 66 504 80 504 c 0x0480
 94 504 94 504 94 511 c 0
 94 518 94 518 101 518 c 0
 108 518 108 518 108 525 c 0x0840
108 231 m 0
 108 238 108 238 157 238 c 0
 206 238 206 238 206 231 c 0x8040
 206 224 206 224 220 224 c 0
 234 224 234 224 234 217 c 0x4080
 234 210 234 210 241 210 c 0
 248 210 248 210 248 203 c 0x21
 248 196 248 196 255 196 c 0
 262 196 262 196 262 182 c 0
 262 168 262 168 269 168 c 0
 276 168 276 168 276 119 c 0
 276 70 276 70 269 70 c 0
 262 70 262 70 262 56 c 0x22
 262 42 262 42 255 42 c 0
 248 42 248 42 248 35 c 0
 248 28 248 28 241 28 c 0x21
 234 28 234 28 234 21 c 0
 234 14 234 14 220 14 c 0x4080
 206 14 206 14 206 7 c 0
 206 0 206 0 157 0 c 0
 108 0 108 0 108 7 c 0x8040
 108 14 108 14 94 14 c 0
 80 14 80 14 80 21 c 0x4080
 80 28 80 28 73 28 c 0
 66 28 66 28 66 35 c 0x21
 66 42 66 42 59 42 c 0
 52 42 52 42 52 56 c 0
 52 70 52 70 45 70 c 0
 38 70 38 70 38 112 c 0
 38 154 38 154 45 154 c 0
 52 154 52 154 52 168 c 0x22
 52 182 52 182 59 182 c 0
 66 182 66 182 66 196 c 0
 66 210 66 210 73 210 c 0x21
 80 210 80 210 80 217 c 0
 80 224 80 224 94 224 c 0x4080
 108 224 108 224 108 231 c 0
EndSplineSet
EndChar

StartChar: quotedbl
Encoding: 34 34 61
Width: 488
Flags: W
HStem: 686 14<216.796 230 426.651 440>
VStem: 62 154<505.433 685.354> 76 126<437.605 671.139> 90 98<434.467 573.4> 272 154<505.874 685.354> 300 98<434.495 572.567>
LayerCount: 2
Fore
SplineSet
48 686 m 0xc0
 48 700 48 700 139 700 c 0
 230 700 230 700 230 693 c 0
 230 686 230 686 223 686 c 0
 216 686 216 686 216 637 c 0xc0
 216 588 216 588 209 588 c 0
 202 588 202 588 202 546 c 0xa0
 202 504 202 504 195 504 c 0
 188 504 188 504 188 469 c 0
 188 434 188 434 139 434 c 0
 90 434 90 434 90 455 c 0x90
 90 476 90 476 83 476 c 0
 76 476 76 476 76 525 c 0xa0
 76 574 76 574 69 574 c 0
 62 574 62 574 62 623 c 0
 62 672 62 672 55 672 c 0
 48 672 48 672 48 686 c 0xc0
258 686 m 0
 258 700 258 700 349 700 c 0
 440 700 440 700 440 693 c 0
 440 686 440 686 433 686 c 0
 426 686 426 686 426 644 c 0x88
 426 602 426 602 419 602 c 0
 412 602 412 602 412 553 c 0
 412 504 412 504 405 504 c 0
 398 504 398 504 398 469 c 0
 398 434 398 434 349 434 c 0
 300 434 300 434 300 448 c 0x84
 300 462 300 462 293 462 c 0
 286 462 286 462 286 518 c 0
 286 574 286 574 279 574 c 0
 272 574 272 574 272 623 c 0x88
 272 672 272 672 265 672 c 0
 258 672 258 672 258 686 c 0
EndSplineSet
EndChar

StartChar: quotesingle
Encoding: 39 39 62
Width: 278
Flags: W
HStem: 686 14<48.0003 61.2045>
VStem: 62 154<490.017 670.708> 90 112<435.246 586.375>
LayerCount: 2
Fore
SplineSet
48 693 m 0xc0
 48 700 48 700 139 700 c 0
 230 700 230 700 230 672 c 0
 230 644 230 644 223 644 c 0
 216 644 216 644 216 595 c 0xc0
 216 546 216 546 209 546 c 0
 202 546 202 546 202 490 c 0
 202 434 202 434 146 434 c 0
 90 434 90 434 90 462 c 0xa0
 90 490 90 490 83 490 c 0
 76 490 76 490 76 539 c 0
 76 588 76 588 69 588 c 0
 62 588 62 588 62 637 c 0
 62 686 62 686 55 686 c 0
 48 686 48 686 48 693 c 0xc0
EndSplineSet
EndChar

